<svg width="1036" height="1036" viewBox="0 0 1036 1036" fill="none" xmlns="http://www.w3.org/2000/svg">
<path d="M433.719 256.103C439.979 294.371 446.06 331.547 404.201 355.571H404.048C396.239 359.247 402.67 370.578 409.712 365.983C458.864 338.193 453.143 300.184 447.138 260.289C443.847 238.417 440.47 215.98 446 194.351C451.358 176.742 466.362 164.187 483.511 155.307C492.391 150.561 485.348 137.088 476.468 141.68C419.691 170.351 426.814 213.89 433.719 256.103Z" fill="#18B6A5"/>
<path d="M362.402 477.598C410.019 463.207 461.922 462.134 511.223 467.188L511.069 467.341C518.725 468.105 519.797 456.622 512.295 455.858C461.003 451.264 408.794 452.795 359.187 468.259C307.437 486.478 334.384 507.913 373.579 510.517C412.01 514.038 450.439 515.262 488.716 509.904C490.899 509.427 493.084 508.999 495.257 508.572C506.338 506.405 517.139 504.291 526.227 495.972C543.061 470.913 497.02 471.415 472.734 471.683C468.083 471.733 464.23 471.774 461.77 471.627C456.227 471.983 450.692 472.202 445.174 472.421C424.624 473.236 404.31 474.04 384.756 481.886C384.144 482.345 383.378 483.417 383.072 484.336C382.612 485.713 383.685 488.163 384.144 488.163C392.137 492.652 401.384 492.991 410.482 493.323C414.107 493.456 417.708 493.589 421.196 493.981C433.904 494.592 446.611 494.899 459.319 494.899C460.697 494.899 461.922 493.828 461.922 492.449C461.922 491.072 460.85 489.848 459.472 489.848C453.152 489.517 446.709 489.386 440.226 489.255C423.975 488.928 407.486 488.595 392.08 485.081C396.037 483.876 401.111 483.025 405.425 482.345C416.603 479.741 536.639 471.167 520.869 490.918C513.492 497.411 500.427 499.778 488.938 501.859L487.645 502.095C450.439 506.842 411.856 505.158 374.803 501.484L373.484 501.297C362.93 499.794 349.36 497.865 341.426 491.991C340.501 490.982 340.13 490.757 340.111 490.507C340.096 490.302 340.316 490.077 340.661 489.387C344.703 484.171 352.19 481.398 358.956 478.894C360.134 478.458 361.29 478.029 362.402 477.598Z" fill="#18B6A5"/>
<path d="M540.619 773.861C496.677 787.028 450.133 790.245 405.426 782.742C397.922 781.516 396.239 793.153 403.894 794.073C450.592 799.891 498.362 794.379 542.304 779.068C545.672 777.996 543.834 772.79 540.619 773.861Z" fill="#18B6A5"/>
<path d="M307.896 575.741C298.709 597.327 296.566 623.203 304.834 646.017C305.599 648.313 304.528 650.762 302.231 651.528C300.088 652.294 297.79 651.222 296.872 649.231C285.696 624.734 285.389 596.257 293.657 570.38C294.883 566.399 299.323 564.105 303.303 565.482C307.59 566.859 309.734 571.76 308.049 575.894L307.896 575.741Z" fill="#18B6A5"/>
<path d="M370.822 655.203C365.617 632.697 366.842 609.27 370.822 586.458V586.305C372.508 576.046 356.583 574.055 355.665 584.468C353.675 608.811 354.746 634.074 362.555 657.5C363.167 659.644 365.464 660.868 367.608 660.408C369.904 659.797 371.435 657.5 370.822 655.203Z" fill="#18B6A5"/>
<path d="M449.061 587.223C445.999 610.802 445.693 634.992 447.836 658.878C448.603 665.308 438.65 666.533 437.732 660.255C433.751 635.605 432.372 610.802 433.904 585.693C434.21 581.404 437.732 578.19 442.018 578.497C446.459 578.803 449.827 582.784 449.061 587.223Z" fill="#18B6A5"/>
<path d="M594.054 639.433C602.169 612.028 601.709 583.09 591.604 556.143C587.776 546.65 573.385 552.775 577.519 562.114C582.571 573.137 585.174 585.692 586.093 598.401C587.012 611.108 586.093 623.969 582.877 636.065C581.959 639.128 583.643 642.342 586.705 643.26C589.767 644.18 593.135 642.496 594.054 639.433Z" fill="#18B6A5"/>
<path d="M520.714 574.668C524.849 600.238 528.37 626.725 523.164 653.672C522.552 656.886 519.49 658.877 516.275 658.264C513.212 657.653 511.222 654.743 511.681 651.681C515.357 627.643 511.069 602.228 505.71 577.578C503.414 567.473 519.031 564.409 520.714 574.668Z" fill="#18B6A5"/>
<path fill-rule="evenodd" clip-rule="evenodd" d="M233.283 469.793C233.545 468.301 233.916 466.769 234.404 465.197C265.485 410.079 364.087 396.758 421.655 389.41C460.238 385.886 499.128 385.428 537.864 389.562C541.997 390.021 545.06 393.848 544.6 397.983C544.326 400.55 542.842 402.677 540.776 403.839C628.407 424.537 657.105 448.217 648.3 469.737L648.198 472.587C672.875 442.207 714.713 424.606 753.132 438.709C823.409 463.82 815.294 562.728 768.75 606.823C763.721 612.464 755.747 618.499 748.917 623.667L748.727 623.812L748.407 624.053C746.894 625.197 745.443 626.296 744.1 627.339C722.688 644.924 697.379 656.017 672.179 667.061C649.99 676.785 627.884 686.472 608.599 700.525L608.454 700.634L608.327 700.725L608.085 700.886C607.859 701.028 607.627 701.155 607.39 701.267C597.998 715.505 586.533 728.259 572.639 738.783L572.738 738.851L572.887 738.957L573.078 739.106C601.097 760.389 609.059 781.978 570.322 796.369C534.648 810.608 496.677 820.102 458.094 821.325C417.521 822.552 260.279 822.245 327.493 750.437C328.248 749.541 329.07 748.879 329.925 748.422C276.376 713.147 246.854 642.874 238.079 579.877C232.26 544.968 230.423 509.751 231.495 474.538C231.495 472.699 232.172 471.056 233.283 469.793ZM504.624 402.304C439.915 399.005 373.596 406.069 312.49 426.613C296.143 432.556 249.348 451.723 246.634 472.931C246.799 473.639 246.861 474.385 246.805 475.149H246.959L246.906 478.216C247.686 481.519 249.654 484.848 253.084 488.163L253.93 488.747C352.452 412.822 522.593 421.893 629.63 476.073C652.376 456.138 626.419 432.222 508.774 407.781C505.656 407.228 504.42 404.731 504.624 402.304ZM470.19 519.091C403.86 524.878 327.645 530.014 267.923 497.329C361.037 426.966 520.546 432.893 623.341 480.724C597.11 497.483 536.651 511.03 470.19 519.091ZM341.138 755.096C341.207 756.821 340.623 758.658 339.13 760.389L339.283 760.083L337.411 762.302C333.255 767.223 329.123 772.113 326.729 776.771C324.278 782.284 324.738 782.742 329.637 787.336C362.378 807.007 403.657 807.353 441.995 807.674C447.221 807.717 452.394 807.76 457.482 807.852C498.975 805.861 548.428 797.135 583.183 775.24C584.868 773.096 585.48 771.719 585.174 769.882C583.025 762.841 576.691 757.38 570.593 752.124C568.868 750.639 567.162 749.168 565.576 747.682C564.676 746.95 564.086 745.992 563.798 744.959C562.199 745.986 560.572 746.986 558.914 747.958C557.284 748.915 555.627 749.844 553.94 750.743C505.405 777.077 450.286 774.169 397.464 770.955C376.548 769.635 357.801 763.994 341.138 755.096ZM602.399 689.306C601.861 689.724 601.324 690.147 600.79 690.573C599.226 691.79 598.402 693.598 598.374 695.44C566.076 741.871 507.909 763.611 450.286 760.389C447.556 760.327 444.817 760.275 442.069 760.223C411.076 759.621 379.2 759.002 351.072 745.078C326.39 731.807 307.354 713.391 292.737 691.709C397.227 719.65 509.216 711.539 609.898 675.451C607.635 680.273 605.128 684.891 602.399 689.306ZM620.841 677.04C632.387 670.405 644.527 665.033 656.368 660.258C693.727 645.101 729.861 625.042 758.951 597.331C798.146 559.665 808.251 474.078 748.233 452.49C711.028 439.322 671.067 461.065 651.929 493.983C650.77 495.927 649.215 497.034 647.559 497.488L647.394 506.215V506.26C647.154 519.088 646.913 531.949 646.41 544.825C661.087 516.973 679.863 489.597 711.028 479.896C740.424 471.935 760.941 501.79 757.42 528.583C749.107 593.269 687.088 629.311 631.591 649.08C628.587 658.663 625.027 668.031 620.841 677.04ZM649.326 572.985C648.261 575.354 646.534 576.684 644.63 577.196C643.23 596.863 640.257 617.064 635.155 636.637C684.266 617.43 738.361 582.734 744.559 527.819C746.856 497.349 722.817 481.273 696.942 502.403C675.354 519.704 661.115 546.651 649.326 572.985ZM637.783 483.139C637.525 491.21 637.333 499.308 637.14 507.42C635.88 560.435 634.607 613.983 615.054 663.237C508.88 701.392 390.266 707.274 283.092 673.118C282.528 672.934 281.983 672.808 281.456 672.737C254.87 621.958 247.531 558.235 246.851 500.827C260.834 512.137 282.208 518.848 296.464 523.325L298.097 523.837C354.134 540.679 414.305 537.31 471.567 531.341C547.478 523.466 611.982 505.215 637.783 483.139Z" fill="#18B6A5"/>
<path d="M439.109 357.867C463.692 343.407 461.765 320.059 459.681 294.8C457.131 263.896 454.345 230.133 499.587 206.29C508.619 201.392 515.969 215.478 506.476 219.917C469.868 236.729 471.391 266.316 472.907 295.798C474.347 323.777 475.783 351.658 444.62 368.432C437.425 372.718 431.453 361.542 439.109 357.867Z" fill="#18B6A5"/>
<path d="M382.152 854.701C437.731 863.123 494.074 861.133 549.346 852.253V852.1C559.298 850.416 556.542 835.256 546.589 837.094C493.309 846.893 437.731 849.956 383.836 843.065C380.775 842.608 377.713 844.75 377.253 847.966C376.794 851.181 378.938 854.244 382.152 854.701Z" fill="#18B6A5"/>
<path d="M513.52 892.98C482.592 896.805 451.817 895.734 421.502 890.373C418.287 889.76 416.143 886.859 416.756 883.639C417.368 880.574 420.124 878.433 423.339 878.891C452.43 882.871 482.592 882.724 511.377 877.976C521.482 876.292 523.931 891.754 513.673 893.136L513.52 892.98Z" fill="#18B6A5"/>
</svg>
