<svg width="1036" height="1104" viewBox="0 0 1036 1104" fill="none" xmlns="http://www.w3.org/2000/svg">
<path d="M305.083 524.316L356.001 551.613C351.132 556.02 345.29 559.445 340.222 562.419C335.375 565.259 331.238 567.685 329.328 570.161C329.328 571.492 330.658 572.558 331.986 572.558C345.01 571.759 358.298 568.03 370.524 562.44V562.706C371.067 562.451 371.569 562.173 372.028 561.877C372.545 561.629 373.036 561.332 373.497 560.991L385.141 567.232C389.925 569.895 393.645 562.44 388.861 560.044L377.417 552.524C376.779 530.126 369.919 509.559 361.752 490.558C361.487 489.495 360.157 488.961 359.095 488.961C357.765 489.228 357.234 490.558 357.234 491.891C360.304 508.575 362.106 525.443 360.557 541.445L283.429 490.766C283.439 479.783 268.732 422.373 262.354 440.775C265.394 453.971 266.734 466.704 266.02 479.327L215.046 445.834H214.78C199.897 433.854 183.153 458.346 199.897 467.93L285.366 513.747C280.569 516.846 276.211 519.616 270.592 521.707C267.669 522.772 268.2 527.564 271.389 527.564C277.273 528.201 283.823 527.313 289.842 526.497C293.884 525.95 297.688 525.433 300.891 525.433H300.624C302.377 525.317 303.857 524.921 305.083 524.316Z" fill="#18B6A5"/>
<path fill-rule="evenodd" clip-rule="evenodd" d="M367.866 261.872C374.509 334.55 389.128 391.257 472.845 408.296L473.112 408.561C475.922 409.287 478.44 409.198 480.611 408.525C508.42 498.561 546.456 637.39 561.331 763.311C539.505 713.276 510.873 666.053 475.047 625.116C476.975 624.241 478.428 622.436 478.428 619.678C485.869 532.09 416.768 456.215 338.099 427.464C260.228 396.848 173.32 396.581 91.4623 406.432C80.2999 406.964 74.9842 422.405 83.7547 429.594L162.158 499.611C237.638 576.816 341.023 619.943 446.002 639.378C451.942 640.699 457.696 637.648 460.41 632.484C508.493 686.26 543.431 751.554 566.424 820.153C571.151 901.76 562.903 973.102 531.317 1015.02C523.61 1022.47 535.57 1033.65 542.479 1025.93C591.822 965.525 592.231 843.847 574.138 717.157C576.618 699.682 577.754 682.257 578.878 664.963C580.389 641.755 581.885 618.784 586.597 596.248C589.868 574.452 596.543 553.915 606.081 535.121C606.796 534.574 607.455 533.954 608.039 533.264C609.2 534.089 610.655 534.484 612.111 534.219C645.333 528.628 677.226 521.707 709.65 514.252C775.295 503.337 840.942 473.786 887.718 424.802C911.796 403.916 931.236 378.152 949.938 353.368L953.895 348.128C956.817 344.135 957.617 338.811 955.225 334.285C951.503 327.097 942.732 324.966 936.089 328.96C899.379 348.542 857.475 345.212 814.847 341.822C781.552 339.177 747.813 336.495 715.762 344.668C634.967 361.706 567.727 442.373 584.737 527.298L584.471 527.563C585.082 530.832 586.545 533.287 588.484 535.001C573.352 566.302 564.152 601.228 560.53 636.982C539.086 526.598 508.403 421.435 488.794 359.043C483.477 344.666 461.685 353.452 467.53 367.294C468.948 371.641 470.423 376.202 471.947 380.967C407.792 365.678 401.118 319.833 394.443 257.346C391.493 244.814 388.014 232.517 384.148 220.383L414.111 235.516C414.756 235.822 415.386 236.064 415.997 236.247C419.759 242.801 423.403 249.445 426.945 256.163C427.297 257.596 428.018 258.926 428.986 260.063C433.993 269.705 438.796 279.489 443.439 289.367C443.142 289.416 442.846 289.481 442.549 289.559C431.12 292.487 420.488 292.487 408.53 288.227V288.494C405.605 287.163 403.213 291.688 405.872 293.553C412.918 300.182 441.413 313.689 451.098 306.036C453.039 310.352 454.956 314.679 456.849 319.015C456.606 321.893 457.949 324.534 460.042 326.377C462.208 331.403 464.349 336.436 466.468 341.472C467.264 343.336 469.125 344.135 470.986 343.601C472.845 343.069 473.643 340.94 473.112 339.076C471.913 335.58 470.704 332.082 469.485 328.582C471.483 327.911 473.338 326.428 474.706 323.903C481.882 310.327 484.807 294.618 484.807 280.509V280.776C485.072 276.782 478.693 275.45 477.631 279.71C474.39 291.069 469.538 301.015 462.724 309.547C456.752 293.082 450.44 276.656 443.55 260.436C443.85 260.061 444.136 259.653 444.408 259.208C453.178 244.3 456.103 228.326 458.495 213.418C459.293 208.892 452.647 207.028 451.053 211.288C446.448 221.98 441.515 232.672 435.083 241.284C432.766 236.254 430.383 231.251 427.927 226.281C427.837 223.619 426.743 221.033 424.435 219.336C420.467 211.58 416.311 203.909 411.938 196.344C412.665 195.414 413.31 194.281 413.845 192.921C416.768 183.87 416.768 174.552 416.768 166.831H417.034C417.034 164.169 413.578 163.104 412.25 165.234C408.701 170.671 405.316 175.615 401.58 179.292C393.708 166.961 385.17 154.966 375.84 143.401L376.104 143.134C369.68 135.045 359.2 140.033 356.744 147.401C353.554 139.699 350.317 132.001 347.075 124.288L344.892 119.098C417.786 160.279 490.997 207.39 518.559 289.292C527.33 318.045 527.063 353.719 503.41 371.023C499.954 373.419 499.157 378.211 501.549 381.673C503.941 385.134 508.725 385.933 512.181 383.537C572.511 333.22 526.797 242.437 485.338 195.316C444.473 148.676 388.608 115.445 336.453 84.4201L336.426 84.4047C332.62 82.141 328.835 79.8891 325.077 77.6445C321.621 75.2485 317.104 74.716 312.851 76.5796C305.941 79.5081 302.752 87.2286 305.675 94.1504C316.837 120.507 329.064 150.058 339.96 178.011C342.515 185.086 345.259 192.229 348.009 199.388C356.123 220.517 364.293 241.788 367.866 261.872ZM439.534 610.691C428.402 599.852 416.654 589.597 404.277 580.009C396.037 573.886 405.872 560.576 414.111 567.232V567.497C432.49 581.738 449.538 597.431 465.285 614.312C459.489 446.888 262.691 410.612 122.461 428.511C129.958 435.207 137.761 442.252 145.752 449.465C183.434 483.485 225.314 521.293 259.165 544.337C313.682 577.903 376.905 596.621 439.534 610.691ZM404.338 216.875C391.794 197.021 377.946 178.219 362.315 160.992C369.651 179.106 376.61 197.313 382.692 215.881C383.023 215.749 383.404 215.714 383.813 215.816L384.077 216.082L404.338 216.875ZM723.136 434.247C676.396 450.285 637.466 481.756 612.838 522.883C622.06 520.666 631.428 518.482 640.882 516.276C693.88 503.917 749.567 490.928 797.089 468.462C840.149 443.04 876.858 407.507 907.602 367.479C877.448 373.652 846.579 371.21 815.875 368.783C783.847 366.252 751.999 363.734 721.343 371.023C661.011 383.445 608.168 439.161 608.315 501.056C624.088 478.508 643.757 458.968 667.498 443.876C667.566 442.559 667.947 441.156 668.721 439.708H668.986C680.681 418.145 693.97 395.248 713.105 378.743C714.7 377.146 717.092 377.412 718.687 378.743C720.015 380.073 720.015 382.469 718.687 384.067C706.919 397.852 699.043 413.738 692.251 430.484C705.202 424.601 719.145 419.899 734.1 416.546C746.597 413.134 759.954 411.159 773.369 409.175C800.76 405.126 828.396 401.039 849.447 384.601C853.167 380.073 860.343 386.463 855.825 390.723C832.76 410.528 804.018 415.934 775.508 421.294C767.466 422.808 759.442 424.315 751.569 426.143C766.595 430.358 782.439 432.971 798.418 435.449C800.81 435.716 802.404 438.11 802.14 440.241C801.873 442.371 800.012 443.968 797.887 443.968C775.295 443.968 752.174 443.169 728.786 437.845C726.137 437.237 724.289 435.916 723.136 434.247Z" fill="#18B6A5"/>
</svg>
