<svg width="1036" height="1036" viewBox="0 0 1036 1036" fill="none" xmlns="http://www.w3.org/2000/svg">
<path fill-rule="evenodd" clip-rule="evenodd" d="M986.747 133.626C970.016 159.845 568.54 463.557 521.248 499.227C526.861 506.805 529.569 516.448 527.485 527.989C527.295 529.166 527.074 530.331 526.821 531.485C527.453 532.076 527.932 532.846 528.169 533.757C551.137 617.712 523.673 712.906 462.882 760.111C421.343 792.463 366.905 808.589 311.977 808.589V808.492C258.222 808.492 203.979 792.951 160.878 761.872C158.728 760.308 158.239 757.278 159.802 755.029C161.367 752.879 164.396 752.293 166.644 753.954C248.504 813.012 371.902 813.674 451.195 756.577C449.952 755.976 449.103 754.585 449.882 752.976C451.168 750.172 452.44 747.35 453.692 744.507C435.536 750.003 417.104 754.547 398.49 758.203C397.803 759.654 397.112 761.102 396.415 762.547C395.574 764.29 394.727 766.028 393.873 767.763C393.025 769.485 392.171 771.201 391.314 772.916C390.783 773.978 390.25 775.037 389.715 776.096L388.135 779.217C387.348 780.768 386.559 782.315 385.768 783.861C384.399 786.695 379.806 784.546 381.272 781.613C384.828 774.336 388.29 766.97 391.567 759.52C373.748 762.802 355.773 765.281 337.73 767.009C331.511 777.994 324.231 788.343 315.985 797.837C314.812 799.206 312.564 797.446 313.736 795.981C320.654 787.05 326.716 777.515 331.874 767.543C318.878 768.671 305.85 769.411 292.821 769.788C288.979 769.842 285.135 769.86 281.287 769.823C280.964 770.275 280.641 770.724 280.315 771.173L279.498 772.293L279.041 772.916C274.252 779.073 269.169 784.937 262.816 789.628C262.607 789.802 262.348 789.89 262.084 789.903C261.607 789.928 261.113 789.712 260.862 789.334C260.621 789.044 260.546 788.684 260.591 788.332C260.613 788.165 260.663 788 260.735 787.846C260.779 787.751 260.831 787.66 260.891 787.578C260.918 787.539 260.947 787.502 260.976 787.467C261.002 787.438 261.029 787.408 261.057 787.381C266.628 782.592 271.222 776.434 275.327 770.179L275.609 769.729C260.879 769.373 246.112 768.12 231.345 765.096C228.707 764.509 227.045 761.969 227.533 759.33C228.121 756.593 230.856 754.932 233.496 755.616C249.131 758.397 264.945 760.118 280.845 760.913C284.877 753.726 288.536 746.16 291.459 738.403C279.542 738.075 267.632 737.181 255.779 735.677C252.418 735.264 251.164 732.334 251.697 729.795C222.172 741.23 191.551 749.85 160.173 751.037C140.272 781.831 109.179 808.729 70.6678 810.836C39.5873 810.836 39.1966 784.838 57.571 766.269C70.57 752.096 86.0119 741.444 101.748 731.671C101.91 731.565 102.076 731.471 102.245 731.388C98.788 726.574 96.4734 720.985 95.8829 714.763C92.0713 675.375 137.225 634.522 164.591 610.968C202.611 581.939 242.194 556.235 284.905 534.929C312.87 521.453 342.23 511.907 371.973 504.173C397.292 490.184 425.554 481.755 454.463 479.613C507.386 439.475 937.468 113.37 972.77 108.605C979.512 107.725 986.065 111.048 989.095 117.009C992.022 122.581 991.046 129.032 986.747 133.626ZM287.188 761.18C303.236 761.736 319.359 761.37 335.464 760.22C339.074 752.433 342.149 744.414 344.664 736.239C329.699 737.838 314.627 738.634 299.548 738.54C296.098 746.423 291.885 753.936 287.188 761.18ZM341.643 759.74C359.342 758.258 377.004 755.849 394.505 752.697C398.26 743.777 401.718 734.74 404.733 725.592C395.997 727.718 387.199 729.625 378.34 731.28C369.644 732.91 360.883 734.282 352.08 735.38C349.149 743.738 345.66 751.883 341.643 759.74ZM401.66 751.365C420.116 747.822 438.372 743.476 456.281 738.542C460.804 727.961 465.047 717.136 468.819 706.137C450.494 712.701 431.897 718.598 413.015 723.507C409.655 732.992 405.801 742.255 401.66 751.365ZM461.139 742.193C459.477 745.803 457.782 749.391 456.061 752.957L456.919 752.293C462.142 748.235 467.227 743.642 472.116 738.566C468.469 739.815 464.81 741.024 461.139 742.193ZM473.918 736.664C474.025 735.24 472.772 733.662 471.091 734.309C468.651 735.031 466.203 735.745 463.748 736.446C468.645 725.505 473.212 714.369 477.254 703.061C483.343 700.803 489.4 698.478 495.427 696.095C497.871 695.215 496.307 691.599 494.059 692.48C489.083 694.34 484.08 696.157 479.051 697.922C482.302 688.4 485.165 678.759 487.525 669.013C496.84 664.863 505.997 660.392 514.974 655.632C517.516 654.361 515.365 650.549 513.02 651.82C505.114 655.732 497.084 659.413 488.946 662.846C490.72 654.74 492.131 646.563 493.115 638.324C502.846 633.6 512.408 628.587 521.914 623.575C525.139 621.914 522.5 616.929 519.373 618.59C510.966 623.098 502.465 627.247 493.871 631.054C494.881 619.582 495.034 607.994 494.157 596.306H494.059C493.473 589.855 483.602 591.029 484.383 597.382C485.67 609.904 485.666 622.474 484.619 635.003C465.526 642.857 445.965 649.076 425.904 653.839C425.968 650.635 425.963 647.432 425.889 644.231C425.952 643.796 425.971 643.33 425.937 642.829H425.851L425.839 642.437C425.803 641.534 425.526 640.681 425.061 639.958C424.74 639.46 424.331 639.022 423.851 638.669C436.128 629.994 448.111 620.896 459.754 611.358C463.136 608.459 466.687 605.51 470.318 602.495C489.419 586.634 510.741 568.929 521.41 546.908C538.319 623.157 512.608 695.14 473.918 736.664ZM425.546 662.747C435.519 660.327 445.44 657.579 455.258 654.264C465.03 650.912 474.529 646.977 483.846 642.705C482.913 650.681 481.578 658.634 479.904 666.541C461.428 673.845 442.445 679.854 423.166 684.356C424.317 677.201 425.109 669.983 425.546 662.747ZM416.589 664.835C416.275 672.042 415.533 679.195 414.425 686.289C397.04 689.918 379.443 692.304 361.786 693.294C362.251 689.292 362.59 685.271 362.801 681.238H362.702C362.767 679.783 362.333 678.637 361.619 677.804C367.212 674.676 372.766 671.477 378.276 668.203C378.928 670.355 380.898 672.102 383.813 671.564C394.74 669.424 405.687 667.282 416.589 664.835ZM416.753 655.902C416.729 652.38 416.598 648.844 416.353 645.296C416.227 644.919 416.139 644.51 416.097 644.065C407.751 649.784 399.275 655.314 390.686 660.658C399.468 659.323 408.156 657.742 416.753 655.902ZM421.799 691.983C441.148 687.045 460.099 680.613 478.478 672.922C476.27 682.315 473.606 691.631 470.595 700.834C452.427 706.969 433.951 712.408 415.268 716.883L415.479 716.228C418.068 708.299 420.173 700.194 421.799 691.983ZM413.055 694.105C411.439 702.428 409.345 710.668 406.875 718.823C389.593 722.677 372.15 725.677 354.623 727.61C357.147 719.321 359.127 710.851 360.533 702.267C378.252 700.855 395.801 698.081 413.055 694.105ZM352.537 693.684C352.782 689.988 352.913 686.287 352.929 682.587C345.949 686.368 338.909 690.041 331.818 693.605C338.724 693.855 345.633 693.879 352.537 693.684ZM317.304 700.718C314.494 702.059 311.675 703.386 308.849 704.697L307.103 705.519C307.841 706.418 308.249 707.649 308.068 709.192V709.29C307.015 716.509 305.247 723.403 302.91 730.031C317.589 730.328 332.268 729.741 346.895 728.393C349.088 719.992 350.698 711.454 351.701 702.858C344.542 703.243 337.357 703.403 330.156 703.327C326.192 703.267 324.738 699.478 325.726 696.635C322.926 698.012 320.118 699.373 317.304 700.718ZM298.202 709.68C297.691 716.381 296.343 723.112 294.374 729.758C282.885 729.254 271.401 728.195 259.943 726.521C272.928 721.242 285.689 715.494 298.202 709.68ZM978.83 127.956C965.06 149.577 642.008 395.853 514.516 492.154C513.552 491.352 512.55 490.587 511.514 489.858C618.195 407.952 806.457 263.487 908.754 185.035L937.485 162.946C938.098 162.426 938.728 161.92 939.359 161.424C940.697 160.367 942.061 159.354 943.425 158.343L943.442 158.329L943.468 158.308C949.278 154.003 955.02 149.746 958.499 142.422C960.061 138.903 957.428 134.505 954.104 134.115C950.971 133.528 948.139 134.896 945.989 135.776C938.849 139.209 931.39 144.917 924.466 150.212C923.016 151.323 921.583 152.416 920.193 153.466L919.036 154.326C917.827 155.224 916.644 156.083 915.496 156.887L782.204 255.752C680.808 330.968 558.879 421.413 480.632 479.409C480.09 479.372 479.549 479.341 479.008 479.317C476.447 479.188 473.886 479.11 471.326 479.082C664.58 332.479 949.615 121.538 974.039 118.28C977.268 117.89 979.512 119.747 980.393 121.506C980.98 122.581 981.662 124.829 979.806 126.783C979.668 126.924 979.478 127.11 979.305 127.31C979.107 127.524 978.934 127.754 978.83 127.956ZM493.945 481.702L717.19 315.512C754.095 288.074 805.359 249.911 853.175 214.308L935.137 153.27L936.182 152.506L937.399 151.605L938.582 150.723C939.203 150.261 939.825 149.802 940.446 149.352C941.767 148.392 943.088 147.469 944.426 146.619C942.182 148.63 939.669 150.515 937.2 152.364C935.439 153.685 933.704 154.987 932.107 156.301L892.937 186.42C874.03 200.973 846.65 222.07 819.031 243.347L786.025 268.775C764.024 285.724 744.16 301.022 731.166 311.016L504.391 485.66C501.08 484.037 497.566 482.715 493.945 481.702ZM479.645 489.102C480.673 489.6 481.842 489.73 482.945 489.45C502.909 492.086 521.957 504.234 517.711 526.816C516.44 538.35 511.065 547.146 503.93 555.943C489.465 574.023 471.872 589.368 453.596 603.734C426.132 625.628 397.496 646.152 367.002 663.55C326.149 686.029 283.731 707.628 240.044 723.559C204.956 735.092 105.949 766.758 104.973 705.576C119.967 650.472 173.493 614.851 219.667 584.123L219.692 584.105C222.566 582.192 225.411 580.299 228.217 578.421C264.438 553.689 303.728 535.579 344.88 522.193L343.742 523.102C341.101 525.366 341.817 528.607 343.793 530.359C321.61 540.1 300.686 551.022 295.069 554.085L293.809 554.797C248.382 580.449 130.826 646.838 125.888 699.027C125.497 710.854 136.639 719.455 146.706 722.484C174.854 732.55 205.054 722.386 231.345 713.101C318.134 678.601 400.623 631.199 471.189 569.722C486.925 556.039 520.448 518.607 483.406 509.419C457.214 505.48 431.02 510.884 405.359 516.846C401.596 509.438 380.403 515.387 357.466 524.598C363.162 520.471 369.16 516.661 375.394 513.191C391.003 509.033 406.829 505.462 422.81 502.382C427.24 501.345 427.454 496.337 425.015 493.954C442.564 489.761 460.579 488.003 478.03 488.993C478.567 489.021 479.106 489.059 479.645 489.102ZM135.466 698.831C142.298 647.015 309.096 547.839 381.909 526.995C382.331 528.691 383.614 530.162 385.504 530.377C370.498 536.715 356.068 544.153 342.174 552.447C338.455 551.522 334.773 550.476 331.133 549.295V549.197C325.074 546.168 320.773 555.55 327.028 558.092C328.404 558.502 329.783 558.894 331.163 559.267C320.61 566.039 310.373 573.286 300.433 580.898C295.505 579.786 290.619 578.509 285.784 577.053H285.883C283.341 575.978 280.213 577.249 279.333 579.986C278.455 582.526 279.823 585.263 282.364 586.143C285.124 587.083 287.88 587.892 290.634 588.59C285.012 593.113 279.488 597.745 274.056 602.464L272.227 604.118C271.34 604.923 270.451 605.73 269.566 606.539C263.474 604.411 257.47 601.926 251.576 599.044C249.133 597.87 246.103 599.044 245.028 601.584C244.051 604.124 245.224 606.96 247.667 608.035C250.218 609.11 252.794 610.135 255.391 611.106C257.602 611.932 259.827 612.721 262.068 613.47C252.947 622.008 244.016 630.791 235.464 639.913C225.348 637.489 215.332 634.561 205.445 631.1C202.806 630.22 199.972 631.686 199.19 634.326C198.408 636.867 199.972 639.603 202.513 640.385C211.152 642.946 219.909 645.252 228.752 647.235C221.037 655.848 213.691 664.77 206.867 674.074C199.265 671.351 191.914 667.76 184.92 663.157H184.823C179.154 659.737 174.17 668.533 179.936 671.66C186.865 675.747 194.161 678.943 201.691 681.354C194.512 691.783 188.007 702.692 182.38 714.176L182.478 714.079C182.034 714.995 182.172 715.822 182.612 716.446C159.41 719.66 141.223 715.793 135.466 698.831ZM269.351 615.754C260.041 624.01 251.089 632.625 242.59 641.535C252.175 643.602 261.841 645.224 271.565 646.43C279.276 637.819 287.373 629.557 295.805 621.635C286.881 620.269 278.027 618.3 269.351 615.754ZM339.344 648.4C334.437 648.695 329.532 648.9 324.629 649.013C333.133 640.1 341.863 631.417 350.872 623.055C365.297 621.958 379.617 619.966 393.775 617.659C376.75 628.878 359.277 639.452 341.663 649.622C341.533 649.392 341.369 649.182 341.172 649.003C341.054 648.894 340.923 648.798 340.78 648.716C340.388 648.489 339.908 648.366 339.344 648.4ZM334.013 654.009C329.055 654.364 324.087 654.652 319.109 654.862C314.659 659.628 310.27 664.454 305.934 669.322C311.948 666.181 317.258 663.322 321.641 660.925C324.232 659.508 326.499 658.253 328.397 657.195C330.27 656.138 332.141 655.076 334.013 654.009ZM301.52 668.24C305.15 663.811 308.844 659.425 312.601 655.09C299.269 655.457 285.89 655.205 272.539 654.053C264.658 662.724 257.183 671.767 250.171 681.188C258.535 681.235 266.958 680.647 275.326 679.577C277.825 679.243 278.62 682.532 276.985 683.752C286.095 679.439 294.633 675.168 302.213 671.255C301.537 670.883 301.029 670.17 301.047 669.402C301.057 669.017 301.199 668.617 301.52 668.24ZM278.87 647.257C291.793 648.581 304.807 649.179 317.853 649.109C325.624 640.376 333.66 631.86 341.963 623.613C335.018 623.952 328.05 624.058 321.067 623.867C315.526 623.738 309.977 623.369 304.441 622.766C295.561 630.561 287.017 638.723 278.87 647.257ZM312.365 615.981C324.255 617.288 336.296 617.665 348.359 617.366C356.87 609.19 365.654 601.302 374.711 593.752C363.41 594.297 352.088 594.431 340.776 594.121C331.019 601.042 321.529 608.325 312.365 615.981ZM381.761 596.696C373.433 603.174 365.353 609.967 357.489 617.017C369.939 616.373 382.377 615.079 394.662 613.41C396.122 613.186 396.969 614.413 396.925 615.572C410.656 606.427 424.082 596.851 437.04 586.711C420.331 589.646 403.462 591.791 386.527 593.034C385.809 593.577 385.094 594.122 384.38 594.669C383.505 595.341 382.631 596.017 381.761 596.696ZM438.35 581.842C424.433 583.609 410.221 585.156 395.908 586.155C407.567 577.869 419.654 570.233 432.1 563.223C444.895 561.76 457.635 559.906 470.239 558.061C468.405 559.897 466.638 561.617 465.031 563.174C457.213 570.265 449.153 577.085 440.892 583.669C440.816 583.302 440.664 582.951 440.443 582.654C440.396 582.592 440.347 582.533 440.295 582.476C440.255 582.432 440.214 582.391 440.171 582.35C439.728 581.938 439.109 581.711 438.35 581.842ZM350.935 587.108C361.641 587.49 372.402 587.371 383.141 586.89C392.809 579.202 402.78 571.906 413.053 565.06C403.707 565.771 394.354 566.17 385.024 566.101C373.411 572.662 362.02 579.661 350.935 587.108ZM398.917 558.513C407.51 558.485 416.131 558.131 424.715 557.567C439.05 548.695 453.953 540.707 469.43 533.755C471.873 532.583 474.805 533.657 475.978 536.101C477.151 538.544 476.076 541.477 473.633 542.65C464.215 546.725 454.944 551.11 445.843 555.809C450.009 555.401 454.153 554.965 458.268 554.515C462.181 554.087 466.066 553.646 469.919 553.205C471.591 552.935 472.608 554.274 472.658 555.609C488.56 539.278 506.338 516.277 468.55 516.945C446.226 517.104 424.033 521.558 402.076 526.694C404.383 528.954 404.505 533.505 400.428 534.928C385.569 540.524 370.612 547.37 355.818 555.284C364.243 556.714 372.812 557.605 381.454 558.08C396.532 549.188 412.006 541.023 427.696 533.561C433.463 530.922 437.665 539.621 431.802 542.454C420.723 547.448 409.74 552.798 398.917 558.513ZM235.865 648.754C245.664 650.744 255.557 652.317 265.493 653.379C257.936 662.242 250.784 671.46 244.093 681.041C233.55 680.58 223.148 679.039 213.118 676.105C220.181 666.762 227.793 657.625 235.865 648.754ZM207.919 683.159C218.284 685.858 229.012 687.173 239.772 687.373C238.24 689.673 236.734 691.995 235.254 694.336H235.157C233.496 696.877 237.6 699.418 239.163 696.877C241.282 693.668 243.452 690.5 245.674 687.373C255.872 687.186 266.047 686.042 275.912 684.171L276.029 684.155L276.083 684.143L276.231 684.109C248.124 697.378 214.718 710.965 187.3 715.713C193.361 704.679 200.277 693.798 207.919 683.159ZM303.264 614.793C311.484 607.429 319.993 600.373 328.747 593.621C326.447 593.493 324.147 593.345 321.849 593.179C314.637 592.592 307.455 591.888 300.269 590.636C292.388 596.496 284.665 602.626 277.151 608.994C285.718 611.552 294.439 613.449 303.264 614.793ZM310.847 582.999C319.907 584.617 329.086 585.726 338.332 586.417C348.364 579.071 358.683 572.104 369.229 565.507C360.605 564.905 352.018 563.827 343.494 562.146C332.44 568.544 321.52 575.52 310.847 582.999ZM108.538 738.299C108.132 738.972 107.556 739.554 106.83 739.978V739.88C91.094 747.601 22.0928 798.033 70.6678 802.039C103.301 800.767 132.298 777.598 150.899 751.168C150.168 751.161 149.437 751.149 148.707 751.133L147.975 751.116L146.704 751.079C145.946 751.055 145.188 751.025 144.429 750.992C144.378 751.955 143.99 752.91 143.286 753.661C131.753 764.999 97.0561 793.44 81.0278 778.878C73.289 764.862 95.7335 748.348 108.363 739.057L108.93 738.64L108.538 738.299ZM117.283 744.411C122.913 747.503 129.096 749.527 135.124 750.305C122.702 761.291 107.026 772.905 91.094 774.089C89.2369 774.089 87.8686 773.403 88.0645 773.403C91.3348 762.696 102.672 754.722 112.643 747.71C114.237 746.588 115.797 745.491 117.283 744.411Z" fill="#18B6A5"/>
<path d="M383.128 852.57C380.49 852.57 378.339 850.517 378.242 847.88C378.242 845.143 380.295 842.895 382.933 842.797H384.692C387.429 842.504 389.677 844.751 389.775 847.39C389.873 850.127 387.82 852.375 385.084 852.473H383.031L383.128 852.57Z" fill="#18B6A5"/>
<path d="M422.125 856.968C422.634 857.349 423.196 857.658 423.808 857.884C424.605 858.18 425.484 858.336 426.425 858.336V858.239H427.794C430.335 857.946 431.899 855.697 431.704 853.06C431.508 851.104 429.944 849.443 428.087 848.856C427.709 848.521 427.278 848.257 426.8 848.065C426.165 847.811 425.447 847.684 424.667 847.684C421.93 847.879 419.878 850.127 420.073 852.864C420.17 854.232 421.05 856.088 422.125 856.968Z" fill="#18B6A5"/>
<path d="M396.421 887.169C393.977 887.169 391.826 885.313 391.534 882.775C391.24 880.133 393.195 877.69 395.932 877.396H397.593C400.329 877.103 402.676 879.054 402.871 881.696C403.067 884.433 401.111 886.781 398.376 886.971H396.909C396.909 886.971 396.615 887.074 396.421 887.074V887.169Z" fill="#18B6A5"/>
<path d="M481.157 879.84C482.037 881.014 483.308 881.601 484.676 881.601C485.751 881.601 486.826 881.308 487.803 880.522C489.954 878.864 490.149 875.636 488.488 873.486C488.488 873.391 488.195 872.994 488.195 872.994C486.533 870.844 483.503 870.456 481.353 872.122C479.203 873.779 478.812 876.81 480.474 878.959L481.157 879.84Z" fill="#18B6A5"/>
<path d="M435.027 927.531C433.267 927.531 432.095 926.65 431.606 926.072C429.553 924.112 429.553 921.375 431.606 918.147C433.071 915.902 436.102 915.22 438.349 916.584C439.717 917.465 440.598 918.932 440.598 920.495C441.379 922.55 440.891 924.794 439.034 926.072C437.47 927.142 436.199 927.436 435.027 927.436V927.531Z" fill="#18B6A5"/>
<path d="M374.43 914.926C375.31 916.584 377.069 917.464 378.926 917.464L378.828 917.274C379.415 917.274 379.903 917.274 380.391 917.076L381.37 916.782C383.91 916.005 385.376 913.268 384.595 910.721C383.813 908.183 381.076 906.716 378.535 907.501L377.362 907.89L377.753 909.159L376.776 907.985L375.31 909.159C373.746 910.627 373.453 913.07 374.43 914.926Z" fill="#18B6A5"/>
<path d="M461.708 891.27C460.926 891.27 460.145 891.08 459.461 890.683C458.58 890.2 457.896 889.518 457.408 888.637C455.648 887.661 454.476 885.607 454.866 883.552C455.355 880.91 457.604 879.054 460.34 879.546H460.356C461.449 879.745 464.745 880.34 466.204 883.258C466.888 884.631 466.79 887.264 466.107 888.637C465.226 890.295 463.565 891.27 461.806 891.27H461.708Z" fill="#18B6A5"/>
<path d="M411.025 906.646C411.275 906.784 411.537 906.905 411.809 907.009C412.353 907.199 412.933 907.302 413.525 907.302V907.208C414.306 907.208 415.088 907.009 415.87 906.62H417.336C419.877 906.914 422.418 904.954 422.614 902.217C422.907 899.584 420.854 897.132 418.216 896.942C415.479 896.744 413.134 897.132 411.179 898.212C408.833 899.481 407.954 902.416 409.225 904.764C409.355 905.006 409.503 905.239 409.665 905.446C409.957 905.826 410.296 906.154 410.671 906.413C410.786 906.5 410.904 906.569 411.025 906.646Z" fill="#18B6A5"/>
<path d="M314.086 890.701C313.499 890.459 312.947 890.097 312.466 889.613C310.609 887.654 310.609 884.528 312.563 882.672L316.277 879.158C318.233 877.294 321.36 877.294 323.217 879.253C325.074 881.205 325.074 884.338 323.119 886.195L319.405 889.812C318.428 890.684 317.255 891.176 315.984 891.176V891.081C315.339 891.081 314.694 890.952 314.086 890.701Z" fill="#18B6A5"/>
<path d="M360.747 894.596C361.627 895.183 362.506 895.476 363.484 895.476H363.679C365.242 895.476 366.709 894.699 367.687 893.326C369.152 891.272 368.663 888.44 366.806 886.877V886.679C368.077 884.339 367.198 881.309 364.852 880.04C362.506 878.762 359.476 879.643 358.206 881.991C356.446 885.22 355.763 886.877 356.056 888.829C356.153 889.614 356.935 891.272 357.424 891.859C358.108 892.644 359.085 893.525 360.747 894.596Z" fill="#18B6A5"/>
<path d="M483.6 907.89C482.59 907.89 481.514 907.726 480.319 907.389C479.434 907.13 478.483 906.785 477.443 906.327C475 905.248 473.729 902.416 474.804 899.973C475.88 897.435 478.714 896.261 481.157 897.331C481.821 897.625 482.332 897.815 482.711 897.927C482.955 898.005 483.144 898.048 483.284 898.074C483.502 898.117 483.6 898.117 483.6 898.117C486.24 897.53 488.683 899.187 489.27 901.829C489.856 904.471 487.999 907.104 485.36 907.691C484.774 907.795 484.187 907.89 483.6 907.89Z" fill="#18B6A5"/>
<path d="M301.421 857.749C302.106 858.728 303.376 859.901 305.624 859.901C306.602 859.901 307.677 859.705 308.947 859.216C311.293 858.239 312.173 855.698 311.293 853.254C311.256 853.181 311.219 853.119 311.187 853.068C311.135 852.985 311.098 852.924 311.098 852.863C311.041 852.183 310.82 851.535 310.472 850.959C310.394 850.829 310.309 850.702 310.217 850.579C310.017 850.31 309.787 850.06 309.534 849.834C307.481 847.977 304.354 848.172 302.594 850.225C299.565 853.548 300.346 856.187 301.421 857.749Z" fill="#18B6A5"/>
<path d="M341.151 832.73C340.842 832.726 340.534 832.693 340.226 832.628C339.768 832.533 339.311 832.371 338.855 832.144L338.697 832.055L338.487 831.941C338.307 831.846 338.12 831.753 338.072 831.753C335.727 830.482 334.554 827.257 335.824 824.911C337.095 822.566 339.734 821.49 342.079 822.76L343.448 823.543C345.793 824.814 346.673 827.842 345.403 830.188C344.531 831.834 342.892 832.713 341.151 832.73Z" fill="#18B6A5"/>
<path d="M541.95 876.81C542.634 878.571 544.393 879.841 546.445 879.841V879.935C549.183 879.935 551.333 877.786 551.333 875.049V872.114C551.333 869.964 549.964 867.918 548.01 867.227C546.153 866.545 543.513 867.624 542.244 869.282L541.461 870.258C539.898 872.217 540.093 875.049 541.95 876.81Z" fill="#18B6A5"/>
<path d="M457.017 853.06C455.648 853.06 454.281 852.473 453.303 851.399C451.934 849.933 451.446 847 452.326 845.241C452.814 844.263 454.476 842.113 458.288 842.406C460.927 842.7 462.882 845.045 462.686 847.781C462.588 849.052 461.904 850.224 461.024 851.007L460.941 851.126C460.895 851.186 460.845 851.247 460.793 851.308L460.648 851.473C460.525 851.607 460.392 851.739 460.259 851.873L460.242 851.886C459.363 852.668 458.19 853.06 457.017 853.06Z" fill="#18B6A5"/>
<path d="M541.167 821.588C541.461 821.686 542.243 821.686 542.243 821.686L542.34 821.783C543.708 821.783 545.664 821.198 547.227 818.461C547.616 817.625 547.784 816.76 547.73 815.916C547.689 815.278 547.522 814.653 547.227 814.063C547.325 813.476 547.422 812.793 547.618 812.108C548.302 809.469 546.64 806.829 544.002 806.244C541.362 805.657 538.724 807.221 538.137 809.86C537.745 811.548 537.51 812.81 537.37 813.791C537.161 815.256 537.161 816.097 537.161 816.799C537.258 818.95 539.018 821.1 541.167 821.588Z" fill="#18B6A5"/>
<path d="M507.108 881.204C504.394 881.179 502.269 878.943 502.269 876.318C502.269 874.859 503.344 872.511 504.517 871.63C506.862 869.774 509.795 870.257 511.749 870.75C514.388 871.432 515.952 874.073 515.268 876.715C514.682 879.158 512.336 880.617 509.893 880.333C509.588 880.557 509.253 880.738 508.894 880.876C508.346 881.092 507.744 881.204 507.108 881.204Z" fill="#18B6A5"/>
<path d="M498.163 784.547C498.75 784.743 499.337 784.84 499.924 784.84V784.938C501.585 784.938 503.246 784.059 504.126 782.593C506.667 781.713 508.035 778.879 507.156 776.337C506.276 773.797 503.442 772.428 500.9 773.308C498.881 774 497.543 775.034 496.665 776.085C496.413 776.387 496.198 776.692 496.016 776.989C495.76 777.41 495.568 777.819 495.427 778.195C494.45 780.736 495.623 783.569 498.163 784.547Z" fill="#18B6A5"/>
<path d="M339.636 923.136C338.464 923.136 337.291 922.748 336.313 921.867C334.359 920.011 334.163 916.981 336.02 914.926L337.682 913.07C339.539 911.11 342.568 910.92 344.621 912.776C346.576 914.632 346.772 917.663 344.915 919.717L343.253 921.574C342.276 922.644 341.005 923.136 339.636 923.136Z" fill="#18B6A5"/>
<path d="M73.5016 600.706C54.6387 618.591 45.745 645.957 52.5866 670.881C53.4659 674.399 58.9391 673.031 58.0598 669.512C53.0752 647.228 62.6531 622.501 79.7568 608.231C82.1024 606.472 82.3959 603.149 80.441 600.999C78.5841 598.946 75.4565 598.849 73.5016 600.706Z" fill="#18B6A5"/>
<path d="M71.2539 659.933C66.9536 645.272 70.6675 627.386 82.7867 617.124C87.478 612.726 94.2215 619.861 89.4326 624.259C78.4863 632.078 74.7723 645.565 77.1178 658.662C77.802 662.376 72.1332 663.549 71.2539 659.835V659.933Z" fill="#18B6A5"/>
<path d="M586.42 641.755C595.607 629.734 592.577 614.586 588.277 601.39C585.735 595.038 576.156 599.436 579.382 605.496C584.073 614.78 588.569 629.343 582.607 638.726C580.849 641.17 584.464 644.003 586.42 641.755Z" fill="#18B6A5"/>
<path d="M604.5 589.074C617.303 610.185 613.589 641.656 595.215 658.466C594.043 659.443 592.186 659.247 591.208 658.075C591.011 657.837 590.861 657.576 590.758 657.303C590.624 656.948 590.568 656.573 590.586 656.201C590.623 655.438 590.97 654.69 591.599 654.167C605.869 640.092 607.922 611.748 596.975 595.33C592.479 590.247 600.493 583.698 604.598 589.171L604.5 589.074Z" fill="#18B6A5"/>
<path d="M546.445 756.498C545.174 756.498 543.806 756.008 542.927 754.933C541.905 753.856 541.116 752.713 540.556 751.504C540.15 750.629 539.865 749.72 539.7 748.776L539.506 747.505C539.017 744.866 540.679 741.935 543.317 741.445C545.956 740.957 548.399 742.325 548.986 744.964L549.377 747.016C549.377 747.016 549.768 747.799 550.159 748.287C552.016 750.242 551.918 753.369 549.964 755.227C549.484 755.659 548.956 755.996 548.405 756.229C547.833 756.468 547.237 756.595 546.64 756.595L546.445 756.498Z" fill="#18B6A5"/>
<path d="M488.684 835.467C489.564 837.129 491.225 838.008 492.984 838.008V837.91C493.766 837.91 494.548 837.714 495.33 837.324L501.194 834.098C503.539 832.828 504.322 829.798 503.051 827.452C501.781 825.108 498.75 824.325 496.405 825.595L490.541 828.821C488.195 830.092 487.413 833.121 488.684 835.467Z" fill="#18B6A5"/>
<path d="M466.595 813.477H465.716C463.077 812.988 461.317 810.447 461.806 807.808C462.197 805.951 463.37 803.41 467.28 801.944C469.137 801.261 470.896 800.771 472.557 800.575C475.294 800.184 477.64 802.237 477.933 804.876C478.226 807.515 476.272 809.959 473.632 810.252C472.851 810.252 471.873 810.545 470.896 810.936C470.016 812.499 468.355 813.575 466.595 813.575V813.477Z" fill="#18B6A5"/>
</svg>
