<svg width="341" height="358" viewBox="0 0 341 358" fill="none" xmlns="http://www.w3.org/2000/svg">
<path d="M323.49 244.15C331.67 252.36 333.87 262.15 331.91 272.63C328.98 288.27 316.75 292.97 302.84 295.24C303.09 295.9 303.24 296.37 303.44 296.8C307.48 305.55 305.56 311.04 296.1 313.01C286.04 315.1 275.64 315.51 265.38 316.63C263.66 316.82 261.93 316.83 260.08 316.93C259.64 320.07 259.49 323.05 258.76 325.88C257.2 331.92 253.56 336.32 247.58 338.48C239.07 341.55 230.99 336.69 229.61 327.58C229.18 324.77 229.3 321.88 229.19 319.36C188.95 318.78 148.64 318.19 108.14 317.61C103.35 330.6 97.47 335.83 87.95 335.17C77.33 334.44 72.06 328.55 68.47 313.48C64 312.89 59.52 312.54 55.15 311.65C50.78 310.76 46.52 309.33 42.46 308.92C39.71 309.51 36.99 310.51 34.22 310.63C20.87 311.18 12.28 323.41 17.18 335C18.79 338.8 21.87 340.68 25.36 342.18C34.42 346.08 44.06 347.35 53.76 348.2C85.67 350.98 117.57 348.64 149.48 347.89C172.03 347.36 194.59 347.61 217.15 347.41C222.5 347.36 227.86 346.54 233.19 346.71C249.64 347.24 266.07 348.28 282.52 348.73C292.62 349 302.85 348.76 312.41 345.1C317.05 343.32 321.61 340.58 325.33 337.28C330.7 332.52 330.72 324.9 325.39 319.69C322.11 316.48 317.74 314.28 313.64 312.05C311.08 310.66 308.47 309.58 309.16 306.14C309.84 302.72 312.63 302.41 315.57 302.42C330.58 302.48 341.83 316.03 340.05 331.99C338.39 346.81 329.53 355.05 314.67 356.52C288.5 359.12 262.32 357.08 236.15 357.18C173.54 357.4 110.93 357.67 48.31 357.81C43.11 357.82 37.81 357.43 32.71 356.43C18.74 353.69 9.46997 342.89 9.53997 330.08C9.61997 316.24 19.65 303.81 33.02 300.96C33.61 300.83 34.19 300.62 34.85 300.43V287.52C12.3 287.64 2.45996 281.91 0.599965 267.33C-1.47004 251.18 8.18997 239.24 26.86 234.05C26.58 229.38 26.11 224.92 26.18 220.46C26.2 219.19 27.8 217.94 28.68 216.69C29.71 217.7 31.03 218.54 31.67 219.75C32.33 220.99 32.43 222.58 32.57 224.04C33.08 229.46 35.78 233.25 40.1 235.35C46.11 229.1 51.84 223.14 57.42 217.33C43.21 215.37 28.43 213.32 13.64 211.28L13.74 209.68C16.6 209.44 19.47 208.95 22.33 208.99C59.37 209.55 96.4 210.13 133.44 210.81C176.96 211.61 220.47 212.69 263.99 213.29C276.3 213.46 288.62 212.36 300.94 211.89C308.35 211.61 315.47 212.73 321.29 217.71C323.97 220.01 326.49 222.32 329.59 224.18C331.17 225.13 331.95 228.81 331.7 231.11C331.1 236.68 327.84 240.99 323.51 244.14L323.49 244.15ZM284.32 296.38C287.27 296.25 287.53 297.91 286.35 299.92C285.26 301.78 283.73 303.37 282.02 305.55C284.65 305.31 286.72 305.16 288.78 304.93C296.21 304.1 296.79 303.33 295.64 295.56C291.89 295.83 288.1 296.11 284.31 296.39C283.52 295.96 282.75 295.18 281.94 295.15C277.84 294.98 273.72 294.75 269.63 295.02C263.19 295.44 259.73 300.18 260.64 306.82C263.99 307.36 266.3 306.8 268.65 303.52C272.25 298.47 277.67 295.65 284.32 296.37V296.38ZM320.44 246.54C311.54 246.79 302.75 247.02 293.95 247.3C287.13 247.51 280.59 248.79 274.73 252.56C267.56 257.17 259.7 258.98 251.23 258.46C240.19 257.79 230.09 253.78 220.25 249.26C213.39 246.11 206.37 245.01 199.16 246.2C187.63 248.1 176.12 250.29 164.73 252.89C147.05 256.93 129.96 256.7 114.36 246.34C106.01 240.8 97.08 239.56 87.58 240.82C80.3 241.79 73.1 243.31 65.85 244.53C57.29 245.98 48.33 247.39 40.55 243.07C34 239.43 28.72 241.32 23 243.71C14.28 247.35 9.78998 253.91 8.42998 263.33C7.47998 269.94 11.28 277.88 20.18 279.19C25.79 280.01 31.59 279.75 37.3 279.67C43.03 279.59 48.77 278.7 54.47 278.91C68.56 279.45 73.91 284.47 75.94 298.28C76.05 299.02 76.03 299.78 76.14 300.51C77.1 306.65 77.69 312.88 79.18 318.89C80.46 324.02 84.34 326.6 89.01 326.55C93.76 326.51 96.22 323.27 97.6 319.41C98.84 315.93 99.36 312.18 100.03 308.52C100.99 303.26 101.26 297.82 102.76 292.74C105.61 283.11 112.98 279.21 122.53 282.23C127.09 283.68 131.44 286.06 135.53 288.59C138.64 290.51 141.11 290.26 143.67 288.13C144.91 287.1 145.99 285.87 147.1 284.69C152.35 279.13 158.85 276.21 166.44 276.4C171.52 276.52 176.65 277.1 181.62 278.14C193.56 280.64 205.31 283.54 217.77 283.05C228.46 282.63 235.86 288.66 238.38 299.09C239.82 305.06 239.76 311.4 240.21 317.59C240.37 319.81 239.69 322.13 240.06 324.29C240.32 325.8 241.43 327.66 242.71 328.32C243.46 328.71 245.95 327.39 246.47 326.29C247.75 323.56 248.71 320.55 249.11 317.56C249.52 314.51 248.93 311.34 249.06 308.23C249.68 294.05 257.31 285.73 271.44 284.52C277.09 284.04 282.89 284.43 288.55 285.1C298.99 286.33 308.73 285.05 317.26 278.51C324.72 272.78 326.56 264.51 321.7 256.7C319.47 253.12 318.98 249.92 320.43 246.53L320.44 246.54ZM128.64 243C135.4 246.42 141.94 248.04 148.88 247.94C149.78 247.93 150.83 247.5 151.55 246.93C161.93 238.74 172.26 230.49 183.07 221.89C176.26 221.89 169.58 221.84 162.89 221.95C161.88 221.97 160.8 222.61 159.9 223.18C152.97 227.58 146.09 232.05 139.17 236.46C135.84 238.59 132.45 240.63 128.64 243ZM279.42 224.37L279.23 223.34C273.06 223.34 266.89 223.28 260.72 223.41C259.88 223.43 259.06 224.39 258.25 224.93C249.81 230.63 241.37 236.33 232.93 242.03C232.26 242.48 231.61 242.96 229.87 244.2C236.44 246.09 241.98 247.74 247.58 249.21C248.28 249.39 249.57 248.83 250.04 248.2C255.85 240.48 263.72 235.2 271.52 229.83C274.16 228.02 276.79 226.18 279.42 224.36V224.37ZM108.46 220.06C95.21 219.33 82.53 218.6 69.85 218.01C68.98 217.97 67.92 218.83 67.19 219.53C62.35 224.16 57.6 228.89 52.75 233.51C51.23 234.96 49.49 236.17 47.17 238.03C51.63 238.03 55 238.22 58.32 237.94C59.76 237.82 61.67 237.12 62.44 236.04C67.55 228.89 74.73 224.94 82.8 222.28C84.2 221.82 85.77 221.89 87.26 221.72L88.12 223.09C84.86 226.3 81.6 229.51 78.31 232.74C83.31 232.29 88.13 231.89 92.95 231.39C93.75 231.31 94.63 230.94 95.27 230.44C99.48 227.19 103.64 223.86 108.45 220.05L108.46 220.06ZM146.5 221.88L146.68 220.73C138.98 220.73 131.27 220.73 123.57 220.74C123.09 220.74 122.51 220.79 122.13 221.05C116.53 224.82 110.95 228.63 105.22 232.53C110.99 235.06 116.31 237.45 121.68 239.68C122.38 239.97 123.64 239.8 124.24 239.33C131.7 233.57 139.09 227.71 146.49 221.87L146.5 221.88ZM207.7 222.81H187.26C188.66 226.88 186.83 230.01 183.78 232.52C181 234.8 177.98 236.79 175.07 238.91C173.28 240.21 171.49 241.52 169.7 242.82C177.38 241.04 184.75 238.93 192.11 236.78C192.79 236.58 193.49 236.19 194 235.71C198.36 231.66 202.67 227.56 207.7 222.82V222.81ZM241.4 223.05C237.17 223.05 233.17 223.01 229.18 223.07C227.85 223.09 226.24 222.97 225.24 223.63C219.49 227.47 213.88 231.53 208.17 235.56C213.08 236.94 217.89 238.29 221.48 239.3C228.33 233.71 234.6 228.6 241.4 223.05ZM188.79 292.11L188.58 290.79C185.63 290.79 181.99 289.67 179.85 290.99C171.4 296.18 163.42 302.13 155.28 307.81C154.46 308.38 153.72 309.08 152.95 309.73L153.19 310.67C157.26 310.67 161.33 310.74 165.4 310.61C166.2 310.58 167.1 309.94 167.74 309.34C171.41 305.9 174.84 302.18 178.7 298.97C181.81 296.38 185.41 294.37 188.79 292.11ZM131.07 298.15C127.27 295.46 124.46 293.17 121.36 291.34C117.29 288.94 113.48 290.14 112.06 294.61C110.66 299.01 110.17 303.69 109.1 309.22C118.31 307.84 122.78 300.26 131.07 298.15ZM181.57 310.11C187.53 310.11 192.58 310.15 197.62 310.06C198.2 310.06 199.14 309.49 199.3 308.99C200.99 303.57 205.69 301.3 209.99 298.61C212.34 297.15 214.72 295.75 217.09 294.32C210.42 293.4 203.83 291.54 199.28 298.55C197.95 300.59 195.25 301.81 193.06 303.21C189.52 305.46 185.87 307.55 181.59 310.12L181.57 310.11ZM308.02 223.03L308 222.25C304.17 222.86 299.72 222.42 296.64 224.27C288.16 229.37 280.25 235.42 272.11 241.09C270.62 242.13 269.1 243.13 267.59 244.16C268.31 244.35 268.79 244.21 269.22 243.99C276.42 240.31 283.58 236.52 292.03 236.69C292.75 236.7 293.59 236.04 294.2 235.49C298.83 231.36 303.42 227.19 308.02 223.03ZM129.39 308.49L129.6 309.46C130.81 309.58 132.02 309.66 133.23 309.83C137.63 310.46 141.37 310.32 143.07 304.95C143.72 302.9 145.81 301.05 147.67 299.68C152.37 296.22 157.31 293.09 162.16 289.83C163.42 288.98 164.68 288.14 166.56 286.87C161.44 285.99 158.44 288.16 155.58 290.62C152.66 293.12 150.02 296.03 146.84 298.12C141.19 301.83 135.23 305.06 129.4 308.49H129.39ZM43.06 299.92C48.47 295.71 53.6 291.72 59.08 287.45C55.3 287.23 51.75 286.9 48.2 286.86C41.89 286.78 40.42 288.54 41.5 294.88C41.8 296.65 42.55 298.33 43.06 299.92ZM226.78 297.26C221.35 301.52 216.32 305.46 210.95 309.67C213.69 309.53 216.12 309.41 218.77 309.27C218.83 302.96 224.53 302.58 228.52 300.01C227.88 299 227.32 298.11 226.78 297.26ZM308.77 237.09C316.21 237.79 321.21 233.93 321.42 227.37C317.19 230.62 313.06 233.8 308.77 237.09ZM64.98 292.11C60.37 296.34 56.04 300.31 51.72 304.28L52.32 305.09C58.28 303.63 60.69 296.9 66.63 295.22L64.97 292.11H64.98Z" fill="#074551"/>
<path d="M317.92 205.29C315.05 203.3 311.12 201.87 311.07 200.3C310.9 195.46 315.72 195.48 319.36 194.33C319.56 176.53 315.09 160.08 305.36 145.15C291.94 124.56 272.72 111.09 250.58 101.55C216.07 86.69 179.88 82.27 142.64 85.23C118.34 87.16 94.9 92.6 72.91 103.36C52.08 113.56 34.57 127.51 23.45 148.41C15.44 163.45 12.52 179.55 13.67 196.47C13.77 197.96 14.01 199.46 13.94 200.95C13.81 203.64 12.12 205.07 9.56999 205.09C7.02999 205.11 5.87997 203.5 5.73997 200.98C3.55997 159.52 18.63 126.78 54.52 104.62C76.34 91.16 100.45 84.36 125.61 81.03C137.33 79.48 149.16 78.8 161.43 77.68C161.62 74.78 161.98 71.58 162 68.38C162.12 52.55 161.98 36.71 162.32 20.88C162.43 15.95 163.42 10.97 164.62 6.16996C165.93 0.969958 167.54 0.749999 172.94 1.15C177.99 1.53 183.13 0.570004 188.23 0.530004C196.31 0.470004 204.47 0.0299554 212.45 0.979955C222.48 2.17996 226.45 8.56995 225.01 18.4699C224.28 23.4999 223.53 28.62 223.7 33.67C224.12 46.32 219.45 50.42 206.04 52.44C195.74 53.99 185.74 51.17 175.82 48.63C174.62 48.32 173.43 48 171.5 47.48C170.92 57.61 170.35 67.46 169.76 77.76C171.28 77.64 172.58 77.49 173.89 77.44C219.01 75.59 259.77 87.41 294.47 117C313.7 133.4 326.38 154.05 329.32 179.51C330.44 189.18 329.33 199.12 328.97 208.92C328.87 211.69 327.23 213.95 324.01 214C321.33 214.05 318.39 211.21 317.96 208.23C317.77 206.9 317.93 205.52 317.93 205.28L317.92 205.29ZM173.47 7.62998C172.95 19.36 172.47 30.39 172.01 40.86L214.97 43.18C215.88 36.85 216.76 30.44 217.72 24.05C219.76 10.51 217.11 7.51997 203.35 7.61997C193.52 7.68997 183.69 7.62998 173.47 7.62998Z" fill="#074551"/>
<path d="M238.2 110.21C238.7 110.24 239.2 110.24 239.69 110.3C251.84 111.63 270 126.85 273.03 138.64C273.68 141.15 273.91 145.41 272.52 146.46C269.84 148.49 267.46 145.18 265.46 143.32C263.37 141.38 261.6 139.1 259.73 136.94C253.61 129.87 246.5 124.19 237.56 121.05C236.75 120.76 235.95 120.34 235.26 119.84C233.07 118.25 230.7 116.19 232.17 113.43C233.12 111.63 235.76 110.72 237.64 109.41L238.21 110.21H238.2Z" fill="#074551"/>
<path d="M112.99 201.56C99.83 199.82 85.16 197.87 70.49 195.94C65.31 195.26 60.11 194.68 54.95 193.87C53.98 193.72 53.14 192.69 52.24 192.07C53.15 191.66 54.06 190.89 54.96 190.9C79.49 191.38 104.03 191.91 128.56 192.52C130.51 192.57 132.57 192.98 134.32 193.78C135.3 194.22 136.37 195.87 136.28 196.86C136.2 197.73 134.61 198.99 133.56 199.14C127.29 200.03 120.98 200.65 113 201.55L112.99 201.56Z" fill="#074551"/>
<path d="M220.65 201.93C218.8 202.4 216.97 203.07 215.09 203.31C205.32 204.59 195.52 204.89 185.81 202.87C184.31 202.56 183.09 200.86 181.74 199.8C182.98 198.78 184.11 197.07 185.47 196.86C196.93 195.07 208.21 195.95 219.2 199.8C219.73 199.99 220.16 200.48 220.63 200.83V201.92L220.65 201.93Z" fill="#074551"/>
<path d="M289.37 160.13C289.28 164.34 285.55 167.88 281.31 167.76C277.18 167.64 273.68 164.08 273.74 160.07C273.81 155.8 277.44 152.38 281.78 152.48C285.96 152.59 289.45 156.1 289.36 160.13H289.37Z" fill="#074551"/>
<path d="M284.97 195.98C288.34 196.37 291.59 196.54 294.73 197.24C295.87 197.49 297.57 199.05 297.51 199.93C297.43 201.19 296.24 202.83 295.07 203.46C293.62 204.24 291.7 204.43 289.99 204.39C285.26 204.28 280.49 204.19 275.83 203.5C274.26 203.27 272.96 201.24 271.53 200.04C272.83 199.07 274.01 197.57 275.45 197.23C278.58 196.5 281.84 196.36 284.96 195.99L284.97 195.98Z" fill="#074551"/>
<path d="M154.85 193.32C156.89 194.02 159.64 194.5 161.83 195.86C164.23 197.35 163.95 199.53 161.39 200.71C156.67 202.89 151.74 203.05 146.97 200.91C145.97 200.46 144.82 198.84 144.92 197.87C145.04 196.68 146.17 195.01 147.25 194.62C149.41 193.84 151.83 193.78 154.85 193.32Z" fill="#074551"/>
<path d="M246.07 195.79C248.92 196.41 252.44 197.05 255.86 198C256.71 198.24 257.59 199.41 257.83 200.32C257.94 200.75 256.67 201.85 255.84 202.16C250.59 204.11 245.19 204.51 239.83 202.8C238.64 202.42 236.89 200.76 237.03 199.97C237.24 198.7 238.62 197.2 239.87 196.65C241.5 195.95 243.49 196.09 246.07 195.78V195.79Z" fill="#074551"/>
<path d="M40.4 191.88C38.55 192.86 37.57 193.65 36.46 193.92C30.5 195.37 24.57 195.03 18.87 192.85C17.66 192.38 16.92 190.69 15.96 189.56C17.29 189.02 18.67 187.93 19.94 188.05C25.86 188.61 31.76 189.49 37.65 190.33C38.29 190.42 38.86 190.99 40.4 191.88Z" fill="#074551"/>
</svg>
