<svg width="376" height="378" viewBox="0 0 376 378" fill="none" xmlns="http://www.w3.org/2000/svg">
<path d="M324.54 176.53C337.9 171.31 351.75 174.34 360.99 184.22C371.38 195.32 367.08 210.88 352.37 214.47C346.9 215.81 342.83 218.2 340.21 223.24C338.68 226.2 339.03 227.74 342.36 228.23C345.17 228.64 348.06 228.61 350.92 228.59C356.15 228.54 361.39 228.4 366.62 228.18C370.88 228 373.24 230.26 373.97 234.11C374.69 237.88 375.24 241.74 375.27 245.57C375.37 258.28 373.22 270.65 368.7 282.54C367.74 285.07 366.45 287.59 364.79 289.7C363.91 290.81 361.57 291.86 360.49 291.43C359.3 290.96 358.24 288.79 358.14 287.29C358.01 285.27 358.71 283.13 359.33 281.14C360.33 277.94 361.75 274.86 362.66 271.63C364.14 266.36 362.84 264.75 357.46 264.75C252.9 264.73 148.34 264.71 43.78 264.7C41.29 264.7 38.79 264.7 36.3 264.73C33.42 264.76 32.72 266.27 33.27 268.92C38.62 294.75 53.56 313.11 76.8 325.08C95.23 334.57 115.04 339.28 135.39 341.99C172.34 346.92 209.34 345.75 246.29 342.11C268.24 339.95 290.15 337.22 312.01 334.23C316.2 333.66 320.39 331.16 324.01 328.72C328.96 325.39 333.3 321.18 338.03 317.51C339.98 316 342.19 314.77 344.43 313.75C345.25 313.38 346.84 313.65 347.47 314.26C347.99 314.77 347.92 316.3 347.6 317.2C345.4 323.37 341.41 328.26 336.31 332.26C325.12 341.05 311.95 345.14 298.31 347.94C292.83 349.07 287.24 349.72 281.67 350.4C279.47 350.67 278.23 351.46 277.25 353.59C275.49 357.42 273.52 361.23 271.06 364.64C264.91 373.16 256.53 377.64 245.85 377.64C208.04 377.63 170.24 377.67 132.43 377.71C118.56 377.72 107.85 372.55 102.62 359C99.89 351.92 94.73 350.66 87.75 349.87C52.34 345.84 27.65 326.59 12.17 294.86C6.39 283 4.83 270.07 2.47 257.36C1.41 251.65 0.66 245.7 1.1 239.96C1.36 236.47 4.14 233.16 5.82 229.79C6.58 228.28 7.69 226.91 8.2 225.33C10.8 217.41 12.87 209.29 15.85 201.52C22.22 184.86 34.17 173.88 51.27 168.72C53.81 167.95 54.72 166.9 54.98 164.18C55.97 153.63 56.97 143.07 58.61 132.61C61.74 112.55 73.47 100.12 93.3 95.8C97.8 94.82 100.26 92.76 101.66 88.62C102.41 86.41 103.5 84.18 104.94 82.37C106.1 80.92 107.9 79.62 109.66 79.13C110.87 78.79 112.93 79.56 113.81 80.55C114.55 81.38 114.62 83.44 114.14 84.61C113.14 87 111.58 89.15 110.24 91.4C108.99 93.49 109.44 94.85 111.85 95.59C114.94 96.54 117.97 97.72 121.09 98.54C122 98.78 123.26 98.33 124.17 97.85C130.88 94.29 137.79 91.76 145.61 92.44C146.66 92.53 148.04 91.47 148.92 90.6C169.12 70.76 202.95 76.18 215.86 101.45C216.89 103.47 217.77 104.05 220.1 103.54C229.97 101.35 239.62 101.98 247.97 108.17C251.47 110.77 253.55 115.34 257.1 117.81C260.62 120.25 265.61 120.57 269.18 122.96C272.09 124.91 274.39 128.3 276.02 131.52C279.16 137.72 282.58 138.63 287.34 133.47C290.37 130.18 292.95 126.47 295.74 122.95C298.53 119.43 301.15 115.77 304.15 112.44C312.05 103.66 318.43 102.26 329.18 107.04C337.7 110.84 344.07 117 347.74 125.67C353.64 139.6 345.98 154.84 331.32 158.56C322.25 160.86 321.38 162.29 323.35 171.66C323.68 173.23 324.1 174.79 324.53 176.55L324.54 176.53ZM366.57 239.41C351.92 238.4 337.77 236.64 323.61 236.59C280.58 236.44 237.54 237.06 194.51 237.16C142.1 237.29 89.7 237.19 37.29 237.19C35.92 237.19 34.54 237.23 33.17 237.22C30.46 237.19 29.3 238.56 29.49 241.19C29.71 244.17 29.94 247.16 30.18 250.14C30.55 254.88 31.45 255.72 36.15 255.72C141.21 255.74 246.27 255.75 351.34 255.78C354.21 255.78 357.08 255.96 359.94 255.95C363.16 255.94 365.15 254.22 365.57 251.08C366.03 247.64 366.18 244.15 366.57 239.41ZM140.37 102.6C135.02 102.33 131.35 103.37 127.95 106.56C121.36 112.74 118.74 120.47 120.53 129.29C121.17 132.45 120.67 134.79 119.06 137.32C116.86 140.79 114.54 144.23 112.82 147.94C110.68 152.54 112.34 155.34 117.23 156.43C124.06 157.95 129.82 154.19 131.04 146.86C131.52 143.99 132.76 143.27 135.25 142.8C150.17 140.02 165.23 139.5 180.34 139.79C201.42 140.19 222.49 140.73 243.56 141.21C247.85 141.31 251.89 140.87 255.51 138.03C257.41 136.54 260.01 135.95 262.23 134.84C263.47 134.22 264.57 133.34 265.74 132.58C264.53 131.47 263.47 130.1 262.08 129.33C260.96 128.71 259.37 128.45 258.1 128.67C253.63 129.44 251.08 127.01 248.94 123.66C247.86 121.98 246.77 120.31 245.63 118.68C240.05 110.77 231.71 109.83 222.9 112.85C221.29 113.4 220.47 116.02 219.04 117.43C217.84 118.61 216.24 120.26 214.9 120.18C213.48 120.1 212.07 118.31 210.85 117.08C210.43 116.65 210.61 115.65 210.49 114.91C207 94.25 186.22 82.3 166.67 89.77C158.25 92.99 153.13 99.59 148.86 107.16C148.06 108.58 145.57 110.28 144.41 109.95C142.78 109.48 141.52 107.32 140.42 105.67C139.97 104.99 140.35 103.76 140.35 102.61L140.37 102.6ZM324.9 115.35C319.48 113.17 314.71 114.11 310.96 117.93C307.5 121.45 304.66 125.61 301.62 129.53C298.34 133.75 295.42 138.29 291.82 142.22C287.49 146.94 282.03 147.9 276.15 144.99C270.5 142.2 264.97 142.66 259.79 145.93C251.88 150.93 246.16 158.19 244.08 167.05C241.73 177.07 235.92 183.27 227.27 187.57C221.48 190.45 215.49 192.94 209.75 195.93C197.46 202.34 193.73 211.06 197.07 224.46C197.59 226.57 198.46 227.49 200.72 227.74C212.11 229.02 222.46 225.82 232.22 220.43C248.09 211.68 260.93 199.25 272.1 185.29C285.72 168.27 298.5 150.59 311.61 133.17C316.02 127.32 320.36 121.42 324.89 115.33L324.9 115.35ZM240.09 149.09C223.73 149.09 208.02 149.25 192.31 149.05C176.09 148.84 159.89 148.55 143.77 150.99C141.3 151.36 140.68 152.27 140.91 154.59C141.57 161.14 144.09 166.43 149.77 170.25C154.49 173.43 158.78 177.24 163.36 180.64C164.25 181.3 165.63 181.68 166.74 181.6C175.81 180.92 184.94 180.53 193.92 179.21C205.82 177.47 217.34 174.21 227.31 167.01C233.21 162.75 237.65 157.39 240.09 149.09ZM239.61 227.2C242.96 227.69 245.28 228.28 247.62 228.33C255.58 228.53 263.56 228.8 271.51 228.52C276.94 228.33 282.51 227.85 287.72 226.43C294.81 224.49 298.42 219.23 297.58 212.08C296.93 206.52 299.38 203.49 303.52 200.73C306.39 198.82 309.42 196.78 311.47 194.1C312.95 192.17 312.95 189.1 313.6 186.54C311.31 186.37 308.87 185.59 306.77 186.14C298.6 188.29 290.52 190.82 282.44 193.3C280.23 193.98 277.69 194.48 276.01 195.9C264.11 205.92 252.39 216.15 239.6 227.19L239.61 227.2ZM116.33 361.23L115.88 362.43C118.5 363.87 120.97 366.1 123.76 366.6C130.7 367.86 137.79 368.99 144.82 369.01C165.01 369.07 185.21 368.44 205.4 368.31C215.87 368.24 226.37 369.14 236.82 368.67C243.82 368.36 250.89 366.9 257.67 365.02C262.79 363.6 264.31 360.32 263.73 355.29C214.64 357.6 165.39 357.06 116.34 361.22L116.33 361.23ZM107.17 227.01C114.2 226.8 120.3 224.28 125.37 219.43C131.27 213.77 131.14 211.43 124.87 206.38C124.19 205.83 123.52 205.26 122.78 204.81C106.97 195.2 93.9 182.38 80.94 169.4C77.34 165.8 73.32 162.59 69.28 159.48C68.09 158.56 66.16 158.61 64.57 158.21C64.5 159.76 64.06 161.39 64.41 162.83C66.4 171.04 71.38 177.43 77.71 182.68C83.27 187.29 89.23 191.41 95.02 195.73C98.04 197.98 98.58 200.1 96.77 203.42C95.94 204.95 94.96 206.4 93.96 207.83C91.67 211.11 91.67 214.55 93 218.16C95.14 223.97 100.21 227.14 107.17 227.01ZM67.26 139.5C76.9 137.91 86.14 136.61 95.27 134.82C103.9 133.13 109.22 127.49 111.76 119.22C112.71 116.14 113.13 112.89 114.04 109.8C115 106.55 113.49 105.47 110.63 104.7C95.4 100.6 76.66 109.53 69.65 124.38C67.49 128.96 66.38 133.73 67.25 139.51L67.26 139.5ZM27.5 225.02C28.13 224.93 29.23 224.69 30.35 224.63C34.51 224.37 37.03 222.78 37.77 218.13C38.79 211.71 41.99 206.22 47.03 201.91C50.47 198.97 54.23 196.25 54.18 190.91C54.17 189.68 55.17 188.39 55.88 187.23C57.18 185.1 58.71 183.12 59.92 180.95C60.47 179.97 60.48 178.68 60.74 177.53C59.57 177.3 58.4 176.85 57.23 176.87C51.78 176.97 47.12 179.22 42.85 182.44C35.39 188.07 29.23 194.93 24.58 202.99C22.31 206.93 20.43 211.25 19.26 215.64C17.69 221.47 20.96 225.05 27.49 225.03L27.5 225.02ZM289.04 180.61C290.87 180.61 292.34 180.91 293.63 180.56C299.15 179.04 304.55 177.03 310.12 175.81C313.86 174.99 314.48 172.92 314.23 169.76C313.93 165.91 313.42 162.04 313.58 158.2C313.82 152.45 316.67 150.26 322.32 150.85C333.08 151.97 342.86 141.15 340.28 130.96C338.28 123.05 334.54 121.64 328.69 127.24C324.04 131.69 319.81 136.7 315.98 141.89C307.18 153.82 298.73 166 290.16 178.1C289.76 178.67 289.57 179.39 289.03 180.62L289.04 180.61ZM138.31 227.62C139.22 227.62 139.84 227.65 140.46 227.62C146.8 227.27 147.35 226.6 149.07 220.66C149.95 217.61 151.28 214.51 153.11 211.94C160.32 201.8 173.55 198.53 184.71 204.06C187.67 205.53 189.22 205.04 190.44 202C192.74 196.22 190.58 192.22 184.14 190.72C170.07 187.44 148.38 196.4 140.79 208.69C137.21 214.48 136.2 220.68 138.33 227.61L138.31 227.62ZM111.87 168.42C111 183.25 117.74 194.2 130.62 199.73C133.31 200.89 135.58 201.22 137.65 198.14C139.13 195.94 141.59 194.37 143.71 192.65C146.03 190.76 148.55 189.12 150.83 187.2C154.26 184.31 154.24 182.77 149.98 181.27C145.74 179.77 141.13 179.15 136.63 178.56C133.45 178.14 130.14 178.71 126.95 178.32C120.65 177.56 116.3 173.41 111.87 168.43V168.42ZM303.6 226.81C311.64 230.28 323.72 228.29 329.85 222.49C334.87 217.74 334.19 214.5 327.6 212.62C323.66 211.49 319.59 210.85 315.65 209.72C310.48 208.23 307.69 209.61 306.3 214.92C305.3 218.75 304.54 222.64 303.6 226.82V226.81ZM73.27 148.19C80.74 159.75 91.24 167.55 101.78 175.71C103.43 167.13 98.63 155.88 91.17 150.47C85.81 146.59 80.02 145.4 73.27 148.19ZM351.16 187.87C350.05 186.63 349.69 186.12 349.22 185.74C343.2 180.87 327.17 183.22 322.86 189.63C321.4 191.8 321.38 193.97 323.34 196.14C332.46 193.43 341.47 190.75 351.15 187.87H351.16ZM180.66 212.81C180.02 212.25 179.68 211.87 179.27 211.61C173.38 208.01 159.82 213.91 158.19 220.79C157.6 223.29 159.18 223.68 160.99 223.24C163.28 222.68 165.5 221.84 167.72 221.02C172.51 219.25 177.26 217.37 180.66 212.81ZM332.42 203.8C338.8 208.57 350.27 208 355.14 203.28C357.16 201.33 357.69 199.18 355.9 196.54C348.17 198.83 340 199.34 332.42 203.8ZM55.9 207.08C51.02 209.06 48.78 212.95 47.34 217.46C46.41 220.37 47.33 221.5 50.37 220.96C54.74 220.19 58.42 218.04 61.86 214.83C59.86 212.23 58.05 209.87 55.9 207.08ZM71.21 198.93L71.7 198.77C70.83 195.95 70.22 193.01 69.01 190.35C67.89 187.87 66.04 187.97 64.45 190.18C61.8 193.86 62.23 197.84 64.06 201.52C65.01 203.42 67.1 204.76 68.67 206.35C69.46 204.5 70.29 202.66 71.01 200.78C71.23 200.22 71.15 199.55 71.2 198.93H71.21Z" fill="#074551"/>
<path d="M349.29 19.7301C349.21 26.0801 346.96 31.6501 343.12 36.6101C340.57 39.9201 337.98 40.6501 334.34 38.4801C331.27 36.6501 328.44 34.3401 325.7 32.0101C319.95 27.1201 315.02 21.2601 307.37 18.8601C304.13 17.8401 303.5 13.9501 305.37 10.9801C311.63 1.06008 331.78 -3.27993 341.49 3.28007C347.28 7.20007 349.38 12.9801 349.29 19.7401V19.7301ZM328.1 9.34007C327.13 9.46007 325.31 9.42006 323.7 9.96006C322.06 10.5201 320.61 11.6501 319.08 12.5301C320.05 14.0301 320.74 15.8701 322.05 16.9601C325.68 19.9801 329.63 22.6201 333.33 25.5501C336.31 27.9101 337.82 27.6701 339.53 24.2201C343.44 16.3001 338.31 9.13007 328.1 9.34007Z" fill="#074551"/>
<path d="M25.75 19.75C26.73 15.14 27.38 10.42 28.79 5.94003C30.21 1.43003 33.23 0.0100287 37.61 1.84003C42.53 3.90003 47.09 6.80003 51.92 9.09003C55.47 10.78 59.19 12.12 62.87 13.54C64.84 14.3 67 14.63 68.86 15.58C71.63 17 72.69 19.21 71.34 22.41C66.24 34.43 47.62 41.87 35.65 36.59C29.12 33.71 25.88 27.95 25.76 19.75H25.75ZM37.28 12.28C32.51 20.21 35.2 27.41 43.06 28.91C47.36 29.73 51.48 29.04 55.21 26.59C58.84 24.21 58.99 22.85 55.21 20.87C49.4 17.81 43.37 15.17 37.27 12.27L37.28 12.28Z" fill="#074551"/>
<path d="M308.69 82.0601C308.65 98.6901 292.31 108.5 278.99 101.6C274.44 99.25 273.31 96.4701 275.09 91.5101C277.28 85.4501 279.37 79.3301 281.96 73.4401C283.13 70.7901 285.14 68.35 287.24 66.3101C292.19 61.5001 297.97 61.8201 302.59 66.9801C306.85 71.7301 308.58 77.4801 308.68 82.0701L308.69 82.0601ZM300.21 83.22C299.46 81.43 298.45 78.1 296.73 75.18C295.32 72.79 293.34 73.27 292.08 75.83C290.49 79.05 288.76 82.21 287.26 85.47C286.44 87.25 285.61 89.1701 285.49 91.0601C285.43 92.0901 286.65 93.9201 287.63 94.1901C292.87 95.6601 300.06 90.1401 300.22 83.2101L300.21 83.22Z" fill="#074551"/>
<path d="M135.3 56.8C126.25 56.85 122.84 53.47 124.23 46.98C125.35 41.72 127.09 36.34 129.78 31.73C133.22 25.83 139.23 23.91 146 25.04C153.37 26.28 159.3 29.96 163.53 36.1C168.41 43.2 166.48 49.89 158.25 52.17C150.01 54.46 141.45 55.59 135.31 56.79L135.3 56.8ZM155.57 42.35C153.1 35.4 147.59 32.59 141.32 34.71C135.48 36.68 132.96 41.23 134.76 47.03C141.67 45.76 149.04 46.53 155.57 42.34V42.35Z" fill="#074551"/>
<path d="M230.32 32.8201C239.32 32.7501 245.38 39.1301 245.36 48.6801C245.35 57.8201 239.42 64.1001 230.72 64.1801C221.35 64.2701 214.87 58.1701 214.71 49.1301C214.55 39.6301 221 32.8801 230.31 32.8101L230.32 32.8201ZM236.27 48.6801C236.34 44.8101 233.93 41.9901 230.42 41.8401C226.74 41.6801 223.86 44.51 223.78 48.36C223.7 52.15 226.13 54.7301 229.91 54.8701C233.69 55.0101 236.2 52.5701 236.27 48.6801Z" fill="#074551"/>
<path d="M15.09 125.49C15.05 116.34 21.35 109.96 30.5 109.87C39.55 109.78 45.76 115.92 45.84 125.03C45.92 134.45 39.68 141.21 30.95 141.16C21.57 141.1 15.12 134.74 15.08 125.5L15.09 125.49ZM30.31 119.03C26.71 119.12 24.11 121.89 24.15 125.6C24.19 129.41 27.08 132.21 30.83 132.07C34.27 131.94 36.89 128.95 36.81 125.26C36.72 121.57 33.98 118.93 30.32 119.03H30.31Z" fill="#074551"/>
<path d="M363.31 335.02C360.88 334.46 358.61 334.22 356.58 333.4C353.71 332.24 353.38 329.66 355.54 327.44C358.43 324.47 365 323.97 368.39 326.45C370.98 328.35 370.75 331.57 367.68 333.48C366.37 334.29 364.72 334.54 363.31 335.02Z" fill="#074551"/>
<path d="M361.51 350.68C361.5 353.33 359.49 355.05 356.81 354.71C352.96 354.22 348.14 348.86 348.09 345.02C348.06 342.57 349.39 341.28 351.7 341.11C355.2 340.85 361.53 347.1 361.51 350.67V350.68Z" fill="#074551"/>
<path d="M341.41 355.02C340.72 357.57 340.39 359.81 339.51 361.81C338.4 364.34 336.16 364.59 334.1 362.74C330.89 359.87 330.26 353.15 332.87 349.7C334.77 347.19 337.49 347.11 339.3 349.83C340.35 351.4 340.77 353.38 341.41 355.03V355.02Z" fill="#074551"/>
<path d="M354.88 307.66C352.01 307.46 350.58 306.01 350.56 303.34C350.54 300.61 352.12 299.14 354.74 299.11C357.46 299.08 358.81 300.76 358.87 303.39C358.93 306.16 357.28 307.38 354.88 307.66Z" fill="#074551"/>
</svg>
