<svg width="365" height="286" viewBox="0 0 365 286" fill="none" xmlns="http://www.w3.org/2000/svg">
<g clip-path="url(#clip0_432_44)">
<path d="M105.833 196.54C106.233 189.13 105.993 181.96 107.113 175.02C111.983 144.91 127.363 122.1 156.293 110.93C184.233 100.13 211.163 103.84 234.073 123.68C257.623 144.07 264.663 170.4 257.013 200.54C256.273 203.46 256.503 205.44 258.643 207.43C260.003 208.7 261.133 210.22 262.313 211.67C269.383 220.27 278.473 222.85 288.813 219.51C296.003 217.19 302.873 213.82 309.773 210.69C325.513 203.55 341.833 200.8 358.973 203.72C359.953 203.89 361.263 203.86 361.803 204.47C362.923 205.74 364.483 207.53 364.253 208.82C364.023 210.1 361.923 211.7 360.443 211.94C358.323 212.28 356.033 211.48 353.803 211.23C338.183 209.42 323.743 213.21 309.653 219.76C302.033 223.3 294.093 226.61 285.943 228.43C275.133 230.84 265.513 227.17 257.873 218.97C255.323 216.24 252.993 213.3 250.513 210.49C242.223 201.09 231.913 198.49 220.423 202.86C213.863 205.35 207.813 209.28 201.673 212.79C193.463 217.48 185.613 222.85 177.193 227.09C166.083 232.68 154.663 231.87 143.793 226.03C137.663 222.73 131.883 218.78 125.903 215.19C121.743 212.69 117.593 210.14 113.283 207.92C102.213 202.23 91.1333 202.6 80.4433 208.86C74.1033 212.57 68.1833 216.98 61.9133 220.81C51.0033 227.47 39.3233 231.24 26.3333 229.29C17.6133 227.98 10.4733 223.65 4.26334 217.58C2.21334 215.57 1.31334 213.38 3.50334 211.07C5.70334 208.76 8.02334 209.52 10.0433 211.53C18.2133 219.68 27.9833 223.49 39.3233 220.74C45.6433 219.21 51.6333 216.23 57.6533 213.62C60.0133 212.6 62.1033 210.88 64.2233 209.35C76.7033 200.34 89.7033 193.02 105.843 196.57L105.833 196.54ZM248.863 197.98C251.893 190.11 252.623 176.47 250.323 166.62C244.463 141.5 229.473 124.23 204.693 116.91C179.503 109.46 156.373 114.54 137.183 132.86C119.123 150.1 112.823 171.98 114.693 196.52C114.863 198.72 115.743 199.95 117.803 201C122.443 203.38 126.863 206.2 131.363 208.87C136.923 212.18 142.353 215.73 148.043 218.8C156.463 223.36 165.223 223.71 173.893 219.53C178.593 217.27 183.143 214.68 187.613 211.99C195.083 207.5 202.243 202.46 209.863 198.28C222.563 191.31 235.613 190.13 248.863 197.98Z" fill="#074551"/>
<path d="M28.7233 284.51C17.8733 284.24 9.27334 279.4 1.94334 271.94C0.223335 270.19 -0.126665 267.72 1.82334 266.36C3.17334 265.41 5.59334 265.68 7.46334 265.91C8.38334 266.02 9.15333 267.29 9.99333 268.04C18.5033 275.7 28.3033 278.23 39.0933 274.26C46.0733 271.69 52.6833 268.11 59.4033 264.88C65.4633 261.97 71.3533 258.7 77.5033 256C89.9733 250.52 102.533 250.79 114.763 256.71C121.143 259.8 127.193 263.55 133.413 266.97C137.563 269.24 141.643 271.67 145.943 273.63C155.593 278.02 165.113 277.4 174.213 272C178.173 269.65 182.103 267.17 185.703 264.32C204.743 249.25 225.093 249.58 246.203 259.02C249.833 260.64 253.173 262.88 256.713 264.71C260.913 266.89 265.063 269.21 269.423 270.99C280.203 275.4 290.773 274.88 301.113 269.25C311.193 263.76 321.483 258.73 332.893 256.5C341.473 254.82 350.003 255.1 358.503 257.01C361.143 257.6 362.813 259.08 362.393 262C361.993 264.74 360.043 266.03 357.553 265.41C338.823 260.75 322.363 267.12 306.523 275.98C291.423 284.43 276.353 284.24 261.113 276.73C257.213 274.8 253.433 272.6 249.683 270.39C242.643 266.23 235.173 263.26 227.103 261.82C215.433 259.73 204.543 261.3 194.693 268.35C189.723 271.9 184.733 275.44 179.563 278.67C167.033 286.49 153.993 287.15 140.763 280.61C135.303 277.91 130.093 274.68 124.783 271.68C121.533 269.84 118.303 267.95 115.043 266.13C102.423 259.07 89.6533 258.85 76.7933 265.4C69.0233 269.35 61.3433 273.5 53.5733 277.45C45.7333 281.44 37.5733 284.4 28.7333 284.55L28.7233 284.51Z" fill="#074551"/>
<path d="M178.443 45.5001C178.443 32.5401 178.433 19.5701 178.463 6.61005C178.463 5.25005 178.283 3.63005 178.933 2.60005C179.683 1.40005 181.223 0.0700534 182.473 5.34074e-05C183.733 -0.0599466 185.433 1.09005 186.273 2.21005C186.983 3.16005 186.883 4.82005 186.873 6.17005C186.623 31.9701 186.343 57.7701 186.043 83.5701C185.983 88.5601 184.733 90.5901 181.823 90.6101C178.793 90.6301 177.583 88.4501 177.593 83.2601C177.613 70.6701 177.593 58.0801 177.593 45.4901H178.433L178.443 45.5001Z" fill="#074551"/>
<path d="M227.363 97.5801C223.213 97.7201 221.173 95.1401 222.023 92.3601C222.343 91.3001 222.933 90.3201 223.463 89.3301C234.613 68.3101 245.773 47.3001 256.933 26.2801C257.403 25.4001 257.703 24.1001 258.433 23.7601C260.063 23.0101 262.343 21.9101 263.553 22.5201C264.793 23.1501 265.283 25.6201 265.663 27.3801C265.833 28.1501 264.933 29.1701 264.463 30.0401C253.243 51.1601 242.053 72.3001 230.753 93.3801C229.793 95.1801 228.153 96.6201 227.373 97.5601L227.363 97.5801Z" fill="#074551"/>
<path d="M111.003 122.85C111.023 127.06 107.553 129.04 104.653 127.14C102.053 125.44 99.7633 123.28 97.2333 121.47C81.8333 110.46 66.3833 99.53 51.0233 88.47C48.2033 86.44 45.6533 84.03 43.0633 81.69C41.0133 79.84 40.5133 77.62 42.5233 75.47C44.3733 73.49 46.4633 73.84 48.5433 75.37C65.9933 88.19 83.4733 100.98 100.923 113.8C103.633 115.79 106.333 117.8 108.893 119.98C109.943 120.88 110.583 122.26 111.003 122.84V122.85Z" fill="#074551"/>
<path d="M141.963 97.64C141.223 96.9 139.563 95.79 138.663 94.23C130.783 80.65 123.053 66.99 115.243 53.37C111.713 47.21 108.143 41.07 104.493 34.98C102.913 32.34 101.563 29.78 104.773 27.49C107.083 25.84 109.463 26.91 111.563 30.56C122.513 49.56 133.423 68.58 144.343 87.59C145.213 89.1 146.233 90.55 146.863 92.16C147.923 94.88 145.993 97.58 141.963 97.64Z" fill="#074551"/>
<path d="M269.373 171.81C268.393 170.73 266.633 169.58 266.083 168C265.283 165.7 266.763 164 269.063 163.2C274.353 161.36 279.633 159.52 284.923 157.7C300.683 152.28 316.433 146.84 332.203 141.47C333.583 141 335.213 140.48 336.513 140.82C337.733 141.14 339.313 142.45 339.533 143.56C339.793 144.87 339.023 146.61 338.203 147.83C337.683 148.61 336.283 148.87 335.233 149.23C314.433 156.41 293.613 163.57 272.803 170.73C271.983 171.01 271.143 171.25 269.363 171.8L269.373 171.81Z" fill="#074551"/>
<path d="M251.433 123.74C252.603 122.16 253.273 120.81 254.323 119.89C269.303 106.7 284.333 93.58 299.343 80.42C301.493 78.53 303.793 77.79 305.893 80.16C307.953 82.49 307.143 84.78 304.973 86.67C289.863 99.9 274.783 113.16 259.563 126.26C258.403 127.26 256.123 127.65 254.583 127.31C253.423 127.05 252.623 125.17 251.433 123.73V123.74Z" fill="#074551"/>
<path d="M59.6533 156.77C67.9933 156.77 76.3333 156.77 84.6633 156.77C87.0233 156.77 89.1833 157.18 90.0033 159.85C90.9533 162.92 88.8533 165.19 84.7933 165.17C73.3433 165.11 61.8933 164.92 50.4533 164.8C45.6033 164.75 40.7433 164.74 35.8933 164.68C31.4633 164.63 29.1333 163.15 29.4133 160.32C29.7933 156.44 32.6833 156.28 35.7633 156.31C43.7233 156.39 51.6933 156.34 59.6533 156.34V156.76V156.77Z" fill="#074551"/>
<path d="M70.8833 239.12C72.4233 234.9 76.5533 232.54 80.9333 233.23C82.9633 233.55 85.0633 234.29 86.8033 235.38C88.7833 236.62 90.1433 236.6 92.1133 235.27C96.2633 232.47 100.393 232.67 102.963 234.8C99.4233 236.49 95.6533 238.48 91.7133 240.07C90.3733 240.61 88.1733 240.76 87.1233 240.02C82.0033 236.4 76.8133 235.48 70.8933 239.13L70.8833 239.12Z" fill="#074551"/>
<path d="M272.653 246.26C274.243 243.83 277.263 243.85 279.373 245.43C284.833 249.53 290.203 248.53 295.963 246.55C298.983 245.51 302.243 245.23 304.693 247.79C300.423 249.11 296.213 250.33 292.063 251.72C287.713 253.18 283.873 252.69 280.093 249.89C277.953 248.31 275.253 247.49 272.653 246.26Z" fill="#074551"/>
<path d="M218.713 156.01C206.853 142.83 192.883 137.19 175.313 139.23C187.793 130.16 214.683 140.18 218.713 156.01Z" fill="#074551"/>
</g>
<defs>
<clipPath id="clip0_432_44">
<rect width="363.78" height="285.04" fill="white" transform="translate(0.493336)"/>
</clipPath>
</defs>
</svg>
