<svg width="8168" height="3166" viewBox="0 0 8168 3166" fill="none" xmlns="http://www.w3.org/2000/svg">
<g clip-path="url(#clip0_433_58)">
<mask id="mask0_433_58" style="mask-type:luminance" maskUnits="userSpaceOnUse" x="0" y="-1" width="8169" height="3167">
<path d="M0 3166L8168 3166L8168 0L0.000276781 -0.000714069L0 3166Z" fill="white"/>
</mask>
<g mask="url(#mask0_433_58)">
<path fill-rule="evenodd" clip-rule="evenodd" d="M7167.91 2299.09C7163.44 2263.52 7144.16 2232.64 7112.9 2212.09C7089.83 2196.9 7063.06 2189.12 7037.1 2189.12L7036.92 2189.12C7017.74 2189.12 6998.93 2193.37 6982.37 2202.05C6955.6 2216.16 6937.33 2240.13 6929.37 2271.43C6875.19 2214.72 6808.07 2195.36 6741.4 2218.52C6676.37 2241.04 6623.68 2299.94 6599.9 2369.78C6594.29 2369.3 6588.84 2369.03 6583.47 2369.03L6583.56 2368.85C6528.48 2368.85 6487.59 2394.45 6466.6 2420.6C6417.76 2481.38 6379.23 2529.32 6299.45 2545.79C6267.79 2552.39 6202.12 2565.87 6145.85 2552.84C6140.07 2551.49 6134.19 2553.75 6130.75 2558.54C6127.31 2563.34 6127.13 2569.67 6130.3 2574.64C6163.4 2627.2 6224.64 2663.56 6298.18 2674.42C6353.18 2682.47 6406.45 2675.05 6448.33 2654.43C6429.61 2737.92 6470.04 2817.07 6525.13 2863.47C6577.86 2907.89 6660.63 2936.38 6745.02 2895.13C6734.26 2959.9 6753.43 3013.9 6799.11 3043.3C6846.26 3073.6 6908.79 3068.86 6960.26 3032.77C6988.7 3112.72 7066.6 3180.16 7187.61 3163.43C7271.4 3151.8 7358.77 3093.31 7381.49 2989.81C7496.44 3012.71 7604.94 2971.53 7667.29 2880.12C7722.33 2799.51 7725.58 2700.23 7677.54 2615.17C7797.08 2615.47 7958.22 2534.58 7966.97 2530.14C7972.58 2527.34 7975.74 2521.18 7974.75 2515.03C7973.75 2508.88 7968.96 2504 7962.81 2503C7961.27 2502.82 7810.3 2477.67 7694.07 2443.84C7628.49 2424.76 7585.16 2392.28 7543.28 2360.9C7483.13 2315.76 7421.08 2269.26 7298.42 2269.26L7298.42 2269.17C7292.45 2269.17 7286.3 2269.26 7280.06 2269.53C7237.14 2271.07 7199.72 2282.01 7167.91 2299.09ZM7214.66 2741.27C7248.22 2741.27 7281.24 2751.58 7310.27 2771.84C7360.29 2806.67 7388.97 2864.29 7386.98 2926.07C7387.41 2938.23 7387.05 2949.93 7385.97 2961.17C7509.16 2986.53 7599.38 2928.36 7643.41 2863.84C7695.78 2787.14 7695.02 2691.2 7641.72 2612.25C7620.14 2608.49 7600.99 2600.89 7585.79 2588.21C7516.14 2530.14 7435.1 2540.36 7389.24 2574.46C7345.91 2606.67 7332.7 2655.6 7353.96 2705.45C7369.52 2741.9 7392.77 2761.89 7419.54 2761.89L7420.08 2761.89C7445.14 2761.62 7470.56 2743.26 7480.69 2718.11C7486.2 2704.27 7491.45 2677.22 7464.31 2650.54C7458.62 2644.93 7458.53 2635.79 7464.13 2630.09C7469.74 2624.4 7478.88 2624.31 7484.58 2629.91C7513.25 2657.96 7521.57 2694.05 7507.55 2728.96C7493.08 2765.06 7457.17 2790.48 7420.35 2790.84L7419.54 2790.84C7396.47 2790.84 7354.68 2780.98 7327.37 2716.75C7300.95 2654.7 7318.05 2591.29 7372.05 2551.22C7450.11 2493.23 7547.26 2518.2 7604.43 2565.96C7664.67 2616.25 7822.33 2563.34 7913.15 2523.45C7858.69 2513.31 7764.71 2494.41 7686.11 2471.52C7615.46 2450.99 7569.96 2416.89 7526 2383.87C7464.22 2337.56 7405.97 2293.96 7281.15 2298.39C7234.86 2300.05 7195.78 2313.98 7164.13 2334.99C7162.96 2336.13 7161.58 2337.06 7160.08 2337.75C7096.4 2382.14 7064.12 2455.48 7065.14 2512.95C7065.59 2538.64 7074.09 2598.43 7142.57 2598.43C7187.98 2598.43 7207.24 2571.84 7214.66 2556.01C7226.87 2529.96 7224.79 2497.76 7209.68 2479.57C7199.55 2467.27 7185.17 2463.47 7166.9 2468.18C7159.21 2470.17 7151.25 2465.55 7149.26 2457.77C7147.27 2449.99 7151.88 2442.12 7159.66 2440.13C7188.88 2432.54 7214.48 2440.04 7231.94 2461.03C7254.19 2487.9 7257.9 2532.04 7240.89 2568.31C7223.25 2605.85 7187.43 2627.38 7142.57 2627.38C7109.37 2627.38 7081.87 2615.62 7062.97 2593.37C7046.05 2573.38 7036.74 2545.7 7036.19 2513.5C7035.02 2449.19 7070.29 2367.35 7139.97 2316.66C7140.57 2271.91 7113.6 2247.27 7096.98 2236.34C7065.86 2215.89 7025.25 2212.36 6995.85 2227.74C6969.35 2241.58 6954.79 2268.63 6953.79 2305.9C6953.61 2312.05 6949.63 2317.38 6943.75 2319.28C6937.87 2321.18 6931.54 2319.1 6927.74 2314.22C6877.72 2247.91 6814.85 2223.67 6750.81 2245.83C6671.48 2273.33 6613.14 2363.34 6615.13 2455.15C6617.21 2550.58 6688.67 2614.44 6758.32 2628.1C6822.81 2640.77 6877.09 2611.91 6903.68 2550.85C6921.95 2508.79 6918.33 2472.52 6893.46 2448.73C6868.22 2424.48 6824.89 2416.98 6794.86 2431.54C6780.3 2438.6 6763.57 2453.88 6766.82 2486.27C6767.64 2494.23 6761.76 2501.28 6753.89 2502.1C6745.93 2503 6738.87 2497.12 6738.06 2489.16C6734.35 2451.53 6750.45 2421.05 6782.29 2405.58C6823.17 2385.68 6879.53 2395.36 6913.54 2427.92C6947.28 2460.31 6953.43 2509.33 6930.27 2562.52C6898.34 2635.88 6830.32 2671.88 6752.8 2656.6C6671.84 2640.68 6588.63 2566.5 6586.28 2455.78C6585.87 2436.38 6587.87 2417.04 6591.97 2398.22C6542.51 2395.57 6505.93 2417.9 6489.04 2438.87L6488.96 2438.97C6438.61 2501.61 6395.1 2555.75 6305.14 2574.28L6304.75 2574.36C6277.69 2579.9 6227.46 2590.18 6176.52 2586.58C6207 2617.25 6251.14 2638.33 6302.34 2645.83C6365.93 2655.24 6428.7 2640.95 6466.06 2608.47C6471.22 2603.95 6478.82 2603.77 6484.24 2607.84C6489.67 2612 6491.57 2619.33 6488.68 2625.48C6449.51 2709.52 6488.13 2794.54 6543.76 2841.4C6594.6 2884.19 6677.72 2909.88 6758.77 2853.52C6763.84 2850 6770.62 2850.09 6775.6 2853.7C6780.57 2857.32 6782.74 2863.74 6780.84 2869.62C6760.22 2936.2 6772.88 2992.01 6814.76 3018.88C6856.28 3045.56 6914.08 3036.88 6958.49 2997.26C6964.46 2991.92 6973.6 2992.47 6978.94 2998.44C6981.1 3000.85 6982.3 3003.79 6982.56 3006.79C7008.8 3110.84 7102.25 3146.09 7183.63 3134.85C7273.82 3122.36 7362.74 3053.16 7358.03 2926.7L7358.03 2925.62C7359.84 2873.52 7335.78 2824.85 7293.72 2795.63C7254.01 2768.04 7205.43 2762.8 7160.48 2781.25C7099.87 2806.13 7066.31 2847.28 7068.3 2894.32C7070.02 2934.03 7097.97 2971.21 7134.79 2982.7C7174.14 2994.91 7214.3 2977.27 7248.04 2932.77C7252.83 2926.34 7261.97 2925.17 7268.3 2929.96C7274.63 2934.76 7275.9 2943.89 7271.11 2950.22C7230.13 3004.32 7177.3 3026.3 7126.2 3010.29C7077.35 2995.09 7041.71 2947.87 7039.45 2895.5C7036.83 2835.61 7076.99 2784.14 7149.53 2754.38C7170.88 2745.61 7192.95 2741.27 7214.66 2741.27Z" fill="#0D4752"/>
<path fill-rule="evenodd" clip-rule="evenodd" d="M1891.08 1914.04C1835.96 1914.04 1783.02 1929.02 1744.32 1958.71C1730.09 1916.69 1693.24 1881.43 1638.08 1857.78C1597.3 1840.33 1545.42 1829.93 1491.72 1829.92C1422.73 1829.93 1350.77 1847.12 1296.07 1888.36C1252.02 1921.54 1202.9 1983.15 1211.23 2090.43C1165.46 2091.99 1096.46 2105.44 1049.37 2146.88C1035.57 2104.11 994.072 2068.71 934.978 2051.08C912.907 2044.48 888.756 2040.86 864.062 2040.86L864.062 2041.04C807.8 2041.04 749.276 2060.03 708.843 2107.07C655.746 2060.76 598.58 2039.23 538.789 2043.03C469.049 2047.46 400.666 2086.63 346.213 2153.39C291.488 2220.51 289.498 2325.62 341.148 2415.08C383.381 2488.22 450.615 2532.19 523.367 2536.76C509.473 2595.04 531.499 2654.53 582.117 2693.87C632.744 2733.18 698.785 2742.39 758.249 2720.37C752.741 2739.85 749.611 2760.48 749.004 2782.06C745.658 2899.48 817.569 3017.25 919.963 3062.12C975.954 3086.63 1087.3 3108.71 1217.74 2991.47C1257.54 3079.04 1345.37 3112.32 1419.18 3105.99C1499.78 3098.86 1562.34 3049.95 1586.59 2977.92C1602.38 3006.58 1624.09 3032.02 1650.29 3050.63C1689.55 3078.49 1771.59 3114.04 1886.01 3046.29C1964.16 3129.78 2037.52 3118.3 2075.06 3103.46C2096.71 3094.91 2116.44 3081.41 2133.16 3064.64C2236.34 3112.38 2355.22 3109.52 2451.62 3057.06C2529 3015.05 2579.78 2945.47 2591.4 2866.04C2624.7 2875.24 2660.82 2879.78 2697.84 2878.59C2826.55 2874.42 2921.26 2805.59 2953.01 2693.69C3018.13 2681.39 3068.07 2639.05 3094.21 2573.47C3121.9 2503.89 3117.6 2419.92 3085.54 2354.9C3139.61 2358.78 3260.49 2363.79 3345.31 2340.4C3374.7 2332.35 3436.12 2311.9 3488.13 2291.82C3591.34 2251.93 3597.58 2237.73 3595.05 2223.35C3591.79 2204.62 3567.91 2202.9 3525.13 2206.34C3384.02 2217.65 3222.29 2090.74 3112.93 1994.31C3055.04 1943.29 2920.9 1893.09 2813.26 1893.09L2813.17 1892.91C2803.58 1892.91 2794.26 1893.27 2785.22 1894.08C2739.23 1898.23 2705.88 1913.22 2685.97 1938.41C2651.03 1897.56 2583.72 1853.57 2455.84 1853.56C2433.77 1853.57 2320.52 1857.57 2247.92 1936.05C2208.06 1979.13 2189.28 2035.64 2191.86 2104.25C2174.67 2101.34 2156.22 2101.59 2136.84 2105.08C2136.66 2042.49 2101.56 1987.4 2038.34 1951.76C1993.47 1926.52 1941.28 1913.95 1890.81 1913.95L1891.08 1914.04ZM1698.32 2720.83C1740.2 2720.83 1794.92 2740.37 1818.8 2760.36C1861.23 2795.82 1871.36 2857.33 1841.78 2900.29C1816 2937.83 1758.47 2961.26 1674.71 2914.5C1667.75 2910.61 1665.21 2901.74 1669.1 2894.78C1672.99 2887.81 1681.86 2885.28 1688.82 2889.17C1755.58 2926.44 1799.27 2910.88 1817.9 2883.83C1836.53 2856.78 1835 2811.46 1800.26 2782.43C1780.45 2765.87 1721.39 2744.89 1686.11 2750.5C1635.45 2758.37 1601.44 2788.58 1590.41 2835.53C1574.67 2902.37 1607.59 2984.69 1667.02 3026.84C1726.72 3069.27 1802.7 3065.11 1880.95 3015.26C1887.01 3011.38 1894.97 3012.55 1899.67 3017.98C1951.23 3077.23 2009.75 3098.03 2064.48 3076.41C2119.84 3054.52 2161.53 2991.2 2159.45 2932.23C2157.74 2884.64 2127.98 2849.37 2075.78 2832.99C2027.84 2817.98 1999.71 2836.52 1987.23 2849C1968.96 2867.19 1961.36 2894.69 1968.32 2917.3C1974.84 2938.38 1993.02 2952.76 2019.61 2957.73C2027.48 2959.18 2032.64 2966.78 2031.19 2974.65C2029.74 2982.52 2022.15 2987.77 2014.28 2986.23C1977.19 2979.26 1950.42 2957.28 1940.65 2925.89C1930.42 2892.79 1940.65 2854.52 1966.79 2828.56C1995.91 2799.61 2038.7 2791.2 2084.38 2805.49C2148.24 2825.49 2186.14 2871.35 2188.31 2931.23C2189.73 2969.96 2176.13 3009.41 2152.73 3041.66C2245.86 3082.01 2351.68 3078.45 2437.78 3031.55C2507.7 2993.46 2553.38 2930.87 2563.06 2859.68C2563.19 2858.78 2563.39 2857.91 2563.67 2857.07C2503.7 2834.69 2455.97 2796.54 2433.89 2749.95C2358 2797.99 2258.23 2796 2174.29 2743.17C2107.77 2701.31 2068.62 2637.43 2068.52 2574.21C2065.68 2575.81 2062.8 2577.37 2059.86 2578.9C1996.46 2612.01 1912.15 2629.28 1822.88 2627.93C1669.75 2625.36 1510.03 2566.08 1475.6 2457.02C1468.96 2465.66 1461.45 2474.13 1453.1 2482.38C1348.26 2585.96 1190.42 2549.41 1088.66 2459.77C1005.91 2386.91 955.095 2270.81 1025.23 2173.57C1022.43 2132.97 983.923 2095.96 926.656 2078.85C859.811 2058.95 770.623 2069.08 722.32 2136.56C719.878 2140 716.08 2142.17 711.919 2142.53C707.758 2142.89 703.597 2141.54 700.612 2138.64C650.319 2090.79 596.499 2068.27 540.599 2071.88C479.904 2075.68 417.219 2112.05 368.645 2171.66C314.192 2238.42 328.122 2334.76 366.203 2400.52C401.299 2461.31 471.853 2520.83 564.207 2505.81C603.554 2499.39 638.56 2473.88 658.098 2437.61C673.928 2408.03 676.37 2376.37 664.701 2350.68C645.616 2308.61 616.399 2285.01 582.388 2284.37C553.805 2284.01 525.493 2300.02 513.462 2323.9C507.312 2336.2 503.241 2355.2 519.252 2375.73C524.136 2382.07 523.05 2391.11 516.719 2396.09C510.387 2400.97 501.341 2399.89 496.366 2393.55C477.009 2368.59 473.753 2338.47 487.593 2310.97C504.598 2277.04 543.041 2254.79 582.931 2255.51C609.434 2256.06 658.732 2267.55 691.024 2338.83C706.401 2372.75 703.687 2413.82 683.516 2451.36C659.817 2495.59 616.942 2526.62 568.82 2534.49C563.664 2535.33 558.517 2535.96 553.379 2536.41C538.563 2585.64 556.392 2637.2 599.846 2670.98C649.578 2709.62 717.273 2713.63 773.138 2681.49C800.22 2626.44 849.173 2583.69 915.802 2558.91C964.104 2540.91 1013.13 2531.86 1058.18 2531.86C1098.34 2531.86 1135.33 2539.01 1166.09 2553.48C1211.32 2574.65 1242.97 2610.29 1260.34 2659.4C1282.5 2722.36 1256.9 2787.67 1195.03 2825.94C1136.51 2862.12 1068.4 2859.31 1029.41 2819.06C1016.3 2805.49 996.034 2764.06 1006.62 2725.17C1012.04 2705.36 1027.69 2679.21 1071.84 2667C1079.52 2664.83 1087.48 2669.35 1089.65 2677.13C1091.83 2684.91 1087.3 2692.78 1079.52 2694.95C1054.65 2701.83 1039.45 2714.58 1034.57 2732.86C1027.24 2759.9 1042.98 2791.56 1050.22 2798.98C1084.59 2834.44 1141.48 2825.12 1179.84 2801.42C1219.46 2776.91 1254.19 2729.24 1233.02 2669.08C1218.37 2627.56 1191.78 2597.44 1153.88 2579.71C1095.35 2552.3 1010.24 2554.75 925.933 2586.04C800.744 2632.72 779.488 2729.42 777.95 2782.88C774.965 2888.98 839.549 2995.27 931.631 3035.62C1020.64 3074.6 1120.68 3046.38 1213.31 2956.01C1216.83 2952.58 1221.99 2951.13 1226.78 2952.3C1231.58 2953.48 1235.56 2957.01 1237.09 2961.71C1266.76 3049.73 1348.62 3083.11 1416.65 3077.14C1476.89 3071.89 1552.24 3032.36 1566.44 2938.56C1566.67 2936.97 1567.17 2935.48 1567.87 2934.12C1556.94 2899.24 1554.4 2862.5 1562.28 2829.01C1576.03 2770.76 1619.53 2731.77 1681.68 2722.09C1686.92 2721.28 1692.53 2720.92 1698.32 2720.92L1698.32 2720.83ZM1498.24 2423.13C1498.18 2422.4 1498.06 2421.69 1497.9 2421C1508.58 2398.51 1513.77 2375.33 1513.16 2352.13C1511.89 2307.53 1489.37 2263.39 1449.48 2228.01C1418 2200.06 1377.03 2192.2 1337.05 2206.31C1296.61 2220.61 1266.4 2254.07 1260.16 2291.52C1254.55 2325.08 1268.84 2357.37 1300.41 2382.43C1306.65 2387.4 1315.79 2386.32 1320.76 2380.08C1325.74 2373.83 1324.65 2364.7 1318.41 2359.72C1295.17 2341.27 1284.85 2319.29 1288.74 2296.22C1293.27 2269.36 1316.51 2244.21 1346.73 2233.53C1376.48 2223.04 1406.97 2228.92 1430.3 2249.63C1464.04 2279.67 1483.22 2316.39 1484.22 2352.94C1485.21 2390.48 1467.93 2427.11 1432.75 2461.85C1340.48 2553.03 1199.47 2518.93 1107.75 2438.15C1033.75 2372.93 987.713 2269.99 1051.48 2186.67C1094.54 2130.32 1184.9 2117.84 1226.69 2119.28C1231.03 2119.46 1235.01 2117.75 1237.82 2114.58C1240.62 2111.41 1241.98 2107.16 1241.44 2103C1230.94 2020.96 1255.82 1954.74 1313.26 1911.42C1401.9 1844.57 1540.84 1847.56 1626.68 1884.29C1680.19 1907.24 1713.2 1941.65 1720.44 1981.77C1679.32 2030.31 1671.23 2097.87 1700.31 2165.24C1727.63 2228.56 1775.3 2265.92 1830.93 2267.73C1874.34 2268.9 1914.32 2246.92 1932.6 2211.1C1952.59 2172.02 1943.9 2123.54 1908.81 2078.22C1903.92 2071.88 1894.88 2070.71 1888.54 2075.59C1882.21 2080.48 1881.04 2089.52 1885.92 2095.86C1914.32 2132.49 1921.74 2168.76 1906.82 2197.89C1893.61 2223.76 1864.3 2239.59 1831.83 2238.78C1787.78 2237.33 1749.52 2206.39 1726.81 2153.75C1698.23 2087.53 1711.8 2021.5 1762 1981.61C1826.13 1932.22 1941.37 1930.32 2024.32 1977.09C2059.14 1996.71 2116.22 2041.67 2107.17 2122C2106.63 2126.79 2108.44 2131.5 2112.15 2134.66C2115.86 2137.74 2120.83 2138.82 2125.44 2137.56C2176.1 2123.26 2217.89 2133.4 2246.38 2166.77C2281.66 2208.02 2289.89 2278.94 2265.56 2331.68C2255.06 2354.38 2229.1 2392.47 2172.84 2392.47C2165.52 2392.47 2159.36 2397.98 2158.46 2405.22C2153.11 2449.38 2128.51 2496.81 2078.93 2533.71C2077.75 2534.34 2076.65 2535.14 2075.68 2536.09C2022.02 2574.69 1940.19 2601.14 1823.42 2599.07C1672.9 2596.45 1507.82 2533.94 1498.24 2423.13ZM2221.29 2112.86C2239.07 2120.49 2254.91 2132.2 2268.27 2147.87C2311.06 2197.98 2320.91 2280.3 2291.7 2343.71C2291.44 2344.29 2291.16 2344.87 2290.88 2345.44C2290.65 2345.94 2290.41 2346.43 2290.17 2346.93C2290.78 2348.28 2291.17 2349.75 2291.34 2351.31C2303.73 2466.19 2415.62 2518.92 2514.4 2519.29L2515.57 2519.29C2618.78 2519.29 2728.77 2465.74 2742.7 2345.7C2743.61 2337.92 2750.48 2332.22 2758.17 2332.94C2803.13 2336.38 2842.11 2316.66 2865.09 2278.67C2868.5 2273.02 2871.45 2267.15 2873.96 2261.12C2874.27 2259.96 2874.71 2258.85 2875.28 2257.82C2889.86 2219.94 2886.95 2176.38 2866.35 2143.62C2840.65 2102.88 2791.1 2082.88 2726 2086.81C2721.39 2111.33 2711.59 2134.89 2696.75 2155.5C2659.03 2207.79 2597.61 2231.67 2528.15 2221.08C2463.74 2211.22 2419.15 2179.66 2405.58 2134.34C2395.18 2099.33 2405.58 2062.33 2432.99 2037.73C2466.91 2007.24 2517.2 2002.72 2571.02 2025.24C2578.44 2028.32 2581.87 2036.82 2578.8 2044.15C2575.72 2051.57 2567.22 2055.01 2559.89 2051.93C2516.84 2033.84 2477.67 2036.55 2452.34 2059.26C2433.35 2076.26 2426.11 2101.86 2433.26 2126.01C2443.48 2160.21 2479.57 2184.36 2532.49 2192.5C2590.83 2201.46 2642.03 2181.74 2673.23 2138.59C2704.62 2095.08 2708.96 2035.65 2684.18 1987.25C2664.19 1948.18 2607.93 1882.5 2455.78 1882.5C2400.88 1882.5 2319.11 1901.68 2269.08 1955.68C2232.92 1994.79 2216.84 2047.67 2221.29 2112.86ZM2729.03 2057.63C2733.61 2057.42 2738.08 2057.32 2742.43 2057.32L2742.61 2057.41C2832.07 2057.41 2873.59 2100.65 2890.96 2128.24C2912.73 2162.85 2918.62 2207.04 2908.68 2248.09C2912.27 2247.91 2915.82 2247.82 2919.36 2247.82L2919.54 2247.73C2976.07 2247.73 3025.37 2271.17 3060.65 2315.4C3062.97 2318.32 3065.23 2321.31 3067.4 2324.37C3099.83 2327.24 3244.74 2338.08 3337.62 2312.45C3390.17 2297.97 3503.78 2257.54 3549.28 2233.84C3543.58 2233.93 3536.35 2234.29 3527.48 2235.02C3375.43 2247.23 3207.18 2115.7 3093.84 2015.84C3036.41 1965.27 2890.32 1913.71 2787.93 1922.94C2750.66 1926.38 2723.25 1937.95 2708.69 1956.41C2707.01 1958.51 2704.87 1960.03 2702.52 1960.94C2705.38 1965.51 2707.84 1969.9 2709.96 1974.05C2723.34 2000.2 2729.62 2029.04 2729.03 2057.63ZM2898.27 2278.04C2970.16 2269.75 3013.68 2303.3 3037.85 2333.58C3084.44 2392.11 3096.74 2488.53 3067.16 2562.89C3043.82 2621.51 2998.42 2658.41 2939.26 2666.73C2933.38 2667.55 2928.68 2671.89 2927.23 2677.59C2901.45 2781.61 2815.34 2845.93 2696.75 2849.73C2582.51 2853.35 2478.31 2799.07 2454.33 2723.36C2452.89 2718.93 2449.45 2715.4 2444.93 2713.95C2440.49 2712.51 2435.52 2713.32 2431.81 2716.21C2349.59 2778.81 2250 2756.74 2189.67 2718.75C2124.55 2677.7 2089.48 2613.86 2098.99 2554.6C2146.19 2519.77 2175.63 2474.22 2185.23 2420.78C2217.63 2417.92 2245.87 2404.04 2267.14 2380.96C2294.39 2495.14 2410.85 2547.81 2514.31 2548.23L2515.66 2548.23C2577.26 2548.23 2636.06 2531.05 2681.19 2499.75C2729.31 2466.37 2759.62 2419.06 2769.57 2362.34C2820.04 2362.07 2863.46 2337.56 2889.96 2293.69C2893.04 2288.61 2895.8 2283.39 2898.27 2278.04Z" fill="#0D4752"/>
<path fill-rule="evenodd" clip-rule="evenodd" d="M3739.69 1614.66C3849.32 1623.71 3918.06 1684.04 3984.46 1742.39L3984.62 1742.52C4042.16 1793.02 4096.64 1840.85 4175.12 1854.01C4175.82 1849.5 4176.7 1844.97 4177.76 1840.44C4198.56 1750.89 4289.74 1672.64 4394.57 1654.37C4410.49 1651.57 4426.32 1650.21 4441.79 1650.21L4441.88 1650.39C4529.69 1650.39 4608.62 1694.55 4664.06 1775.91C4664.44 1775.48 4664.83 1775.06 4665.21 1774.64C4702.66 1733.76 4753.31 1712.41 4809.94 1712.41L4809.67 1712.14C4832.91 1712.14 4857.25 1715.75 4882.03 1723.08C4918.57 1733.85 4991.48 1770.75 5014.37 1822.86C5052.27 1797.26 5096.95 1786.04 5142.45 1791.11C5199.07 1797.44 5251.99 1828.28 5287.9 1875.68C5361.8 1956.46 5306.53 2070.08 5281.84 2111.87C5309.52 2122.9 5360.62 2149.41 5379.98 2200.33C5394.81 2239.32 5387.94 2283.83 5359.54 2332.76C5458.68 2387.58 5470.98 2511.05 5430.36 2604.23C5406.48 2658.95 5366.5 2702.01 5317.93 2725.44C5268.18 2749.41 5211.92 2751.76 5154.12 2732.58C5157.73 2816.08 5117.84 2888.89 5040.05 2939.37C4906.27 3026.21 4684.66 3031.73 4555.94 2951.49C4483.4 2906.26 4447.76 2840.41 4452.19 2760.44C4367.26 2759.09 4298.78 2720.55 4258.26 2650.99C4225.11 2594.04 4213.44 2521.88 4222.55 2450.62C4080.43 2483.57 4005.54 2304.36 3932.95 2130.65L3932.9 2130.54L3932.89 2130.51C3867.49 1973.94 3799.83 1811.95 3685.78 1776.94C3628.34 1759.3 3563.21 1774.86 3486.6 1824.52C3475.74 1837.91 3467.78 1844.69 3457.83 1842.61C3451.95 1841.35 3447.25 1836.82 3445.71 1830.85C3442 1816.56 3460.45 1782.19 3473.75 1768.71C3525.94 1671.83 3622.19 1614.66 3732.45 1614.66L3739.69 1614.66ZM4623.42 1973.56C4601.86 1918.82 4610.95 1852.45 4645.44 1800.04C4645.1 1799.63 4644.8 1799.19 4644.5 1798.74C4585.97 1708.28 4496.7 1666.04 4399.64 1682.96C4305.75 1699.33 4224.34 1768.35 4206.07 1847.04C4190.96 1911.81 4220.63 1975.04 4289.56 2025.34C4323.75 2050.3 4361.47 2055.1 4392.95 2038.72C4421.8 2023.71 4439.98 1993.77 4439.35 1962.47C4438.63 1925.38 4412.48 1892.91 4365.72 1870.93C4358.48 1867.49 4355.41 1858.89 4358.75 1851.66C4362.19 1844.42 4370.78 1841.35 4378.02 1844.69C4434.37 1871.29 4467.21 1913.98 4468.2 1961.83C4469.02 2003.99 4444.69 2044.24 4406.24 2064.32C4364.63 2086.03 4315.79 2080.33 4272.37 2048.67C4208.21 2001.87 4173.97 1944.23 4173.08 1883.02C4084.84 1869.07 4024.09 1815.79 3965.28 1764.1L3965.24 1764.07C3899.59 1706.37 3837.54 1651.84 3737.61 1643.52C3635.75 1641.98 3546.57 1693.9 3498.9 1783.18C3571.53 1742.3 3635.66 1731.17 3694.37 1749.17C3821.46 1788.16 3891.74 1956.5 3959.67 2119.32C4045.24 2324.13 4110.68 2456.58 4227.96 2419.08C4236.53 2379.35 4251.66 2340.67 4273.18 2305.9C4330.08 2213.99 4419.9 2167.14 4526.27 2174.01C4707.64 2171.3 4808.85 2268.99 4829.39 2366.96C4845.31 2443.21 4815.82 2544.16 4685.29 2598.8C4598.1 2635.34 4540.3 2603.14 4513.52 2580.71C4469.74 2543.98 4448.3 2484.1 4460.15 2431.63C4469.92 2388.3 4500.22 2358 4545.45 2346.24C4553.14 2344.25 4561.1 2348.86 4563.09 2356.64C4565.08 2364.42 4560.47 2372.29 4552.69 2374.28C4518.5 2383.15 4495.61 2405.85 4488.37 2437.96C4479.06 2479.48 4496.97 2529.06 4532.06 2558.45C4569.51 2589.84 4619.89 2594.64 4674.08 2572.02C4769.69 2531.95 4818.35 2455.6 4800.98 2372.75C4782.89 2286.36 4691.17 2200.61 4526.09 2202.78L4524.92 2202.78C4429.58 2196.53 4348.89 2238.51 4297.79 2321C4238.63 2416.53 4232.57 2549.14 4283.32 2636.34C4309.82 2681.84 4363.1 2735.39 4467.48 2731.32C4471.64 2731.14 4475.8 2732.86 4478.7 2735.93C4481.59 2739.01 4482.95 2743.26 4482.4 2747.51C4470.92 2842.85 4524.38 2897.67 4571.32 2926.98C4691.44 3001.87 4898.95 2996.45 5024.31 2915.13C5077.5 2880.66 5137.83 2817.52 5123.36 2712.86C5122.64 2707.71 5124.72 2702.55 5128.88 2699.39C5133.04 2696.22 5138.56 2695.59 5143.35 2697.58C5268.54 2750.77 5364.51 2683.28 5404.04 2592.74C5454.15 2477.86 5406.39 2384.69 5333.22 2351.94C5329.33 2350.22 5326.43 2346.87 5325.26 2342.8C5324.08 2338.73 5324.71 2334.39 5326.97 2330.77C5357.01 2284.64 5365.87 2244.3 5353.12 2210.83C5331.86 2154.92 5256.87 2133.76 5256.15 2133.58C5251.63 2132.31 5247.92 2128.96 5246.38 2124.53C5244.75 2120.1 5245.48 2115.12 5248.1 2111.32L5248.16 2111.22C5251.07 2106.96 5340.52 1975.27 5266.28 1894.95C5265.92 1894.59 5265.65 1894.23 5265.38 1893.87C5234.26 1852.44 5188.4 1825.57 5139.46 1820.05C5094.87 1814.99 5051 1828.65 5015.99 1858.32C5011.92 1861.75 5006.41 1862.66 5001.43 1860.76C4996.46 1858.86 4993.02 1854.43 4992.29 1849.18C4986.14 1803.23 4911.07 1761.89 4874.07 1751.03C4772.67 1721.09 4713.06 1765.14 4686.56 1794.09C4644.32 1840.31 4629.39 1909.7 4650.38 1962.79C4669.1 2010.28 4713.33 2039.14 4774.84 2043.93C4818.35 2047.19 4839.43 2024.3 4848.11 2010.37C4862.67 1986.95 4863.31 1957.19 4849.83 1934.48C4834.81 1909.24 4804.69 1896.58 4764.89 1898.93C4757.11 1899.47 4750.06 1893.32 4749.61 1885.36C4749.15 1877.4 4755.21 1870.53 4763.17 1870.07C4832.01 1866.09 4862.58 1899.47 4874.7 1919.74C4893.7 1951.67 4892.89 1993.19 4872.71 2025.75C4852 2059.04 4815.46 2076.32 4772.58 2072.88C4699.4 2067.18 4646.4 2031.9 4623.42 1973.56Z" fill="#0D4752"/>
<path fill-rule="evenodd" clip-rule="evenodd" d="M3012.77 1186.05C2974.42 1159.33 2934.75 1131.71 2873.32 1131.71L2873.32 1131.8L2871.06 1131.8C2822.75 1132.34 2798.78 1155.14 2781.78 1177.3C2772.82 1189.06 2756 1195.75 2739.17 1194.4C2655.69 1187.61 2610.64 1240.44 2604.13 1292.18C2598.43 1337.59 2622.49 1388.7 2679.47 1398.47C2694.85 1401.09 2707.79 1409.05 2713.12 1419.18C2733.11 1456.81 2774.27 1480.15 2826.28 1483.14C2887.61 1486.66 2947.94 1460.79 2976.62 1418.82C2996.43 1389.78 3002.49 1354.51 2993.53 1319.68C2993.35 1318.96 2993.17 1318.32 2992.99 1317.69C3026.09 1319.05 3051.96 1299.51 3062.1 1276.44C3074.04 1249.21 3064.54 1220.54 3037.94 1203.26C3029.92 1198.05 3022.13 1192.6 3014.44 1187.21L3013.07 1186.25L3012.77 1186.05ZM3035.59 1264.77C3029.8 1277.89 3014.97 1288.74 2995.61 1288.74L2995.43 1288.56C2991 1288.56 2986.29 1288.02 2981.41 1286.75L2979.6 1286.21C2968.11 1266.58 2951.65 1250.57 2932.29 1240.8C2879.2 1213.84 2829.81 1229.67 2803.67 1251.38C2780.51 1270.74 2770.38 1297.34 2777.26 1320.85C2782.14 1337.59 2800.23 1366.99 2866.35 1375.13C2874.22 1376.03 2881.46 1370.43 2882.45 1362.56C2883.45 1354.69 2877.84 1347.45 2869.88 1346.45C2833.61 1342.02 2810 1329.72 2805.02 1312.8C2801.41 1300.59 2808.01 1285.58 2822.21 1273.82C2841.57 1257.72 2878.65 1246.23 2919.27 1266.76C2941.43 1277.98 2958.62 1300.41 2965.4 1326.73C2972.27 1353.42 2967.75 1380.29 2952.65 1402.36C2929.94 1435.74 2878.56 1456.81 2827.91 1454.1C2786.3 1451.75 2753.74 1434.02 2738.72 1405.52C2729.13 1387.34 2708.78 1373.95 2684.36 1369.79C2643.47 1362.83 2629 1326.46 2632.89 1295.71C2637.87 1255.82 2671.88 1218.01 2736.91 1223.16C2763.78 1225.33 2789.74 1214.48 2804.84 1194.85C2817.33 1178.48 2833.88 1161.11 2871.42 1160.66L2873.32 1160.66C2925.74 1160.66 2959.98 1184.51 2996.24 1209.76L2997.91 1210.93C3005.87 1216.49 3013.92 1222.12 3022.2 1227.5C3043.1 1241.07 3038.49 1258.08 3035.59 1264.77Z" fill="#0D4752"/>
<path fill-rule="evenodd" clip-rule="evenodd" d="M614.047 1425.6L616.58 1425.6C672.118 1426.24 699.617 1452.38 719.245 1477.98C730.281 1492.36 750.814 1500.68 771.347 1498.96C867.5 1491.19 919.42 1551.88 926.837 1611.31C933.35 1663.33 905.852 1721.85 840.634 1733.07C821.82 1736.32 806.081 1746.09 799.387 1758.67C776.503 1802.09 728.924 1828.95 668.953 1832.3C597.946 1836.28 528.116 1806.52 495.1 1758.03C472.215 1724.56 465.341 1684.04 475.653 1643.88C476.023 1642.33 476.449 1640.86 476.883 1639.34L476.892 1639.3L477.19 1638.27C437.933 1641.07 406.998 1618.64 395.148 1591.59C381.671 1560.93 392.435 1528.45 422.466 1508.91C432.416 1502.49 442.275 1495.62 451.773 1488.92C496.457 1457.72 542.589 1425.51 614.047 1425.51L614.047 1425.6ZM766.01 1528.09C738.241 1528.09 712.009 1515.97 696.27 1495.53C681.254 1475.9 661.445 1455 616.309 1454.46C552.991 1453.83 511.744 1482.41 468.326 1512.62C458.647 1519.41 448.607 1526.37 438.205 1533.16C420.114 1544.92 413.963 1562.37 421.651 1579.92C430.335 1599.73 455.843 1615.56 487.773 1607.24L490.035 1606.61L490.197 1606.55L490.414 1606.49C490.586 1606.44 490.786 1606.37 490.939 1606.34C504.236 1583.45 523.412 1564.64 545.935 1553.24C607.082 1522.21 663.888 1540.39 693.918 1565.36C720.331 1587.34 731.909 1617.46 724.13 1644.06C718.521 1663.14 697.808 1696.43 621.826 1705.84C613.866 1706.74 606.63 1701.23 605.726 1693.27C604.731 1685.31 610.338 1678.07 618.298 1677.17C661.807 1671.83 690.3 1656.72 696.36 1635.92C700.883 1620.54 692.832 1602.09 675.465 1587.61C652.128 1568.25 607.715 1554.41 559.051 1579.02C532.548 1592.5 511.834 1619.36 503.784 1650.93C495.552 1682.86 501.07 1715.07 519.161 1741.57C546.749 1781.91 606.358 1806.79 667.505 1803.26C717.165 1800.46 755.97 1779.2 773.97 1745.01C784.915 1724.38 807.98 1709.19 835.931 1704.39C885.409 1695.89 902.957 1652.02 898.344 1614.84C892.374 1566.99 851.579 1521.58 773.879 1527.73C771.347 1527.91 768.814 1528 766.191 1528L766.01 1528.09Z" fill="#0D4752"/>
<path fill-rule="evenodd" clip-rule="evenodd" d="M7867.47 1326.01C7820.07 1292.9 7771.05 1258.71 7695.43 1258.71L7695.52 1258.89L7692.8 1258.89C7634.19 1259.52 7605.06 1287.2 7584.35 1314.16C7572.41 1329.72 7550.34 1338.67 7528.18 1336.87C7426.42 1328.63 7371.6 1392.68 7363.73 1455.55C7356.86 1510.45 7385.89 1572.24 7454.64 1583.99C7474.9 1587.43 7492 1598.11 7499.14 1611.67C7523.29 1657.45 7573.58 1685.85 7637.08 1689.47C7712.16 1693.63 7786.24 1662.15 7821.25 1610.86C7845.4 1575.4 7852.64 1532.62 7841.78 1490.19C7841.24 1487.84 7840.51 1485.4 7839.79 1483.04C7881.76 1486.48 7914.78 1462.78 7927.44 1434.02C7941.55 1401.81 7930.25 1367.8 7898.68 1347.27C7888.48 1340.65 7878.37 1333.6 7868.58 1326.78L7867.47 1326.01ZM7900.85 1422.35C7893.25 1439.81 7873.53 1454.37 7847.84 1454.37L7847.75 1454.19C7841.87 1454.19 7835.72 1453.37 7829.3 1451.75L7828.86 1451.64C7828.26 1451.49 7827.6 1451.33 7826.95 1451.11C7826.85 1451.1 7826.75 1451.07 7826.66 1451.04L7826.48 1451C7826.22 1450.91 7825.97 1450.84 7825.68 1450.84C7811.66 1426.51 7791.31 1406.52 7767.43 1394.4C7702.75 1361.56 7642.78 1380.74 7611.03 1407.15C7583.17 1430.31 7570.96 1461.97 7579.19 1489.92C7585.07 1510 7606.96 1545.1 7687.29 1555.05C7695.16 1555.95 7702.39 1550.34 7703.39 1542.48C7704.38 1534.61 7698.77 1527.37 7690.81 1526.37C7644.14 1520.58 7613.57 1504.39 7606.96 1481.87C7602.08 1465.22 7610.67 1445.14 7629.49 1429.49C7654.54 1408.69 7702.12 1393.85 7754.31 1420.27C7782.81 1434.65 7804.97 1463.42 7813.65 1497.25C7822.42 1531.53 7816.54 1565.99 7797.19 1594.4C7767.7 1637.64 7704.11 1664.14 7638.62 1660.43C7585.43 1657.45 7543.92 1634.65 7524.56 1598.02C7513.07 1576.31 7488.74 1560.39 7459.34 1555.32C7406.06 1546.18 7387.25 1498.96 7392.22 1458.98C7398.65 1407.69 7442.34 1358.94 7525.64 1365.54C7557.94 1368.25 7589.14 1355.14 7607.14 1331.62C7623.24 1310.63 7644.5 1288.2 7692.89 1287.66L7695.34 1287.66C7761.91 1287.66 7805.15 1317.78 7850.83 1349.71L7853.5 1351.57C7863.04 1358.21 7872.76 1364.98 7882.85 1371.51C7902.48 1384.27 7909.26 1403.26 7900.85 1422.35Z" fill="#0D4752"/>
<path fill-rule="evenodd" clip-rule="evenodd" d="M5664.7 1327.06C5599.6 1336.81 5545.22 1367.17 5506.71 1416.38C5450.9 1487.57 5434.43 1592.41 5466.64 1671.47C5482.19 1709.64 5507.25 1736.14 5538.64 1748.36C5505.26 1790.96 5494.86 1856.9 5544.52 1920.86C5582.51 1969.7 5651.79 2001.82 5722.71 1969.07C5719.73 2035.29 5748.22 2096.25 5804.66 2143.11C5898.37 2220.99 6054.95 2247.32 6168.83 2204.17C6242.28 2176.31 6291.58 2122.49 6309.58 2051.3C6425.63 2126.1 6539.15 2090.74 6608.8 2029.95C6696.54 1953.33 6749.91 1811.77 6688.94 1683.14C6789.98 1647.41 6831.22 1521.76 6810.78 1418.73C6803.44 1381.62 6786.47 1343.3 6758.52 1313.41C6822.13 1284.67 6875.19 1207.34 6860.35 1114.25C6845.7 1022.26 6771.71 987.973 6699.61 985.711C6727.93 919.859 6694.19 864.861 6653.03 835.824C6625.8 816.647 6591.61 805.611 6557.33 805.611L6557.42 805.702C6522.6 805.702 6487.65 817.063 6459.75 842.843C6455.22 833.689 6450.09 824.734 6444.35 816.014C6421.92 782.002 6349.2 694.62 6194.52 694.62C6144.59 694.62 6086.16 703.666 6018.04 726.642C5943.24 648.758 5874.67 620.626 5811.54 620.626L5811.45 620.717C5718.91 620.717 5638.32 681.233 5567.85 734.15C5529.41 763.096 5493.05 790.324 5459.13 804.797C5374.24 840.962 5301.81 807.99 5225.14 773.092L5224.98 773.019C5105.31 718.582 4981.59 662.3 4829.9 906.95C4826.89 909.854 4825.32 913.879 4825.47 917.923C4825.36 922.907 4827.83 927.837 4832.37 930.623C4838.62 934.449 4846.71 932.911 4851.2 927.348C4996.55 835.969 5087.86 896.846 5184.51 961.288C5291.43 1032.66 5401.96 1106.29 5579.52 962.102C5639.95 912.984 5741.53 881.143 5832.16 920.582C5832.52 920.763 5832.88 920.944 5833.25 921.035C5864.41 931.672 5895.81 964.915 5913.36 1010.49C5882.64 986.462 5842.24 970.677 5798.33 966.444C5790.28 965.63 5782.32 965.268 5774.45 965.268L5774.27 965.358C5720 965.358 5670.43 983.631 5635.87 1017.1C5585.04 1066.31 5563.6 1157.58 5586.03 1229.49C5599.26 1271.77 5626.33 1304.97 5664.7 1327.06ZM4991.3 852.558C5073.34 852.558 5139.55 896.701 5200.61 937.498C5303.28 1005.97 5400.33 1070.65 5561.25 939.849C5641.84 874.358 5755.09 855.996 5843.2 893.988C5903.71 915.064 5962.32 998.556 5956.08 1102.49C5951.92 1172.14 5915.2 1220.99 5857.85 1233.11C5782.77 1249.03 5737.73 1210.59 5727.69 1168.07C5719.09 1131.62 5736.64 1087.84 5786.93 1074.72C5794.62 1072.73 5802.58 1077.34 5804.57 1085.03C5806.56 1092.81 5801.95 1100.68 5794.26 1102.67C5760.25 1111.54 5750.48 1138.49 5755.82 1161.29C5762.69 1190.51 5795.71 1216.56 5851.79 1204.62C5914.93 1191.23 5925.51 1127.37 5927.14 1100.59C5927.86 1088.6 5927.58 1076.89 5926.43 1065.57C5925.27 1064.68 5924.22 1063.59 5923.34 1062.33C5897.74 1025.6 5849.89 1000.55 5795.44 995.3C5740.35 989.963 5689.51 1005.52 5655.96 1037.91C5618.42 1074.18 5592.28 1152.6 5613.62 1220.81C5625.98 1260.38 5659.26 1310.57 5747.33 1325.32C5753.92 1325.95 5760.58 1326.75 5767.3 1327.73C5814.88 1334.6 5859.3 1365.45 5886.16 1410.23C5917.46 1462.33 5922.25 1525.47 5899.73 1587.98C5860.2 1697.61 5780.96 1704.66 5748.76 1702.67C5689.6 1698.97 5636.69 1659.07 5625.74 1610.05C5615.79 1565.63 5641.75 1522.76 5696.93 1492.45C5703.9 1488.56 5712.76 1491.19 5716.56 1498.15C5720.45 1505.12 5717.83 1513.98 5710.86 1517.78C5667.17 1541.75 5647 1572.24 5653.97 1603.71C5662.11 1640.08 5704.53 1670.83 5750.57 1673.82C5804.75 1677.44 5849.35 1642.43 5872.41 1578.21C5891.95 1524.02 5887.97 1469.66 5861.29 1425.15C5838.85 1387.79 5802.22 1362.1 5763.14 1356.4C5757.17 1355.54 5751.34 1354.83 5745.62 1354.25C5744.93 1354.24 5744.22 1354.17 5743.52 1354.05C5627.79 1343.13 5563.54 1390.82 5529.5 1434.29C5474.14 1505.03 5469.44 1601.72 5493.5 1660.7C5508.97 1698.6 5535.38 1721.94 5567.85 1726.28C5573.46 1727.01 5578.16 1731.08 5579.79 1736.51C5581.42 1741.93 5579.79 1747.81 5575.36 1751.61C5523.71 1796.39 5534.93 1861.61 5567.31 1903.31C5602.86 1949.08 5667.62 1975.31 5731.94 1930.63C5736.73 1927.28 5743.06 1927.19 5748.04 1930.36C5752.92 1933.52 5755.45 1939.31 5754.46 1945.1C5739.08 2030.58 5783.31 2087.93 5823.2 2121.04C5909.59 2192.86 6053.77 2217.01 6158.61 2177.3C6208.63 2158.31 6271.31 2116.52 6285.52 2024.88C6286.33 2019.91 6289.68 2015.66 6294.38 2013.67C6299.08 2011.77 6304.42 2012.4 6308.49 2015.48C6400.75 2084.31 6505.86 2081.6 6589.8 2008.33C6670.4 1937.86 6720.87 1799.37 6655.47 1681.42C6653.3 1677.44 6653.03 1672.73 6654.93 1668.57C6656.74 1664.41 6660.45 1661.43 6664.88 1660.34C6740.41 1642.61 6806.89 1547.45 6782.56 1424.61C6767.18 1347.09 6708.39 1271.1 6589.53 1290.37C6583.83 1291.37 6578.13 1288.74 6575.06 1283.86C6571.98 1278.97 6572.07 1272.73 6575.24 1267.94C6620.65 1200.73 6601.83 1143.74 6571.98 1115.34C6539.51 1084.49 6480.26 1073.27 6420.93 1117.96C6420.76 1118.08 6420.61 1118.19 6420.44 1118.3C6366.19 1174.71 6286.35 1172.6 6234.41 1146.45C6211.34 1134.82 6193.18 1118.69 6180.7 1099.61C6027.99 1266.38 6045.68 1439.63 6108.95 1539.13C6173.71 1640.89 6290.13 1680.78 6405.55 1640.8C6494.56 1609.87 6515.72 1515.25 6490.48 1441.89C6470.4 1383.54 6415.77 1326.1 6327.85 1356.13C6278.82 1372.87 6256.48 1423.34 6263.26 1462.42C6270.23 1502.49 6304.15 1525.11 6355.53 1524.38C6363.31 1523.93 6370.09 1530.63 6370.18 1538.68C6370.27 1546.64 6363.85 1553.24 6355.89 1553.33L6353.27 1553.33C6276.92 1553.33 6241.92 1509.1 6234.77 1467.31C6225.91 1416.2 6254.85 1350.43 6318.53 1328.63C6419.66 1294.08 6491.48 1355.86 6517.8 1432.39C6547.65 1519.05 6521.69 1631.03 6414.96 1668.12C6354.97 1688.93 6294.71 1690.32 6240.17 1674.34C6303.83 1803.24 6264.26 1880.07 6232.96 1915.7C6181.31 1974.5 6086.7 1994.67 6012.89 1962.74C5946.67 1934.06 5913.21 1871.74 5920.99 1791.87C5924.69 1753.42 5948.85 1722.3 5985.57 1708.64C6021.93 1695.17 6063.09 1702.04 6087.96 1725.92C6103.07 1740.4 6125.41 1773.86 6105.33 1836.1C6102.89 1843.7 6094.75 1847.86 6087.15 1845.42C6079.55 1842.97 6075.39 1834.83 6077.83 1827.23C6089.23 1791.77 6085.79 1763.91 6067.97 1746.82C6050.88 1730.54 6021.84 1726.1 5995.61 1735.78C5969.11 1745.64 5952.46 1767.08 5949.75 1794.67C5940.89 1885.85 5992.72 1922.49 6024.37 1936.24C6087.15 1963.37 6167.47 1946.46 6211.16 1896.61C6260.37 1840.61 6255.79 1756.05 6198.56 1658.24C6153.53 1636.29 6114.13 1601.3 6084.44 1554.69C6042.74 1489.2 6026 1407.97 6037.13 1325.83C6049.33 1236.1 6094.28 1148.35 6167.15 1071.55C6160.61 1051.77 6159.19 1030.08 6163.49 1007.69C6171.72 964.816 6197.87 933.337 6235.04 921.487C6269.32 910.451 6307.22 918.321 6331.47 941.478C6354.35 963.278 6361.77 994.395 6352.45 1029.31C6350.37 1037 6342.41 1041.61 6334.72 1039.53C6327.03 1037.45 6322.42 1029.49 6324.5 1021.8C6331.01 997.29 6326.58 976.756 6311.48 962.464C6295.01 946.815 6267.88 941.387 6243.82 949.076C6228.08 954.142 6200.4 969.158 6191.9 1013.21C6183.21 1058.53 6203.93 1098.69 6247.43 1120.67C6290.67 1142.47 6357.25 1144.19 6401.3 1096.43C6456.43 1036.63 6470.98 951.238 6442.52 875.933C6441.94 874.856 6441.49 873.716 6441.21 872.54C6435.67 858.592 6428.64 845.005 6420.11 832.025C6348.02 722.3 6197.96 694.259 6018.68 757.126C6013.25 759.026 6007.19 757.488 6003.3 753.327C5833.67 570.938 5707.51 665.602 5585.45 757.208L5585.31 757.307L5585.3 757.316C5545.41 787.248 5507.7 815.561 5470.52 831.391C5373.83 872.549 5292.15 835.371 5213.09 799.369C5103.84 749.609 5008.29 706.126 4885.11 876.358C4923.43 859.361 4958.58 852.377 4991.21 852.377L4991.3 852.558ZM6457.98 1066.06C6489.34 1006.75 6494.39 936.268 6471.91 871.763C6516.13 822.599 6589.09 826.308 6636.39 859.614C6673.47 885.756 6700.07 934.603 6663.16 993.038C6660.27 997.561 6660.18 1003.44 6662.98 1008.14C6665.78 1012.76 6670.94 1015.56 6676.37 1015.11C6762.3 1009.14 6820.46 1047.86 6831.77 1118.86C6842.5 1185.84 6805.9 1269.64 6734.28 1291.85C6703.68 1269.38 6663.8 1255.87 6613.59 1258.44C6638.56 1205.79 6640.46 1140.48 6591.7 1094.17C6569.45 1073 6537.7 1058.89 6501.7 1058.89L6501.97 1059.07C6487.85 1059.07 6473.08 1061.25 6457.98 1066.06Z" fill="#0D4752"/>
<path fill-rule="evenodd" clip-rule="evenodd" d="M730.371 122.84C733.899 122.84 737.426 122.93 741.045 123.111C840.481 128.475 914.002 197.286 938.832 269.923C948.194 258.444 958.74 247.083 970.617 235.911C1036.2 174.22 1119.23 141.203 1203.17 141.203L1203.17 141.565C1230.04 141.565 1257.09 145.002 1283.59 151.877C1380.8 177.268 1445.92 232.031 1477.49 314.881C1500.53 296.038 1528.31 281.366 1560.56 273.18C1695.81 236.02 1761.12 252.628 1818.72 267.282L1818.8 267.3L1818.83 267.309C1882.14 283.411 1936.87 297.323 2081.48 224.966C2158.28 186.522 2227.57 171.325 2289.26 171.325L2289.26 171.144C2437.51 171.144 2541.71 259.159 2599.06 325.193C2629.54 360.29 2651.43 394.121 2664.46 416.374C2691.41 462.326 2689.15 465.582 2684.63 472.095C2682.19 475.623 2678.3 477.884 2674.05 478.246C2669.8 478.699 2665.54 477.161 2662.56 474.085C2644.92 456.537 2599.42 437.088 2571.83 431.932C2439.93 416.654 2385.19 474.755 2332.29 530.91L2332.22 530.983C2292.15 573.588 2250.72 617.55 2178.9 621.983C2078.34 628.215 2005.43 602.634 1921.06 573.036L1920.57 572.864L1912.24 569.97C1854.53 555.678 1806.41 565.266 1776.74 597.197C1753.32 622.344 1744.99 659.432 1755.58 691.544C1766.25 724.018 1793.02 745.818 1831.02 752.965C1831.32 753.019 1831.63 753.091 1831.93 753.164C1832.35 753.272 1832.76 753.39 1833.16 753.535C1845.17 751.174 1857.8 749.98 1870.91 749.98L1870.82 749.708C1886.65 749.708 1903.2 751.427 1920.2 754.955C1971.76 765.629 2023.14 791.68 2057.69 824.878C2148.78 912.26 2157.37 1024.06 2081.3 1131.8L2080.49 1132.88C2011.65 1213.48 1913.51 1259.25 1804.42 1261.79C1699.57 1264.33 1598.91 1225.53 1524.75 1155.03C1471.99 1258.83 1351.04 1356.22 1205.62 1364.45C1065.59 1372.23 923.581 1320.49 825.438 1225.78C751.356 1154.23 711.556 1068.12 713.366 983.178C713.393 982.02 713.555 980.898 713.836 979.822C682.566 983.82 649.279 981.667 615.675 972.956C532.837 951.491 464.752 895.543 435.789 827.031C365.307 845.547 300.615 829.564 252.864 781.73C201.577 730.35 180.591 650.296 200.491 582.543C216.682 527.636 256.663 488.377 314.101 470.557C270.683 384.171 305.509 296.337 362.585 245.138C418.124 195.296 507.04 170.873 587.454 222.071C610.429 159.023 662.35 122.75 730.371 122.75L730.371 122.84ZM1276.26 179.919C1368.25 203.989 1428.2 256.653 1454.52 336.69C1411.86 383.574 1392.08 446.342 1397.92 501.403C1401.9 538.762 1417.37 571.055 1442.61 594.574C1470.74 620.807 1508.91 635.009 1556.13 636.727C1603.07 638.356 1645.49 615.108 1669.74 574.402C1692.17 536.772 1694.07 491.182 1674.71 458.436C1655.08 425.148 1616.28 407.69 1565.8 409.499C1557.75 409.77 1551.51 416.464 1551.78 424.424C1552.06 432.385 1558.84 438.897 1566.71 438.355C1606.78 437.179 1635.54 449.028 1649.75 473.09C1663.77 496.88 1661.87 530.892 1644.77 559.567C1625.78 591.589 1593.94 609.138 1557.12 607.781C1449.39 603.891 1429.94 529.897 1426.6 498.328C1418.55 422.796 1470.19 325.916 1567.89 301.131C1696.04 265.98 1757.37 281.565 1811.42 295.306L1811.57 295.342L1811.65 295.36C1880.54 312.9 1940.08 328.06 2094.33 250.837C2208.03 193.94 2315.04 184.532 2412.55 222.886C2525.25 267.21 2598.7 364.723 2634.07 422.615C2613.26 413.117 2591.55 406.242 2576.54 403.529C2576.27 403.438 2575.9 403.438 2575.63 403.438C2428.82 386.351 2366.39 452.665 2311.24 511.263L2311.15 511.354L2311.02 511.489C2271.55 553.407 2237.45 589.608 2177.09 593.308C2082.21 599.097 2015.09 575.578 1930.15 545.727L1921.2 542.561C1920.97 542.516 1920.77 542.453 1920.57 542.38L1920.56 542.38C1920.47 542.353 1920.39 542.326 1920.31 542.299C1920.23 542.272 1920.14 542.245 1920.05 542.227L1919.93 542.199C1827.31 518.862 1777.2 554.411 1755.58 577.568C1724.64 610.856 1714.06 657.985 1728.08 700.68C1738.12 731.119 1759.39 754.945 1788.49 769.256C1781.23 773.164 1774.37 777.659 1767.97 782.725C1722.74 818.636 1667.66 877.343 1711.25 973.137C1727.63 1008.96 1765.44 1033.83 1810.03 1038C1854.9 1042.25 1896.14 1024.06 1920.29 989.691C1924.91 983.088 1923.28 974.132 1916.77 969.519C1910.25 964.906 1901.21 966.534 1896.59 973.047C1878.41 998.827 1847.12 1012.4 1812.65 1009.14C1778.37 1005.88 1749.61 987.52 1737.58 961.016C1709.63 899.777 1723.65 854.638 1785.88 805.339C1856.98 748.984 1980.45 790.957 2037.7 845.864C2118.39 923.205 2125.62 1018.64 2058.15 1114.61C1994.74 1188.52 1904.37 1230.58 1803.79 1232.93C1703.19 1235.3 1606.58 1196.76 1537.31 1126.87C1540.31 1119.06 1542.92 1111.26 1545.09 1103.49C1559.47 1052.2 1556.13 996.023 1535.59 940.935L1534.96 939.306C1502.58 853.191 1433.2 787.429 1349.26 763.548C1321.31 755.588 1294.8 751.698 1270.2 751.698L1270.2 751.788C1207.7 751.788 1157.77 776.845 1130.09 824.154C1097.52 879.876 1108.02 956.222 1155.6 1009.77C1204.62 1064.95 1277.26 1078.97 1349.98 1047.4C1357.31 1044.15 1360.65 1035.64 1357.49 1028.32C1354.32 1020.99 1345.82 1017.64 1338.49 1020.81C1251.02 1058.8 1196.66 1012.31 1177.3 990.505C1138.59 946.905 1129.27 883.042 1155.14 838.718C1201.73 758.844 1309.46 782.273 1341.3 791.409C1416.46 812.757 1478.7 871.916 1507.82 949.438L1508.37 950.975C1526.82 1000.27 1529.8 1050.3 1517.14 1095.62C1486.75 1204.26 1358.39 1326.82 1203.9 1335.51C1071.83 1343.02 937.872 1294.08 845.519 1204.89C777.316 1139.04 740.683 1060.43 742.311 983.721C742.347 980.482 741.325 977.47 739.561 975.028C776.276 965.955 809.256 947.836 835.388 921.396C877.992 878.248 888.033 823.069 862.977 770.061C831.951 704.57 756.241 657.894 690.571 663.955C660.902 666.759 607.896 683.222 586.82 763.277C584.83 771.056 589.444 778.926 597.132 781.006C604.911 782.996 612.781 778.383 614.861 770.694C627.344 723.295 654.48 696.338 693.285 692.81C746.743 688.016 811.147 728.179 836.836 782.544C856.735 824.516 848.956 866.669 814.855 901.133C768 948.533 698.079 964.544 623.002 945.095C540.598 923.748 474.838 865.222 455.572 796.293C438.928 728.36 443.089 626.958 489.673 553.507C517.623 509.454 556.337 482.136 604.821 472.276C694.099 453.009 772.161 504.479 822.001 550.974C850.856 577.93 867.228 589.599 882.424 582.634C898.145 575.406 897.44 556.166 896.273 524.207L896.264 524.108L896.255 523.891C894.5 475.225 891.533 392.909 943.255 313.37C944.024 312.474 944.674 311.479 945.208 310.412C957.22 292.42 972.082 274.591 990.426 257.35C1069.75 182.813 1176.58 153.867 1276.26 179.919ZM426.608 799.541C367.252 814.548 313.043 801.106 273.397 761.287C229.436 717.143 211.255 648.577 228.351 590.684C243.095 540.571 282.442 506.197 339.067 493.895C343.68 492.9 347.569 489.734 349.379 485.392C351.188 481.05 350.826 476.075 348.293 472.095C299.81 394.664 330.293 313.162 382.032 266.667C428.797 224.604 510.387 196.834 586.549 256.807C590.438 259.883 595.504 260.697 600.207 259.159C604.821 257.531 608.349 253.731 609.525 248.937C625.806 183.718 673.114 148.349 739.507 151.967C814.014 156.038 901.601 213.523 916.969 300.118C862.271 385.817 865.437 473.054 867.319 524.75L867.319 524.832C867.68 533.877 868.042 544.461 867.771 551.607C862.886 548.26 854.836 541.747 841.72 529.535C763.115 456.084 679.084 426.414 598.851 443.691C543.312 454.999 497.09 487.563 465.25 537.767C420.937 607.672 405.894 709.826 426.608 799.541Z" fill="#0D4752"/>
<path d="M3770.18 -0.000193775L3692.49 -0.000200567C3770.54 26.1057 3834.15 64.1249 3863.97 106.558C3914.99 179.105 3930.27 256.898 3908.02 331.426C3884.5 410.313 3821.37 475.262 3734.89 509.717C3600.84 563.005 3481.54 506.108 3437.3 425.51C3398.22 354.23 3421.02 278.427 3498.36 222.615C3504.78 217.992 3506.32 208.947 3501.61 202.443C3497 196.02 3487.95 194.483 3481.44 199.186C3375.07 275.894 3375.79 373.588 3411.97 439.432C3462.17 530.983 3596.14 596.112 3745.57 536.592C3840.36 498.871 3909.65 427.138 3935.7 339.666C3959.58 259.367 3943.78 172.764 3891.25 95.2332C3899.38 60.0906 3923.52 23.4011 3968.56 -0.000176432L3917.76 -0.000180873C3895.81 18.7064 3879.2 41.6915 3869.33 67.9512C3844.97 42.6684 3810.82 19.5838 3770.18 -0.000193775Z" fill="#0D4752"/>
<path d="M4561.62 -0.000292269C4602.72 45.1921 4628.4 105.455 4627.22 163.356C4626.81 183.582 4623.35 202.587 4616.98 220.181C4630.79 217.775 4644.37 216.645 4657.7 216.645C4758.29 216.645 4844.94 280.417 4922.83 337.767C5048.92 430.567 5148.51 503.846 5278.13 344.27C5283.19 338.029 5292.33 337.125 5298.48 342.19C5304.72 347.256 5305.63 356.301 5300.56 362.543C5048.47 673.091 4925.72 645.14 4770.41 609.681L4769.34 609.436C4727.56 599.929 4684.42 590.115 4635.54 586.623C4636.54 675.479 4581.21 773.236 4498.6 821.17C4422.72 865.249 4336.18 862.092 4253.99 814.114C4310.05 943.079 4294 1073.75 4208.24 1177.12C4104.22 1302.49 3925.3 1356.86 3773.25 1309.37C3678.9 1279.88 3517.72 1185.17 3485.96 881.685C3289.59 919.397 3125.32 855.453 3033.6 704.751C2923.61 524.199 2945.86 261.059 3085.16 92.8087C3118.25 52.8357 3156.44 22.6591 3196.56 -0.000411606L3263.9 -0.000405719C3207.5 22.1616 3152.22 57.0689 3107.32 111.262C2975.44 270.466 2954.37 519.124 3058.12 689.735C3109.49 774.041 3234.59 907.013 3495.55 850.116C3496.8 849.835 3498.06 849.727 3499.3 849.781C3499.98 849.817 3500.65 849.89 3501.32 850.025C3502.35 850.215 3503.37 850.532 3504.33 850.957C3505.35 851.391 3506.32 851.961 3507.22 852.649C3510.57 855.091 3512.74 858.89 3513.1 863.051C3539.24 1162.46 3692.56 1253.91 3781.75 1281.78C3920.69 1325.2 4090.56 1273.46 4185.81 1158.67C4271.01 1056 4280.78 923.477 4212.58 795.118C4209.08 788.524 4205.08 782.164 4200.64 776.059L4198.38 774.123C4196.28 772.305 4194.82 770.025 4194.03 767.556C4153.33 718.483 4082.53 687.79 4007.07 688.55C3911.64 689.735 3832.76 738.854 3790.52 823.25C3749.09 906.018 3783.83 982.355 3837.47 1012.21C3898.7 1046.23 3969.08 1018.28 4016.57 940.935C4020.73 934.151 4029.68 931.98 4036.47 936.141C4043.25 940.302 4045.42 949.257 4041.26 956.041C3995.13 1031.21 3909.83 1085.49 3823.45 1037.54C3758.05 1001.18 3715.17 909.184 3764.65 810.306C3814.13 711.445 3900.15 660.88 4006.8 659.613L4010.6 659.613C4098.04 659.613 4177.6 696.628 4222.28 756.384C4339.97 854.575 4436.58 823.666 4484.03 796.022C4567.7 747.447 4620.26 642.336 4603.61 556.845C4591.04 492.358 4540.39 450.558 4460.88 439.25C4383.09 428.224 4322.12 447.22 4293.72 491.444C4275.08 520.481 4274.54 557.125 4292.27 584.805C4313.8 618.265 4356.85 633.109 4410.4 625.411C4418.36 624.326 4425.69 629.753 4426.78 637.722C4427.86 645.683 4422.43 653.01 4414.47 654.086C4349.26 663.412 4295.8 643.874 4267.94 600.454C4244.06 563.267 4244.6 514.42 4269.39 475.795C4297.97 431.209 4351.34 407.229 4419.18 407.229L4419.18 407.328C4426.79 407.328 4434.55 407.618 4442.48 408.215C4446.99 408.558 4451.57 409.002 4456.21 409.544C4457.69 409.716 4459.19 409.897 4460.71 410.096C4462.12 410.277 4463.53 410.476 4464.95 410.675C4589.95 428.486 4623.24 506.469 4632.02 551.426C4632.4 553.416 4632.77 555.415 4633.09 557.424C4686.42 560.834 4732.35 571.264 4776.83 581.458L4776.9 581.467C4900.34 609.59 5001.83 632.72 5176.73 457.984C5080.32 489.635 4991.95 424.614 4905.66 361.114L4905.64 361.105C4814.28 293.895 4719.85 224.415 4607.77 251.651C4605.65 252.176 4603.51 252.185 4601.49 251.769C4580.29 285.211 4546.41 311.661 4501.31 329.164C4493.89 332.059 4485.48 328.359 4482.59 320.933C4479.69 313.524 4483.4 305.103 4490.82 302.217C4558.84 275.804 4597.01 226.314 4598.28 162.813C4599.45 103.157 4568.05 40.615 4520.31 -0.000295879L4561.62 -0.000292269Z" fill="#0D4752"/>
<path d="M4292.86 -0.000503141L4196.98 -0.000511523C4246.12 22.3695 4287.44 60.5516 4304.3 116.87C4322.3 196.473 4275.72 259.159 4221.54 285.934C4177.85 307.554 4115.43 311.715 4071.29 258.698C4032.49 212.121 4040.63 155.586 4068.76 123.926C4097.52 91.5332 4139.86 88.5571 4182.1 115.966C4188.79 120.308 4197.75 118.408 4202.09 111.705C4206.43 105.02 4204.53 96.056 4197.84 91.7141C4144.2 56.8971 4085.04 61.9537 4047.05 104.74C4010.69 145.726 3999.65 218.092 4048.95 277.341C4094.27 331.796 4166.99 345.365 4234.29 312.077C4298.69 280.236 4354.05 205.428 4332.34 110.176L4332.26 109.941L4332.25 109.914C4332.16 109.697 4332.07 109.462 4332.07 109.263C4320.84 71.4607 4300.28 40.7775 4274.11 16.6706C4274.77 16.2093 4275.4 15.6849 4275.99 15.106C4281.53 9.70567 4287.16 4.67613 4292.86 -0.000503141Z" fill="#0D4752"/>
<path d="M7370.69 467.844C7396.11 467.844 7420.81 472.367 7442.15 481.512C7494.25 503.765 7535.5 550.341 7558.3 612.576C7577.94 666.289 7581.4 725.177 7568.23 776.14C7645.46 817.135 7762.1 799.324 7835.99 683.584C7885.83 605.52 7900.03 485.393 7775.93 403.981C7770.5 400.363 7768.06 393.579 7770.14 387.428C7772.13 381.186 7778.01 377.116 7784.61 377.478C7874.7 382 7933.59 291 7943.36 203.257C7950.88 135.812 7932.26 56.4269 7869.17 -0.000229428L7911 -0.000225771C7964.15 60.8141 7979.71 138.842 7972.21 206.242C7960.91 307.916 7899.58 385.619 7822.78 402.805C7923.64 489.463 7916.68 610.947 7860.41 699.053C7797.52 797.542 7670.19 860.464 7559.04 803.983C7526.49 884.255 7447.93 943.441 7358.21 953.509C7270.2 963.368 7191.77 924.472 7141.03 846.498C7058.26 892.45 6978.76 864.046 6930.54 820.265C6876.16 770.948 6852.87 700.418 6867.42 638.311C6832.03 647.32 6798.79 630.341 6777.68 604.172C6754.7 575.669 6744.75 535.144 6757.87 501.946C6704.05 506.65 6657.1 489.101 6625.62 451.381C6591.54 410.63 6580.56 352.583 6594.33 295.686C6514.34 338.237 6405.79 357.079 6314.73 311.353C6283.9 295.894 6257.7 274.338 6232.34 253.47L6231.88 253.099C6200.94 227.59 6171.63 203.528 6134.64 189.507C5982.68 131.705 5790.82 216.102 5788.92 217.006C5782.95 219.72 5775.99 218.001 5771.83 212.936C5767.67 207.87 5767.49 200.724 5771.19 195.387C5776.09 188.539 5881 42.4059 5986.58 -0.000394009L6116.66 -0.000382638C6137.52 6.6844 6157.89 15.3863 6177.97 23.9707L6178.54 24.2059L6178.55 24.215C6231.52 46.7389 6281.47 67.9781 6338.16 54.9975C6377.3 46.0603 6409.47 24.1065 6442.65 -0.000354138L6492.07 -0.000349818C6484.73 5.1738 6477.4 10.5289 6469.96 15.9564L6469.14 16.5532C6431.87 43.8712 6393.25 72.0941 6344.67 83.2203C6278.64 98.3267 6221.75 74.084 6166.66 50.5651C6118.9 30.2123 6073.67 10.945 6025.73 18.7243C5953.19 30.4837 5870.15 119.132 5826.1 172.23C5896.11 149.344 6028.9 118.317 6144.95 162.461C6186.13 178.11 6218.46 204.668 6249.68 230.303L6249.72 230.331L6250.24 230.756C6275.57 251.651 6299.54 271.371 6327.67 285.482C6421.8 332.683 6537.91 302.407 6611.79 251.235C6613.12 250.095 6614.63 249.227 6616.25 248.639C6622.33 246.278 6629.39 248.286 6633.31 253.822C6636.67 258.553 6636.72 264.623 6634.01 269.354C6607.78 327.247 6613.27 391.299 6647.97 432.846C6679.26 470.286 6728.38 482.679 6786.45 467.663C6792.96 465.945 6799.84 469.029 6802.91 475.09C6805.99 481.15 6804.54 488.477 6799.29 492.819C6771.62 515.976 6778.13 558.401 6800.38 585.981C6818.83 608.957 6850.67 624.063 6884.5 597.831C6888.98 594.384 6894.81 593.959 6899.56 596.239L6899.74 596.329L6900.06 596.483C6907.21 600.183 6909.92 608.867 6906.3 616.013C6876.63 673.372 6894.63 748.623 6950.08 798.827C7005.44 849.03 7075.72 854.91 7138.05 814.566C7138.67 814.159 7139.32 813.807 7140 813.508C7140.44 813.309 7140.89 813.137 7141.35 812.992C7143.21 812.377 7145.17 812.16 7147.12 812.323C7147.84 812.386 7148.56 812.504 7149.26 812.667C7153.15 813.58 7156.41 816.023 7158.4 819.451C7202.72 895.435 7274.36 933.879 7355.05 924.743C7439 915.326 7511.75 857.524 7536.86 780.428C7537.08 779.243 7537.44 778.067 7537.97 776.927C7566.45 683.458 7527.01 549.21 7430.85 508.106C7366.72 480.689 7262.42 503.394 7228.95 572.684C7201.82 628.948 7232.93 682.237 7273.28 707.827C7306.74 729.084 7358.94 737.949 7395.93 692.54C7401 686.389 7410.13 685.393 7416.28 690.459C7422.43 695.525 7423.43 704.661 7418.36 710.812C7372.5 766.986 7304.66 762.011 7257.72 732.169C7205.34 698.781 7169.61 628.948 7202.9 560.02C7232.39 498.871 7304.12 467.754 7370.79 467.754L7370.69 467.844Z" fill="#0D4752"/>
<path d="M7396.08 -2.96956e-05L7441.96 -2.56843e-05C7386.97 40.1177 7347.4 92.8994 7333.43 147.264C7309.28 241.34 7367.08 319.766 7491.81 362.462C7547.71 381.639 7603.34 371.236 7644.5 334.058C7678.51 303.303 7694.88 259.25 7686.11 221.891C7677.42 184.713 7646.4 157.576 7596.29 143.375C7588.6 141.204 7584.17 133.243 7586.34 125.464C7588.51 117.775 7596.47 113.252 7604.25 115.514C7664.22 132.52 7703.3 167.888 7714.33 215.288C7725.64 263.502 7706.28 317.233 7663.95 355.496C7615.46 399.278 7547.62 412.123 7482.5 389.78C7343.74 342.29 7277.53 248.938 7305.48 140.028C7314.99 102.904 7334.72 66.7575 7362.59 34.0934C7360.75 22.8043 7356.71 11.2438 7350.19 -3.37072e-05L7382.48 -3.08844e-05C7383.8 3.08456 7384.99 6.16903 7386.05 9.26266C7389.31 6.13284 7392.66 3.03933 7396.08 -2.96956e-05Z" fill="#0D4752"/>
<path d="M6879.5 -0.000239726L6944.27 -0.000234064C6939.46 7.56198 6935.74 15.6578 6933.25 24.2784C6942.38 40.1446 6950.09 57.5124 6956.32 76.3456C6987.35 169.697 6978.85 258.617 6934.25 308.278C6908.02 337.495 6856.28 367.889 6758.86 346.903C6710.65 336.5 6679.71 300.951 6675.92 251.742C6671.75 197.287 6702.24 144.912 6748.46 127.273C6782.29 114.338 6836.02 114.157 6867.5 136.228C6885.32 148.711 6894.54 166.893 6894.18 188.965C6894.09 196.925 6887.76 203.438 6879.44 203.166C6871.48 203.076 6865.05 196.473 6865.24 188.422C6865.42 176.12 6860.71 166.803 6850.94 159.928C6828.69 144.369 6784.55 144.46 6758.86 154.32C6724.94 167.255 6701.69 208.232 6704.86 249.571C6706.13 266.758 6714.63 307.825 6765.01 318.68C6832.4 333.244 6882.06 323.203 6912.81 289.01C6950.53 247.038 6956.68 169.064 6929.01 85.4819C6917.71 51.4971 6901.15 22.9126 6879.5 -0.000239726Z" fill="#0D4752"/>
</g>
</g>
<defs>
<clipPath id="clip0_433_58">
<rect width="8168" height="3166" fill="white"/>
</clipPath>
</defs>
</svg>
