<svg width="377" height="361" viewBox="0 0 377 361" fill="none" xmlns="http://www.w3.org/2000/svg">
<path d="M105.671 232.43C112.451 232.73 119.721 233.03 126.991 233.4C128.101 233.46 129.411 233.52 130.231 234.12C131.441 235.02 133.171 236.44 133.131 237.57C133.031 239.83 131.091 240.26 128.911 239.78C119.621 237.72 110.371 237.93 101.091 240.09C97.9213 240.83 95.8413 242.36 94.3013 245.24C90.9813 251.45 88.6413 257.91 87.8513 265.25C93.1613 262.72 97.9313 259.97 103.021 258.12C110.261 255.5 117.731 253.53 125.121 251.32C127.381 250.64 129.951 250.18 130.521 253.28C131.111 256.46 128.241 256.69 126.091 257.11C113.611 259.56 102.001 264.18 91.0313 270.6C88.3513 272.17 87.2113 273.85 87.9613 276.84C88.3513 278.41 88.5213 280.03 88.9013 281.6C89.1513 282.66 89.5913 283.67 89.8613 284.44C96.6013 281.01 103.031 277.21 109.861 274.42C115.341 272.18 121.311 271.09 127.081 269.61C129.261 269.05 131.651 269.04 132.051 271.92C132.411 274.54 130.301 275.05 128.171 275.42C113.971 277.88 101.321 283.41 92.1413 291.45C96.4013 296.46 100.671 301.48 105.041 306.62C113.111 301.35 119.351 295.34 124.801 288.47C125.421 287.69 126.051 286.91 126.611 286.09C127.841 284.3 129.721 283.25 131.241 284.88C132.051 285.75 131.861 288.41 131.111 289.66C129.591 292.2 127.431 294.36 125.461 296.61C121.281 301.38 117.051 306.1 112.801 310.89C114.831 311.73 117.831 313.15 120.961 314.18C121.921 314.49 123.381 314.01 124.341 313.44C130.271 309.9 134.741 304.96 137.921 298.83C138.261 298.17 138.381 297.2 138.921 296.86C140.141 296.09 141.551 295.62 142.881 295.03C143.291 296.53 144.521 298.53 143.971 299.44C141.131 304.1 137.901 308.52 134.651 312.91C133.881 313.96 132.551 314.61 131.481 315.44L132.101 316.96C138.161 316.2 144.201 315.25 150.291 314.75C154.611 314.4 159.001 314.38 163.301 314.78C165.401 314.97 166.381 314.63 167.441 312.86C183.271 286.54 206.221 269.78 235.931 262.26C240.261 261.16 244.741 260.61 249.181 259.94C253.271 259.33 254.781 261.3 253.161 265.19C246.001 282.34 235.161 296.74 220.641 308.35C208.071 318.4 193.941 325.23 177.991 328.68C177.871 330.52 177.911 332.39 177.591 334.2C176.251 341.83 172.051 347.44 165.191 351C156.521 355.49 147.061 357.22 137.521 358.36C116.201 360.9 94.8513 360.84 73.8613 356.09C44.6213 349.49 21.0513 334.54 7.58134 306.77C-1.06866 288.93 -1.51868 269.87 2.25132 250.75C9.60132 213.44 29.5813 184.64 61.6713 164.23C62.7113 163.57 63.8513 162.89 64.5713 161.93C74.5913 148.64 88.2613 139.97 102.491 132.04C137.241 112.7 174.491 101.77 214.191 99.29C230.351 98.28 243.651 90.58 256.211 81.32C287.191 58.51 315.041 32.32 340.071 3.12C340.801 2.27 341.381 1.03 342.311 0.66C343.691 0.11 345.311 0.19 346.831 0C346.811 1.45 347.361 3.31 346.671 4.28C344.431 7.41 341.771 10.25 339.201 13.15C316.291 39.01 291.091 62.4 263.581 83.29C254.221 90.4 244.411 96.77 233.331 101.07C237.241 104.89 241.091 105.61 246.311 103.31C260.781 96.94 273.211 87.67 285.231 77.7C298.101 67.03 310.781 56.11 325.641 48.18C339.341 40.86 353.681 36.47 369.451 38.71C370.681 38.88 371.901 39.17 373.131 39.36C375.311 39.69 376.951 40.93 376.051 43.07C375.611 44.13 373.401 45 371.991 45C366.531 45 361.021 44.01 355.631 44.49C341.041 45.78 328.381 52.33 316.711 60.65C307.181 67.45 298.061 74.86 289.001 82.28C275.261 93.53 261.201 104.23 244.081 110.34C250.341 127.15 242.471 141.32 235.581 155.45C228.281 170.4 217.901 183.16 205.481 194.24C204.481 195.13 203.521 196.07 202.811 197.56C204.761 196.96 206.741 196.47 208.651 195.76C228.431 188.4 245.441 176.97 259.391 161.09C259.881 160.53 260.281 159.65 260.891 159.46C262.271 159.04 263.761 158.96 265.211 158.74C265.281 160.19 265.461 161.65 265.361 163.08C265.331 163.58 264.631 164.05 264.221 164.52C244.641 186.66 220.381 200.52 191.441 206.73C185.601 207.98 180.321 211.9 174.781 214.58L175.101 215.79C182.281 214.81 189.521 214.14 196.631 212.81C228.131 206.94 255.921 193.43 279.781 171.95C280.151 171.62 280.501 171.07 280.911 171.01C282.441 170.77 284.481 170.01 285.431 170.69C287.391 172.11 286.431 174.04 284.791 175.36C278.371 180.51 272.191 186.01 265.421 190.64C235.241 211.26 201.721 221.9 165.201 221.68C155.931 221.63 147.811 225.44 138.931 226.01C131.351 226.5 123.781 227.33 116.191 227.66C109.941 227.93 109.931 227.7 105.631 232.38L105.671 232.43ZM151.951 325.87C153.751 326.23 155.541 326.59 158.101 327.09C158.411 326.72 159.091 325.6 160.051 324.85C160.781 324.29 161.881 324.2 162.811 323.9C162.531 324.93 162.451 326.08 161.911 326.95C161.231 328.05 160.181 328.93 159.291 329.9L160.511 329.13C163.671 332.34 166.841 335.54 169.831 338.57C175.041 329.44 171.261 321.7 159.991 320.49C156.801 320.15 153.531 320.56 150.291 320.73C143.581 321.09 136.841 322.18 130.191 321.79C108.801 320.51 91.1813 306.38 84.2913 285.67C77.4413 265.09 83.3513 243.33 99.6713 229.28C100.371 228.68 101.471 228.54 102.381 228.19C92.6113 225.69 84.0113 224.22 75.5713 222.1C63.8213 219.15 57.0113 211.34 55.3013 199.36C54.7613 195.56 54.6013 191.63 54.9113 187.82C55.2713 183.45 56.3513 179.14 57.1913 174.36C43.2013 184.57 32.0513 196.82 23.4113 211.36C23.0613 211.95 22.8813 212.78 22.9613 213.45C24.9813 230.05 36.4113 237.63 47.8713 238.51C50.0913 238.68 52.1313 239.21 51.8313 241.81C51.5413 244.33 49.4013 244.61 47.2213 244.37C34.2113 242.93 24.9513 236.36 19.6713 224.31C19.2613 223.37 18.7713 222.46 18.1313 221.15C12.5113 232.72 9.26133 244.41 7.17133 256.51C5.73133 264.84 8.06131 267.05 15.6813 270.23C19.1913 271.7 23.6313 272.39 27.3113 271.69C34.2113 270.36 40.8913 267.82 47.6113 265.64C49.5813 265 51.4113 264.59 52.4213 266.77C53.4613 269 52.0313 270.29 50.0713 271.02C44.9413 272.93 39.8913 275.18 34.6213 276.59C25.1013 279.14 15.8213 278.54 7.39133 272.71C7.17133 272.56 6.75132 272.69 6.28132 272.69C6.26132 284.32 8.49133 295.32 13.5413 305.71C15.0213 308.76 16.7213 310.9 20.3113 312.55C29.2513 316.66 37.7013 316.28 45.6813 311.46C51.6913 307.82 56.8113 302.74 62.5113 298.56C63.7013 297.69 66.2313 297.16 67.2413 297.83C69.2013 299.14 68.1713 301.09 66.7013 302.56C54.9013 314.42 42.1413 323.97 23.4613 320.22C24.1013 321.16 24.4313 321.8 24.9013 322.32C35.3913 333.8 48.2113 341.74 62.7913 346.9C64.4013 347.47 66.5513 347.27 68.2413 346.75C80.3013 343.03 88.7313 335.27 93.4413 323.54C94.2813 321.46 95.1713 319.26 97.9113 320.36C100.651 321.46 99.7413 323.77 98.9413 325.78C95.0813 335.53 88.5213 342.96 79.5413 348.32C78.5213 348.93 77.5113 349.55 76.2713 350.31C84.0513 352.82 86.0913 352.89 88.3213 350.7C87.7713 350.07 87.0813 349.5 86.6913 348.77C86.1813 347.82 85.9013 346.74 85.5213 345.71C86.5513 346.01 87.6613 346.17 88.5913 346.65C89.4013 347.07 90.0113 347.87 91.1113 348.86C93.6413 345.73 95.9813 342.85 98.3113 339.96C99.5113 338.75 101.201 337.76 102.801 336.63C103.601 336.06 104.141 335.07 104.971 334.6C105.691 334.19 106.671 334.25 107.541 334.11C107.361 334.97 107.461 336.1 106.951 336.63C105.401 338.24 103.601 339.61 102.001 340.99C104.551 343.63 106.601 345.76 108.531 347.76C110.681 345.82 112.831 343.87 115.411 341.54C113.541 339.9 111.951 338.67 110.601 337.21C110.231 336.81 110.561 335.74 110.571 334.98C111.241 335.07 112.101 334.92 112.531 335.28C114.131 336.62 115.591 338.13 117.021 339.5C117.501 339.27 117.771 339.21 117.931 339.05C119.361 337.66 120.761 336.23 122.191 334.84C125.161 331.93 126.521 331.87 129.331 334.75C130.961 336.42 132.421 338.27 133.561 339.59C135.751 337.97 137.231 336.88 138.161 336.19L136.141 330.8L142.051 332.92C142.791 332.02 143.921 330.53 145.171 329.15C146.511 327.68 147.921 326.24 149.421 324.94C149.991 324.44 150.921 324.36 151.691 324.08C151.791 324.67 151.881 325.27 151.981 325.86C149.101 329.06 146.211 332.26 143.661 335.09C146.851 338.37 149.931 341.54 152.561 344.24C155.381 341.7 158.291 339.07 162.021 335.72C159.231 334.48 156.561 334 155.021 332.42C153.431 330.79 152.931 328.1 151.961 325.87H151.951ZM100.421 216.02C106.331 210.08 111.611 204.61 117.101 199.35C119.091 197.45 121.581 196.07 123.841 194.46C124.701 198.34 120.841 199.07 119.151 201.19C117.351 203.45 114.841 205.14 112.941 206.8C117.031 211.09 120.371 214.59 123.841 218.23C126.401 215.65 128.901 213.13 131.821 210.19C129.871 208.43 127.911 206.86 126.221 205.04C125.661 204.43 125.801 203.17 125.621 202.21C126.491 202.47 127.561 202.5 128.201 203.04C130.151 204.7 131.921 206.56 133.931 208.5C140.831 201.57 147.391 194.91 154.061 188.37C154.721 187.73 156.091 187.81 157.131 187.55C156.801 188.49 156.741 189.71 156.101 190.33C153.431 192.92 150.581 195.33 148.191 197.44C152.021 201.48 155.151 204.78 158.371 208.18C161.061 205.43 163.741 202.69 167.151 199.2C165.211 197.59 163.121 196.01 161.251 194.2C160.741 193.71 160.881 192.53 160.721 191.67C161.591 191.87 162.751 191.78 163.271 192.31C165.061 194.18 166.621 196.27 167.771 197.66C172.121 193.41 175.651 189.96 179.241 186.45C178.681 185.82 177.791 185.07 177.241 184.13C176.941 183.63 177.211 182.8 177.231 182.12C177.911 182.15 178.871 181.89 179.231 182.24C184.111 186.98 188.901 191.8 193.891 196.77C204.271 189.31 213.581 179.92 221.031 168.51C216.061 170.77 210.641 167.05 205.771 169.4C205.741 169.89 205.721 170.38 205.691 170.87L210.471 171.79C210.821 173.28 211.381 174.99 211.531 176.74C211.571 177.21 210.351 178.14 209.651 178.2C208.991 178.26 208.251 177.45 206.971 176.67C205.101 179.41 203.661 182.31 201.491 184.49C198.871 187.11 195.651 189.15 192.621 191.34C192.361 191.53 191.191 191.08 191.121 190.78C190.981 190.18 191.091 189.22 191.501 188.84C193.421 187.08 195.471 185.48 197.971 183.4C194.901 180.55 192.641 178.59 190.581 176.44C190.071 175.91 190.231 174.74 190.091 173.86C190.951 174.06 192.081 173.99 192.631 174.52C194.771 176.6 196.731 178.87 198.771 181.09C201.241 178.63 203.311 176.57 205.391 174.5L205.281 173.47C204.151 173.52 203.021 173.59 201.901 173.63C201.041 173.66 200.181 173.66 199.311 173.68C199.531 172.92 199.551 172.01 200.001 171.43C201.231 169.85 202.631 168.4 203.981 166.89C190.241 158.43 189.161 146.28 189.221 133.47C189.221 132.33 190.921 131.2 191.821 130.07C192.881 131.2 194.371 132.17 194.891 133.51C195.441 134.93 194.891 136.74 195.141 138.32C195.831 142.61 196.151 147.06 197.601 151.1C200.591 159.48 208.241 164.06 217.061 162.98C222.591 162.31 227.581 160.45 229.911 154.49C232.491 147.88 235.501 141.45 238.061 134.84C239.131 132.08 239.801 129.09 240.141 126.15C240.791 120.51 240.771 115.71 235.571 110.91C231.391 107.06 227.271 106.13 222.491 105.36C220.911 105.11 219.251 105.24 217.631 105.28C192.091 105.95 167.431 111.25 143.481 119.89C121.451 127.84 100.501 137.99 82.0113 152.57C70.5013 161.65 62.1713 172.8 60.5813 188.05C59.1713 201.59 64.0213 211.18 74.9913 215.36C76.0813 215.78 77.5413 215.23 78.4913 215.16C77.5913 212.73 76.9713 211.05 76.3413 209.36C78.0113 210.02 79.6813 210.67 81.9913 211.58C83.7013 209.82 85.7613 207.5 88.0513 205.44C88.8713 204.71 90.2513 204.6 91.3713 204.21C90.9113 205.34 90.7313 206.74 89.9413 207.56C87.8013 209.79 85.4013 211.77 83.1413 213.81C89.8113 221.51 94.5713 222.6 98.5313 217C96.5713 215.3 94.4213 213.59 92.4813 211.66C91.9513 211.13 92.0713 209.96 91.8913 209.08C92.7513 209.25 93.8913 209.12 94.4213 209.63C96.4013 211.51 98.1913 213.61 100.411 216.01L100.421 216.02ZM245.711 266.7C213.151 272.39 188.361 289.29 171.131 317.93C174.021 319.27 174.121 323.68 178.571 322.56C209.861 314.68 231.711 295.49 245.711 266.71V266.7ZM117.651 343.27C114.961 347.06 110.501 348.12 111.711 353.19H108.131C120.261 354.34 132.241 353.42 144.101 351.23C146.381 350.81 148.461 349.22 150.591 348.19C146.841 344.29 143.781 341.11 140.881 338.08L136.181 342.06C138.101 343.78 139.761 345.1 141.171 346.64C141.691 347.21 141.611 348.33 141.811 349.2C140.951 349.04 139.791 349.18 139.281 348.67C137.721 347.13 136.401 345.34 134.631 343.23C131.841 346.25 129.951 348.6 127.701 350.53C126.981 351.15 124.801 351.17 124.131 350.55C121.871 348.46 119.991 345.96 117.661 343.25L117.651 343.27ZM145.961 200.94C142.671 204.2 139.431 207.41 136.181 210.62C144.731 220.96 147.101 221.04 155.811 210.62C152.551 207.42 149.301 204.22 145.951 200.93L145.961 200.94ZM171.651 199.5C173.891 201.97 175.951 204.24 178.171 206.68C182.631 203.95 186.991 201.29 190.611 199.08C187.541 195.7 184.671 192.54 181.981 189.58C178.411 193.01 174.921 196.37 171.661 199.5H171.651ZM121.841 221.65C117.831 217.56 114.211 213.88 110.831 210.44C108.331 212.74 105.701 215.17 102.781 217.85C103.991 219.18 105.041 221.39 106.261 221.48C111.401 221.88 116.591 221.65 121.841 221.65ZM126.101 335.93C123.951 338.09 121.891 340.14 119.871 342.17C121.721 344.11 123.671 346.15 125.781 348.37C127.941 346.05 129.931 343.92 132.061 341.65C130.061 339.73 128.031 337.78 126.101 335.93ZM93.3913 351.03C96.8713 355.11 102.871 354.82 105.891 350.78C103.831 348.59 101.831 346.46 99.7913 344.29C97.7813 346.41 95.6713 348.63 93.3913 351.03ZM174.461 208.44C172.291 206.19 170.531 204.37 168.901 202.68C166.171 205.27 163.411 207.9 159.991 211.16C161.721 211.75 163.211 212.84 164.261 212.51C167.751 211.42 171.091 209.83 174.461 208.44ZM134.301 213.74C131.571 216.42 128.991 218.94 126.471 221.42C130.691 220.81 135.151 220.16 139.841 219.48C137.571 217.13 135.711 215.2 134.301 213.75V213.74ZM164.521 339.57C161.001 342.7 157.811 345.54 154.621 348.39L155.031 349.15C159.171 347.09 163.301 345.03 167.951 342.72C166.021 340.95 164.941 339.96 164.521 339.58V339.57Z" fill="#074551"/>
<path d="M114.461 146.6C112.101 149.1 110.141 151.38 107.951 153.41C107.111 154.19 105.761 154.42 104.641 154.9C105.111 153.69 105.301 152.22 106.101 151.31C108.071 149.08 110.341 147.1 112.031 145.46C111.531 143.4 111.181 141.91 110.821 140.42L115.511 141.97C118.901 138.54 122.811 134.58 126.721 130.61C127.771 129.54 128.711 128.32 129.921 127.47C130.971 126.74 132.321 126.46 133.541 125.98C133.051 127.12 132.821 128.51 132.021 129.35C127.971 133.59 123.761 137.68 119.621 141.83C118.751 142.7 117.931 143.62 117.161 144.44C119.291 146.63 121.271 148.66 123.301 150.74C126.891 146.97 130.391 143.3 134.131 139.37C133.871 139.07 133.191 138.53 132.811 137.82C132.281 136.84 131.981 135.75 131.581 134.7C132.621 135 133.721 135.19 134.691 135.65C135.431 136.01 136.001 136.72 136.151 136.85C138.191 136.22 139.751 135.73 141.311 135.24C140.761 136.72 140.211 138.19 139.461 140.21C139.891 140.67 140.961 141.55 141.671 142.66C142.081 143.31 141.921 144.32 142.021 145.17C141.261 145.04 140.281 145.15 139.771 144.72C138.831 143.93 138.171 142.81 137.601 142.09C133.591 146.17 129.971 149.87 126.161 153.74C126.481 154.09 127.521 155 128.261 156.12C128.631 156.67 128.431 157.6 128.491 158.36C127.811 158.26 127.011 158.36 126.491 158.03C125.461 157.36 124.581 156.44 123.341 155.37C122.101 156.51 120.921 157.73 119.581 158.75C119.101 159.12 118.251 159 117.571 159.1C117.571 158.33 117.291 157.34 117.661 156.82C118.581 155.52 119.801 154.44 120.911 153.26C118.821 151.1 116.861 149.07 114.451 146.58L114.461 146.6Z" fill="#074551"/>
<path d="M222.181 121.3C222.061 123.47 220.581 125 217.751 125.06C215.031 125.12 212.411 122.72 212.481 120.37C212.571 117.49 214.961 114.62 217.291 114.59C219.751 114.56 222.281 117.7 222.181 121.3Z" fill="#074551"/>
<path d="M147.531 130.87C145.761 131.4 144.641 132.06 144.331 131.78C142.211 129.93 140.211 127.94 138.331 125.85C138.141 125.63 138.991 124.48 139.361 123.76C141.811 125.89 144.261 128.02 147.531 130.87Z" fill="#074551"/>
</svg>
