<svg width="323" height="362" viewBox="0 0 323 362" fill="none" xmlns="http://www.w3.org/2000/svg">
<path d="M252.23 266.02C240.88 272.79 228.59 276.1 216.26 276.7C212.96 268.55 218.13 264.15 222.45 259.38C223.26 258.49 223.94 257.48 225.04 256.06C219.24 256.47 215.76 259.38 214.24 264C212.37 269.66 211.31 275.58 209.81 281.36C208.87 284.97 208.12 288.7 206.65 292.1C202.63 301.4 192.98 304.47 184.22 299.41C177.06 295.27 172.79 288.8 170 280.7C157.96 285.2 145.73 286.13 133.28 282.49C132.08 285.38 131.12 288.07 129.88 290.61C125.44 299.68 119.56 302.48 109.72 300.4C106.18 299.65 102.67 298.67 99.09 298.28C94.02 297.73 90.86 299.44 89.78 304.36C88.41 310.63 87.68 317.12 87.43 323.54C87.11 331.76 87.53 340 87.63 348.23C87.63 348.48 87.62 348.74 87.55 348.97C86.38 352.99 86.95 357.9 81.57 359.65C75.14 361.74 68.54 362.48 63.83 356.98C60.21 352.75 56.79 347.5 55.6 342.19C52.76 329.57 51.15 316.66 49.32 303.83C47.88 293.7 46.89 283.51 45.63 273.35C45.45 271.9 44.86 270.5 44.44 268.99C43.75 268.99 43.26 268.89 42.82 269C32.11 271.71 23.93 267.51 18.47 258.73C15.12 253.34 13.44 246.9 11.07 240.92C10.53 239.55 10.41 237.97 9.73998 236.68C-4.06002 210.28 -1.12 185.15 15.45 161.09C27.75 143.23 44.03 129.44 61.34 116.75C87.7 97.4201 116.39 81.91 144.8 65.93C159.7 57.54 174.38 48.7501 189.15 40.1301C189.9 39.6901 190.57 39.1401 191.63 38.3901C187.67 37.3701 187.14 34.9 187.77 31.52C188.81 25.9 191.29 21.0801 195.27 17.1301C203.27 9.22006 212.92 4.02007 223.81 1.48007C234.83 -1.07993 244.84 1.98005 253.93 8.34005C263.3 14.9001 270.32 23.66 276.62 33.05C299.26 66.81 312.46 104.22 319.34 144.04C323.05 165.47 324.16 186.99 320.85 208.59C318.79 222.01 314.89 234.85 308.82 247.03C307.85 248.99 307.46 251.23 306.58 253.24C306.12 254.31 305.36 255.43 304.43 256.08C302.25 257.58 299.74 258.61 297.62 260.17C286.34 268.44 274.21 273.02 260.09 269.09C257.35 268.33 254.77 267.01 252.27 266.01L252.23 266.02ZM185.17 54.18C164.93 65.6901 144.94 76.98 125.03 88.43C109.77 97.21 94.37 105.78 79.5 115.17C57.46 129.08 37.93 145.87 22.64 167.29C13.47 180.14 7.40997 193.92 8.03997 210.05C8.63997 225.37 16.81 236.37 30.35 240.45C32.67 241.15 34.96 242.34 36.94 243.75C42.67 247.86 46.58 253.45 49.34 259.89C53.18 268.87 54.32 278.41 55.25 288C56.49 300.8 57.43 313.65 59.15 326.39C60.21 334.2 62.73 341.85 68.2 347.83C70.2 350.01 73.8 352.59 76.16 352.15C79.82 351.48 79.16 346.95 79.22 343.81C79.31 339.07 79 334.32 78.86 329.57C78.75 325.82 78.06 321.98 78.67 318.35C79.77 311.74 81.04 305.05 83.33 298.79C85.95 291.6 91.69 289.21 99.13 291.33C102.58 292.31 105.77 294.18 109.19 295.31C110.93 295.89 113.1 296.31 114.77 295.81C123.43 293.22 127.33 286.63 127.95 278.14C128.48 270.8 127.95 263.39 128.44 256.05C128.85 250 129.31 243.76 131.13 238.04C133.74 229.83 140.42 225.32 148.82 224.4C156.64 223.54 162.5 227.7 166.69 234.01C168.46 236.68 170.04 239.69 170.79 242.77C172.36 249.18 173.55 255.7 174.49 262.23C175.83 271.55 177.09 280.79 183.42 288.42C189.52 295.77 195.98 295.55 199.94 286.88C202.53 281.21 203.96 274.83 204.86 268.62C205.8 262.17 208.88 257.54 213.67 253.56C215.41 252.11 216.8 250.24 218.35 248.56L217.84 247.65C222.94 247.37 228.05 246.83 233.15 246.91C235.93 246.96 237.03 245.9 238.06 243.57C243.92 230.28 244.44 216.77 240.26 202.96C236.73 191.31 235.13 179.44 237.8 167.45C239.63 159.26 237.47 152.68 231.74 146.97C228.46 143.71 224.98 140.65 221.82 137.28C214.91 129.91 214.01 123.19 218.07 113.9C219.91 109.68 221.66 105.36 222.82 100.93C225.5 90.67 222.54 83.9001 213.33 78.5301C209.78 76.4601 206.08 74.6101 202.39 72.7801C194.15 68.7101 187.35 63.3401 185.18 54.1701L185.17 54.18ZM243.97 261.23C249.05 260.91 250.97 258.82 251.59 254.5C254.93 231.36 257.74 208.18 258.08 184.76C258.41 161.81 256.87 139.06 251.11 116.73C243.38 86.7901 228.93 61.1901 203.34 42.7901C203.14 42.6501 203.05 42.3701 202.76 41.9401C212.97 44.8901 224.02 52.1701 232.12 61.1401C244.21 74.5201 251.5 90.45 256.28 107.58C266.91 145.68 266.91 184.35 261.88 223.22C260.99 230.08 259.69 236.88 258.43 244.58C264.42 237.83 271.33 234.8 279.45 234.68C287.61 234.56 294.79 237.36 300.95 242.62C301.3 242.26 301.55 242.12 301.64 241.9C302.03 240.98 302.39 240.05 302.73 239.12C315.96 201.67 317.38 163.61 308.31 125.09C298.74 84.4501 278.62 49.7901 248.19 21.2601C244.71 17.9901 239.9 15.4201 235.27 14.2301C219.14 10.0701 199.98 21.1501 194.58 37.0901C199.69 39.7701 200.05 41.9801 196.21 46.5101C195.61 47.2201 195.24 48.2501 195.06 49.1901C194.02 54.4301 195.8 58.7 200.27 61.43C205.16 64.42 210.33 66.9301 215.37 69.6701C225.91 75.4001 230.98 84.3001 229.84 96.2001C229.28 101.99 228.27 107.94 226.2 113.33C222.45 123.06 224.97 130.57 232.31 137.21C235.55 140.14 238.72 143.17 241.69 146.37C246.65 151.73 248.17 158.02 246.16 165.13C245.62 167.04 245.28 169.03 244.97 170.99C243.29 181.53 245.77 191.66 248.41 201.68C251.81 214.56 253 227.16 246.89 239.63C245.7 242.05 245.04 244.86 244.74 247.55C244.23 252.05 244.21 256.6 243.98 261.23H243.97ZM159.62 236.61C152.61 242.28 146.62 248.45 137.97 250.39C142.21 242.78 150.12 239.51 156.76 234.52C147.28 229.49 139.97 231.86 137.38 241.62C135.35 249.25 134.53 257.32 134.15 265.24C133.59 276.97 133.95 277.06 145.61 277.12C146.86 277.12 148.59 276.12 149.29 275.05C152.48 270.22 156.39 266.29 161.92 264.38C163.14 263.96 164.68 264.47 166.07 264.56C165.68 265.81 165.62 267.33 164.84 268.25C162.46 271.06 159.81 273.64 156.66 276.94C161.09 276.07 164.71 275.36 168.6 274.6C167.5 266.45 166.46 258.66 165.33 250.32C164.08 251.31 163.52 251.79 162.92 252.22C158.76 255.17 154.64 258.16 150.4 260.99C149.74 261.43 148.56 261.09 147.62 261.11C147.64 260.07 147.23 258.63 147.76 258.06C150.27 255.34 152.81 252.56 155.78 250.39C158.21 248.62 161.25 247.69 164.41 246.21C162.78 242.94 161.25 239.87 159.62 236.59V236.61ZM290.15 246.61C286.34 245.72 283.91 242.7 280.83 245.56C276.55 249.54 272.44 253.7 268.23 257.76C266.74 259.2 265.17 260.55 262.79 262.71C266.17 262.99 268.48 263.31 270.8 263.3C271.6 263.3 272.87 262.67 273.11 262.02C276 254.41 281.53 249.62 290.15 246.61ZM25.33 257.97C30.78 263.16 33.5 263.22 40.2 258.32C39.04 255.96 37.87 253.56 36.61 250.98C32.75 253.37 29.2 255.57 25.33 257.97ZM221.02 272.55C223.36 271.22 226.74 270.46 227.82 268.45C229.95 264.49 232.42 261.47 237.01 260.07C236.65 258.55 236.31 257.15 235.93 255.55L231.15 255.8C229.93 262.94 223.51 266.12 221.02 272.55ZM256.32 252.32C255.88 253.81 255.15 256.25 254.42 258.68C256.24 259.13 264.43 251.84 267.06 247.57C263.8 249.01 260.39 250.52 256.31 252.32H256.32ZM17.58 243.93C19.17 247.28 20.38 249.83 21.73 252.65C23.97 251.25 25.99 249.99 28.2 248.61C24.65 247.05 21.52 245.67 17.58 243.93ZM282.73 260.75C288.04 258.94 292.27 255.74 295.81 251.09C294.46 249.95 293.48 249.12 292.11 247.96C291.94 254.9 286.37 257 282.73 260.75Z" fill="#074551"/>
<path d="M135.5 273.35C138.47 274.67 148.01 269.85 148.43 267.24C148.5 266.79 147.14 265.57 146.91 265.68C142.84 267.6 138.37 269.01 135.51 273.35H135.5Z" fill="white"/>
<path d="M70.64 154.98C69.31 150.66 71.3801 147.82 74.5301 145.59C80.1501 141.63 86.46 139.25 93.26 138.57C103.05 137.59 111.13 141.26 116.47 149.42C125.48 163.21 126.02 177.69 118.43 192.37C117.75 193.69 116.94 195.06 115.85 196.01C115.06 196.7 113.47 197.28 112.68 196.92C111.98 196.61 111.46 194.87 111.61 193.87C112.32 189.06 113.88 184.31 114.01 179.5C114.19 172.82 114.21 165.93 112.79 159.46C110.34 148.31 102.12 143.97 91.25 147.41C86.56 148.89 82.16 151.27 77.62 153.24L77.82 154.16C79.66 154.63 81.54 154.99 83.33 155.6C95.08 159.57 101.08 168.56 103.7 180C106.4 191.81 104.48 202.81 96.38 212.33C87.13 223.21 73.18 226.57 59.32 221.15C45.73 215.83 37.85 203.94 38.81 189.57C39.46 179.81 43.98 171.98 51.85 166.13C53.34 165.02 55.18 163.9 56.19 166.13C56.66 167.18 55.88 169.56 54.89 170.39C48.89 175.34 45.19 181.46 44.69 189.26C43.73 204.16 53.81 215.05 69 215.68C82.99 216.26 95.24 205.12 95.76 191.35C96.04 183.98 94.27 177.18 89.64 171.38C84.95 165.51 78.88 163.01 71.38 164.89C68.93 165.5 66.13 166.65 64.75 163.72C63.33 160.72 65.69 158.6 67.76 156.74C68.49 156.09 69.44 155.7 70.64 154.98Z" fill="#074551"/>
<path d="M144.13 100.03C145.57 97.09 146.71 94.16 148.36 91.55C152.2 85.46 157.59 81.48 164.92 80.52C165.78 80.41 166.8 80.11 167.5 80.43C169.38 81.31 171.12 82.47 172.92 83.52C171.43 85.18 170.22 87.81 168.39 88.34C160 90.81 155.63 97.2 151.93 104.24C149.91 108.08 152.4 114.09 156.81 117.28C164.19 122.62 176.28 122.53 184.04 117.21C189.66 113.36 193.76 108.58 194.08 101.44C194.38 94.6701 190.76 90.1201 184.06 89.2301C180.94 88.8201 179.02 87.42 178.82 84.49C178.61 81.5 181.24 80.67 183.56 80.08C189.2 78.67 194.05 79.7001 198.04 84.4101C204.61 92.1701 205.97 100.63 201.89 109.85C194.8 125.86 177.82 132.64 160.29 126.61C156.02 135.45 149.46 137.57 139.83 133.63C136.75 135.52 134.14 137.74 131.12 138.81C127.06 140.25 123.07 139.05 120.32 135.62C117.62 132.25 119.26 129.03 120.87 125.55C121.72 123.71 121.26 120.72 120.37 118.71C117.37 111.94 117.15 105.74 123.37 100.81C129.91 95.62 136.95 96 144.15 100.03H144.13ZM155.86 124.21C147.32 119.22 143.59 112.3 143.59 103.55C141.68 103.26 140.08 103.03 138.48 102.78C136.88 102.53 135.28 102.16 133.67 102.05C128.05 101.64 125.62 104.87 127.17 110.17C128.03 113.12 128.74 116.27 128.62 119.3C128.55 121.01 126.96 123.01 125.51 124.21C123.55 125.81 122.33 129.77 123.93 132.04C125.73 134.61 128.16 133.94 130.2 132.57C131.82 131.49 132.98 129.75 134.42 128.38C136.23 126.66 137.94 125.35 140.53 127.62C141.51 128.48 143.71 128.61 145.11 128.21C148.53 127.24 151.8 125.77 155.87 124.21H155.86Z" fill="#074551"/>
<path d="M141.2 188.3C142.46 187 143.51 185.38 145.01 184.46C148.5 182.32 152.2 180.52 155.75 178.61C154.38 174.08 152.68 169.92 151.9 165.59C150.41 157.26 154.96 152.16 163.49 151.99C176.29 151.74 190.53 161.28 195.97 173.75C196.42 174.78 196.73 175.9 197.33 176.82C202.61 184.89 202.08 192.98 196.93 200.7C191.44 208.93 183.96 214.24 173.53 213.67C166.52 213.29 162.37 208.74 159.14 202.68C153.6 204.73 148.09 204.1 142.92 201.52C140.66 200.39 138.5 198.65 136.89 196.69C134.81 194.15 135.73 189.84 138.45 188.1C139.11 187.68 140.34 188.16 141.31 188.22C141.39 189 141.71 189.88 141.48 190.57C140.28 194.14 141.02 196 144.71 196.86C149.27 197.92 153.84 198.1 158.07 195.35C159.41 194.48 160.93 193.82 162.46 193.34C164.75 192.62 166.2 193.07 166.43 196.01C166.89 202.04 173.29 206.68 179.23 205.57C188.84 203.76 195.81 191.72 192.11 182.3C187.65 170.94 179.22 163.19 167.92 158.7C163.45 156.93 160.55 157.99 159.32 161.12C158.03 164.4 160.12 174.02 162.35 175.1C162.46 175.15 162.6 175.15 162.71 175.19C166.91 176.83 167.3 178.06 164.22 181.31C157.9 187.96 150.33 190.75 141.21 188.31L141.2 188.3Z" fill="#074551"/>
<path d="M199.15 163.6C192.42 161.11 187.24 153.25 188.43 146.2C190.09 147.39 191.8 148.05 192.61 149.29C197.36 156.58 203.76 157.85 210.12 153.05C209.7 151.27 209.43 149.78 208.99 148.33C208.68 147.31 208.34 146.19 207.67 145.42C204.03 141.19 199.22 140.37 194.03 141.2C191.38 141.62 188.79 142.48 186.17 143.13L185.3 142.37C186.17 141.16 186.81 139.63 187.95 138.78C196 132.77 208.2 135.49 214.27 144.35C215.38 145.96 217.03 147.39 218.74 148.37C225.98 152.51 229.12 166.78 223.59 173.01C219.81 177.27 214.51 178.81 208.89 177.33C203.59 175.94 200.51 172.15 199.42 166.79C199.22 165.82 199.25 164.81 199.16 163.61L199.15 163.6ZM206.13 164.89C208.17 168.91 211.82 170.07 216.41 167.77C218.95 166.5 219.33 162.29 217.68 158.8C213.96 160.76 210.21 162.74 206.13 164.9V164.89Z" fill="#074551"/>
<path d="M210.32 213.98C211.46 214.08 212.46 214.13 213.45 214.26C218.49 214.9 223.27 216.33 224.97 221.72C226.71 227.24 224.62 232.16 220.64 235.99C216.53 239.95 211.42 241.44 205.78 239.76C201.66 238.53 198.93 235.28 198.92 231.32C198.92 228.84 201.43 226.26 203.1 223.93C203.56 223.29 205.06 223.38 206.08 223.14C206.14 224.17 206.19 225.2 206.26 226.23C206.36 227.92 205.84 230.36 206.73 231.1C207.83 232.01 210.16 231.81 211.86 231.52C213.1 231.31 214.33 230.32 215.3 229.4C218.33 226.56 217.79 223.8 213.91 222.25C211.14 221.14 208.23 220.37 205.51 219.16C204.53 218.73 203.92 217.46 203.15 216.57C204.1 215.87 204.97 214.9 206.03 214.55C207.42 214.09 208.98 214.13 210.33 213.96L210.32 213.98Z" fill="#074551"/>
<path d="M135.5 273.35C138.36 269.01 142.83 267.6 146.9 265.68C147.14 265.57 148.5 266.79 148.42 267.24C148 269.85 138.46 274.67 135.49 273.35H135.5Z" fill="#074551"/>
</svg>
